<svg xmlns="http://www.w3.org/2000/svg" width="1100.081" height="516.477" viewBox="0 0 1100.081 516.477">
  <g id="Grupo_1103417" data-name="Grupo 1103417" transform="translate(-256 -3221)">
    <path id="Trazado_886007" data-name="Trazado 886007" d="M3,0H256a3,3,0,0,1,3,3V49a3,3,0,0,1-3,3H3a3,3,0,0,1-3-3V3A3,3,0,0,1,3,0Z" transform="translate(264 3387)" fill="#f0c518"/>
    <path id="Trazado_886008" data-name="Trazado 886008" d="M3,0H195a3,3,0,0,1,3,3V49a3,3,0,0,1-3,3H3a3,3,0,0,1-3-3V3A3,3,0,0,1,3,0Z" transform="translate(882.081 3322)" fill="#f0c518"/>
    <path id="Trazado_886009" data-name="Trazado 886009" d="M-86.563-5.317h-4.913V0h-2.566V-12.8h8.376v1.978h-5.81v3.524h4.913Zm7.972,3.911A3.229,3.229,0,0,1-79.708-.229a2.959,2.959,0,0,1-1.573.413,2.892,2.892,0,0,1-2.351-1.02A4.89,4.89,0,0,1-84.48-4V-9.51h2.558v5.528a3.07,3.07,0,0,0,.338,1.709,1.216,1.216,0,0,0,1.05.461,2.557,2.557,0,0,0,1.055-.2,1.778,1.778,0,0,0,.721-.584V-9.51h2.566V0h-2.127ZM-70.137.185a4.279,4.279,0,0,1-3.322-1.305,4.784,4.784,0,0,1-1.2-3.362v-.352a5.207,5.207,0,0,1,1.16-3.5A3.944,3.944,0,0,1-70.3-9.686a3.692,3.692,0,0,1,2.94,1.173,4.637,4.637,0,0,1,1.024,3.16v1.327h-5.669l-.026.053a2.569,2.569,0,0,0,.593,1.582,1.987,1.987,0,0,0,1.578.606A5.279,5.279,0,0,0-68.4-1.96,5.971,5.971,0,0,0-67.157-2.5l.694,1.582a4.764,4.764,0,0,1-1.547.782A6.86,6.86,0,0,1-70.137.185ZM-70.3-7.708a1.425,1.425,0,0,0-1.191.532A2.667,2.667,0,0,0-72-5.766l.018.044h3.129v-.193A2.221,2.221,0,0,0-69.2-7.229,1.268,1.268,0,0,0-70.3-7.708Zm7.8-1.8.114,1.362a3.478,3.478,0,0,1,1.169-1.134,3.034,3.034,0,0,1,1.556-.4,2.828,2.828,0,0,1,2.25.927A4.4,4.4,0,0,1-56.6-5.827V0h-2.575V-5.818a2.277,2.277,0,0,0-.356-1.446A1.312,1.312,0,0,0-60.6-7.69a2.241,2.241,0,0,0-1.006.215,1.965,1.965,0,0,0-.716.593V0H-64.89V-9.51Zm10.89-2.329V-9.51H-50v1.8h-1.608v4.843a1.105,1.105,0,0,0,.233.791.818.818,0,0,0,.611.237,2.45,2.45,0,0,0,.352-.022,2.961,2.961,0,0,0,.343-.075l.211,1.854a5.2,5.2,0,0,1-.751.2,4.48,4.48,0,0,1-.8.066,2.735,2.735,0,0,1-2.043-.729,3.2,3.2,0,0,1-.716-2.312V-7.708h-1.389v-1.8h1.389v-2.329ZM-44.3.185a4.279,4.279,0,0,1-3.322-1.305,4.784,4.784,0,0,1-1.2-3.362v-.352a5.207,5.207,0,0,1,1.16-3.5,3.944,3.944,0,0,1,3.19-1.354,3.692,3.692,0,0,1,2.94,1.173A4.637,4.637,0,0,1-40.5-5.353v1.327h-5.669l-.026.053A2.569,2.569,0,0,0-45.6-2.391a1.987,1.987,0,0,0,1.578.606,5.279,5.279,0,0,0,1.463-.176A5.971,5.971,0,0,0-41.317-2.5l.694,1.582a4.764,4.764,0,0,1-1.547.782A6.86,6.86,0,0,1-44.3.185Zm-.167-7.893a1.425,1.425,0,0,0-1.191.532,2.667,2.667,0,0,0-.505,1.411l.018.044h3.129v-.193a2.221,2.221,0,0,0-.343-1.314A1.268,1.268,0,0,0-44.464-7.708Zm10.6,5.071a.885.885,0,0,0-.409-.725,4.151,4.151,0,0,0-1.516-.532A6.047,6.047,0,0,1-38.325-4.9a2.208,2.208,0,0,1-.866-1.837,2.62,2.62,0,0,1,1.037-2.083,4.182,4.182,0,0,1,2.76-.861,4.513,4.513,0,0,1,2.887.861A2.517,2.517,0,0,1-31.465-6.68l-.018.053h-2.479a1.245,1.245,0,0,0-.369-.932,1.461,1.461,0,0,0-1.063-.36,1.453,1.453,0,0,0-.976.308.957.957,0,0,0-.36.756.854.854,0,0,0,.374.716,4.158,4.158,0,0,0,1.516.5A6.17,6.17,0,0,1-32.234-4.61a2.265,2.265,0,0,1,.857,1.876,2.51,2.51,0,0,1-1.1,2.1,4.742,4.742,0,0,1-2.9.817,4.408,4.408,0,0,1-3-.962,2.691,2.691,0,0,1-1.05-2.193l.018-.053h2.347a1.334,1.334,0,0,0,.5,1.107,2.068,2.068,0,0,0,1.239.343,1.762,1.762,0,0,0,1.085-.286A.927.927,0,0,0-33.864-2.637Zm8.227-2.039a6.18,6.18,0,0,1,.971-3.63,3.154,3.154,0,0,1,2.738-1.38,2.663,2.663,0,0,1,1.283.308,3.087,3.087,0,0,1,1,.879v-5.212h2.575V0h-2.188l-.22-1.169A3.179,3.179,0,0,1-20.54-.163a2.812,2.812,0,0,1-1.406.347A3.215,3.215,0,0,1-24.667-1.1a5.479,5.479,0,0,1-.971-3.393Zm2.558.185a3.874,3.874,0,0,0,.422,1.964,1.469,1.469,0,0,0,1.371.716,2,2,0,0,0,.967-.224,1.788,1.788,0,0,0,.677-.655V-6.741a1.975,1.975,0,0,0-.672-.7,1.788,1.788,0,0,0-.954-.25,1.448,1.448,0,0,0-1.375.835,4.718,4.718,0,0,0-.435,2.18ZM-10.96.185a4.279,4.279,0,0,1-3.322-1.305,4.784,4.784,0,0,1-1.2-3.362v-.352a5.207,5.207,0,0,1,1.16-3.5,3.944,3.944,0,0,1,3.19-1.354,3.692,3.692,0,0,1,2.94,1.173,4.637,4.637,0,0,1,1.024,3.16v1.327h-5.669l-.026.053a2.569,2.569,0,0,0,.593,1.582,1.987,1.987,0,0,0,1.578.606A5.279,5.279,0,0,0-9.224-1.96,5.971,5.971,0,0,0-7.98-2.5l.694,1.582a4.764,4.764,0,0,1-1.547.782A6.86,6.86,0,0,1-10.96.185Zm-.167-7.893a1.425,1.425,0,0,0-1.191.532,2.667,2.667,0,0,0-.505,1.411l.018.044h3.129v-.193a2.221,2.221,0,0,0-.343-1.314A1.268,1.268,0,0,0-11.127-7.708ZM1.512,0H-1.055V-9.51H1.512Zm0-11.786H-1.055v-1.925H1.512ZM5.968-9.51l.114,1.362A3.478,3.478,0,0,1,7.251-9.281a3.034,3.034,0,0,1,1.556-.4,2.828,2.828,0,0,1,2.25.927,4.4,4.4,0,0,1,.809,2.931V0H9.29V-5.818a2.277,2.277,0,0,0-.356-1.446A1.312,1.312,0,0,0,7.866-7.69a2.241,2.241,0,0,0-1.006.215,1.965,1.965,0,0,0-.716.593V0H3.577V-9.51ZM14.449,0V-7.708H13.034v-1.8h1.415v-1.055a3.216,3.216,0,0,1,.923-2.465,3.644,3.644,0,0,1,2.593-.866,4.689,4.689,0,0,1,.664.048q.338.048.743.136l-.22,1.907q-.211-.035-.409-.062a3.537,3.537,0,0,0-.461-.026,1.232,1.232,0,0,0-.945.343,1.388,1.388,0,0,0-.321.984V-9.51h1.828v1.8H17.016V0Zm5.212-4.843a5.1,5.1,0,0,1,1.187-3.485,4.136,4.136,0,0,1,3.287-1.358,4.18,4.18,0,0,1,3.3,1.354,5.076,5.076,0,0,1,1.2,3.489v.185a5.084,5.084,0,0,1-1.191,3.494A4.162,4.162,0,0,1,24.152.185a4.173,4.173,0,0,1-3.3-1.349,5.084,5.084,0,0,1-1.191-3.494Zm2.558.185a4.137,4.137,0,0,0,.457,2.087,1.578,1.578,0,0,0,1.477.787,1.562,1.562,0,0,0,1.455-.791,4.11,4.11,0,0,0,.461-2.083v-.185A4.068,4.068,0,0,0,25.6-6.908a1.576,1.576,0,0,0-1.468-.8,1.557,1.557,0,0,0-1.455.8,4.1,4.1,0,0,0-.461,2.061Zm13-2.646-.94-.026a1.709,1.709,0,0,0-.94.237,1.5,1.5,0,0,0-.562.668V0H30.217V-9.51H32.6L32.713-8.1a3,3,0,0,1,.866-1.165A1.93,1.93,0,0,1,34.8-9.686a1.918,1.918,0,0,1,.356.031q.163.031.33.075ZM38.936-9.51l.105,1.257a3.2,3.2,0,0,1,1.147-1.059,3.3,3.3,0,0,1,1.6-.374,2.905,2.905,0,0,1,1.564.4,2.494,2.494,0,0,1,.984,1.222,3.3,3.3,0,0,1,1.143-1.2,3.1,3.1,0,0,1,1.652-.431,2.71,2.71,0,0,1,2.219,1,4.762,4.762,0,0,1,.813,3.045V0H47.593V-5.651a2.665,2.665,0,0,0-.352-1.591A1.248,1.248,0,0,0,46.2-7.69a1.792,1.792,0,0,0-.945.242,1.761,1.761,0,0,0-.637.672q0,.167.009.286t.009.242V0H42.073V-5.651a2.673,2.673,0,0,0-.352-1.578,1.242,1.242,0,0,0-1.055-.461,1.991,1.991,0,0,0-.91.2,1.745,1.745,0,0,0-.646.558V0H36.554V-9.51ZM57.735,0a5.4,5.4,0,0,1-.242-.686,4.769,4.769,0,0,1-.145-.738A3.518,3.518,0,0,1,56.3-.272a2.621,2.621,0,0,1-1.547.457,3.211,3.211,0,0,1-2.3-.769,2.755,2.755,0,0,1-.809-2.1,2.508,2.508,0,0,1,1.077-2.167,5.377,5.377,0,0,1,3.142-.769H57.3v-.756a1.48,1.48,0,0,0-.36-1.063,1.414,1.414,0,0,0-1.072-.378,1.394,1.394,0,0,0-.962.3,1.059,1.059,0,0,0-.338.831H52.1l-.018-.053a2.412,2.412,0,0,1,1.05-2.079,4.562,4.562,0,0,1,2.9-.875,4.257,4.257,0,0,1,2.773.861,3,3,0,0,1,1.059,2.47v3.929a7.431,7.431,0,0,0,.1,1.257A6.307,6.307,0,0,0,60.293,0ZM55.389-1.714a2.187,2.187,0,0,0,1.2-.334,1.8,1.8,0,0,0,.721-.773V-4.166H55.863a1.708,1.708,0,0,0-1.235.4,1.329,1.329,0,0,0-.417.993A.992.992,0,0,0,54.523-2,1.234,1.234,0,0,0,55.389-1.714Zm10.38-.07a1.428,1.428,0,0,0,1.063-.4,1.452,1.452,0,0,0,.4-1.068h2.338l.018.053A2.976,2.976,0,0,1,68.511-.787a4.01,4.01,0,0,1-2.742.971,4.052,4.052,0,0,1-3.261-1.349,5.128,5.128,0,0,1-1.151-3.45v-.264A5.161,5.161,0,0,1,62.5-8.328a4.016,4.016,0,0,1,3.248-1.358,3.922,3.922,0,0,1,2.8,1,3.348,3.348,0,0,1,1.028,2.637l-.018.053H67.228a1.9,1.9,0,0,0-.391-1.226,1.314,1.314,0,0,0-1.085-.488,1.465,1.465,0,0,0-1.411.8,4.362,4.362,0,0,0-.417,2.035v.264a4.346,4.346,0,0,0,.417,2.048A1.485,1.485,0,0,0,65.769-1.784ZM73.775,0H71.209V-9.51h2.566Zm0-11.786H71.209v-1.925h2.566Zm1.714,6.943a5.1,5.1,0,0,1,1.187-3.485,4.136,4.136,0,0,1,3.287-1.358,4.18,4.18,0,0,1,3.3,1.354,5.076,5.076,0,0,1,1.2,3.489v.185a5.084,5.084,0,0,1-1.191,3.494A4.162,4.162,0,0,1,79.98.185a4.173,4.173,0,0,1-3.3-1.349,5.084,5.084,0,0,1-1.191-3.494Zm2.558.185A4.137,4.137,0,0,0,78.5-2.571a1.578,1.578,0,0,0,1.477.787,1.562,1.562,0,0,0,1.455-.791A4.11,4.11,0,0,0,81.9-4.658v-.185a4.068,4.068,0,0,0-.466-2.065,1.576,1.576,0,0,0-1.468-.8,1.557,1.557,0,0,0-1.455.8,4.1,4.1,0,0,0-.461,2.061Zm2.435-8.912h2.856l.018.053-2.435,2.285H78.732Zm7.91,4.061.114,1.362a3.478,3.478,0,0,1,1.169-1.134,3.034,3.034,0,0,1,1.556-.4,2.828,2.828,0,0,1,2.25.927,4.4,4.4,0,0,1,.809,2.931V0H91.714V-5.818a2.277,2.277,0,0,0-.356-1.446A1.312,1.312,0,0,0,90.29-7.69a2.241,2.241,0,0,0-1.006.215,1.965,1.965,0,0,0-.716.593V0H86V-9.51Z" transform="translate(416 3420)" fill="#12263f"/>
    <path id="Trazado_886010" data-name="Trazado 886010" d="M-34.582-4.664A4.776,4.776,0,0,1-35.9-1.2,4.571,4.571,0,0,1-39.34.164,4.529,4.529,0,0,1-42.762-1.2a4.8,4.8,0,0,1-1.312-3.461V-6.711a4.807,4.807,0,0,1,1.309-3.457,4.5,4.5,0,0,1,3.41-1.371,4.583,4.583,0,0,1,3.445,1.371,4.768,4.768,0,0,1,1.328,3.457Zm-2.273-2.062a3.44,3.44,0,0,0-.664-2.18,2.2,2.2,0,0,0-1.836-.852,2.129,2.129,0,0,0-1.8.852,3.512,3.512,0,0,0-.645,2.18v2.063a3.537,3.537,0,0,0,.648,2.2,2.148,2.148,0,0,0,1.813.852,2.177,2.177,0,0,0,1.828-.852,3.507,3.507,0,0,0,.656-2.2Zm11.531,2.734a4.945,4.945,0,0,1-.844,3.023A2.854,2.854,0,0,1-28.605.164,2.576,2.576,0,0,1-29.9-.148a2.672,2.672,0,0,1-.934-.914L-31.02,0h-1.93V-12.187h2.273v4.633a2.582,2.582,0,0,1,.879-.781,2.457,2.457,0,0,1,1.176-.273,2.8,2.8,0,0,1,2.453,1.215,5.577,5.577,0,0,1,.844,3.238ZM-27.6-4.156a4.4,4.4,0,0,0-.363-1.957A1.275,1.275,0,0,0-29.2-6.836a1.7,1.7,0,0,0-.9.223,1.543,1.543,0,0,0-.578.637V-2.4a1.449,1.449,0,0,0,.582.586,1.874,1.874,0,0,0,.91.2,1.3,1.3,0,0,0,1.234-.621A3.618,3.618,0,0,0-27.6-3.992Zm8.25,1.813a.787.787,0,0,0-.363-.645,3.69,3.69,0,0,0-1.348-.473,5.375,5.375,0,0,1-2.254-.9,1.962,1.962,0,0,1-.77-1.633,2.329,2.329,0,0,1,.922-1.852,3.717,3.717,0,0,1,2.453-.766,4.011,4.011,0,0,1,2.566.766,2.237,2.237,0,0,1,.926,1.906l-.016.047h-2.2a1.106,1.106,0,0,0-.328-.828,1.3,1.3,0,0,0-.945-.32,1.292,1.292,0,0,0-.867.273.85.85,0,0,0-.32.672.759.759,0,0,0,.332.637,3.7,3.7,0,0,0,1.348.441A5.484,5.484,0,0,1-17.9-4.1a2.014,2.014,0,0,1,.762,1.668,2.231,2.231,0,0,1-.977,1.867,4.215,4.215,0,0,1-2.578.727,3.918,3.918,0,0,1-2.668-.855,2.392,2.392,0,0,1-.934-1.949l.016-.047h2.086a1.186,1.186,0,0,0,.445.984,1.838,1.838,0,0,0,1.1.3,1.567,1.567,0,0,0,.965-.254A.824.824,0,0,0-19.348-2.344ZM-12,.164A3.8,3.8,0,0,1-14.957-1,4.252,4.252,0,0,1-16.02-3.984V-4.3a4.628,4.628,0,0,1,1.031-3.109,3.506,3.506,0,0,1,2.836-1.2A3.282,3.282,0,0,1-9.539-7.566a4.122,4.122,0,0,1,.91,2.809v1.18h-5.039l-.023.047a2.284,2.284,0,0,0,.527,1.406,1.766,1.766,0,0,0,1.4.539,4.692,4.692,0,0,0,1.3-.156,5.307,5.307,0,0,0,1.105-.477l.617,1.406a4.234,4.234,0,0,1-1.375.7A6.1,6.1,0,0,1-12,.164Zm-.148-7.016a1.267,1.267,0,0,0-1.059.473,2.371,2.371,0,0,0-.449,1.254l.016.039h2.781v-.172a1.974,1.974,0,0,0-.3-1.168A1.127,1.127,0,0,0-12.152-6.852Zm9.3.359-.836-.023a1.519,1.519,0,0,0-.836.211,1.337,1.337,0,0,0-.5.594V0H-7.3V-8.453h2.117l.1,1.25a2.667,2.667,0,0,1,.77-1.035,1.715,1.715,0,0,1,1.09-.371,1.705,1.705,0,0,1,.316.027q.145.027.293.066ZM1.527-3.148l.148.781h.047l.156-.781,1.391-5.3H5.652L2.777,0H.6L-2.277-8.453H.105ZM11.512,0A4.8,4.8,0,0,1,11.3-.609a4.239,4.239,0,0,1-.129-.656,3.127,3.127,0,0,1-.93,1.023A2.33,2.33,0,0,1,8.863.164,2.855,2.855,0,0,1,6.816-.52,2.449,2.449,0,0,1,6.1-2.383a2.229,2.229,0,0,1,.957-1.926,4.78,4.78,0,0,1,2.793-.684h1.281v-.672a1.315,1.315,0,0,0-.32-.945,1.257,1.257,0,0,0-.953-.336A1.239,1.239,0,0,0,9-6.676a.941.941,0,0,0-.3.738H6.5l-.016-.047a2.144,2.144,0,0,1,.934-1.848A4.055,4.055,0,0,1,10-8.609a3.784,3.784,0,0,1,2.465.766,2.667,2.667,0,0,1,.941,2.2v3.492a6.6,6.6,0,0,0,.09,1.117A5.606,5.606,0,0,0,13.785,0ZM9.426-1.523a1.944,1.944,0,0,0,1.063-.3,1.6,1.6,0,0,0,.641-.687V-3.7H9.848a1.519,1.519,0,0,0-1.1.359,1.181,1.181,0,0,0-.371.883.881.881,0,0,0,.277.684A1.1,1.1,0,0,0,9.426-1.523Zm9.227-.062a1.27,1.27,0,0,0,.945-.355,1.291,1.291,0,0,0,.352-.949h2.078l.016.047A2.645,2.645,0,0,1,21.09-.7a3.564,3.564,0,0,1-2.437.863,3.6,3.6,0,0,1-2.9-1.2A4.558,4.558,0,0,1,14.73-4.1v-.234A4.588,4.588,0,0,1,15.75-7.4a3.57,3.57,0,0,1,2.887-1.207,3.486,3.486,0,0,1,2.492.891,2.976,2.976,0,0,1,.914,2.344l-.016.047H19.949a1.687,1.687,0,0,0-.348-1.09,1.168,1.168,0,0,0-.965-.434,1.3,1.3,0,0,0-1.254.707,3.878,3.878,0,0,0-.371,1.809V-4.1a3.863,3.863,0,0,0,.371,1.82A1.32,1.32,0,0,0,18.652-1.586ZM25.77,0H23.488V-8.453H25.77Zm0-10.477H23.488v-1.711H25.77ZM27.293-4.3a4.536,4.536,0,0,1,1.055-3.1A3.676,3.676,0,0,1,31.27-8.609a3.715,3.715,0,0,1,2.938,1.2A4.512,4.512,0,0,1,35.27-4.3v.164a4.519,4.519,0,0,1-1.059,3.105,3.7,3.7,0,0,1-2.926,1.2,3.709,3.709,0,0,1-2.934-1.2,4.519,4.519,0,0,1-1.059-3.105Zm2.273.164a3.677,3.677,0,0,0,.406,1.855,1.4,1.4,0,0,0,1.313.7,1.389,1.389,0,0,0,1.293-.7,3.653,3.653,0,0,0,.41-1.852V-4.3a3.616,3.616,0,0,0-.414-1.836,1.4,1.4,0,0,0-1.3-.711,1.384,1.384,0,0,0-1.293.715,3.648,3.648,0,0,0-.41,1.832Zm2.164-7.922H34.27l.016.047L32.121-9.984H30.176Zm7.031,3.609.1,1.211A3.092,3.092,0,0,1,39.9-8.25a2.7,2.7,0,0,1,1.383-.359,2.513,2.513,0,0,1,2,.824A3.908,3.908,0,0,1,44-5.18V0H41.715V-5.172A2.024,2.024,0,0,0,41.4-6.457a1.166,1.166,0,0,0-.949-.379,1.992,1.992,0,0,0-.895.191,1.746,1.746,0,0,0-.637.527V0H36.637V-8.453Z" transform="translate(1007.081 3355)" fill="#12263f"/>
    <path id="Trazado_886011" data-name="Trazado 886011" d="M3,0H164a3,3,0,0,1,3,3V42a3,3,0,0,1-3,3H3a3,3,0,0,1-3-3V3A3,3,0,0,1,3,0Z" transform="translate(632 3326)" fill="#3a1d71"/>
    <path id="Trazado_886012" data-name="Trazado 886012" d="M3,0H164a3,3,0,0,1,3,3V49a3,3,0,0,1-3,3H3a3,3,0,0,1-3-3V3A3,3,0,0,1,3,0Z" transform="translate(1189.081 3257)" fill="#aec4fa"/>
    <path id="Trazado_886013" data-name="Trazado 886013" d="M3,0H164a3,3,0,0,1,3,3V49a3,3,0,0,1-3,3H3a3,3,0,0,1-3-3V3A3,3,0,0,1,3,0Z" transform="translate(1189.081 3387)" fill="#aec4fa"/>
    <path id="Trazado_886014" data-name="Trazado 886014" d="M-27.641-4.562V0H-29.18V-11.375h4.352A4.009,4.009,0,0,1-22-10.437a3.207,3.207,0,0,1,1.012,2.469A3.2,3.2,0,0,1-22-5.492a4.031,4.031,0,0,1-2.832.93Zm0-1.2h2.813A2.231,2.231,0,0,0-23.1-6.387a2.227,2.227,0,0,0,.57-1.566,2.26,2.26,0,0,0-.574-1.578,2.21,2.21,0,0,0-1.723-.633h-2.812Zm12.422-1.328-.789-.047a1.762,1.762,0,0,0-1.027.289,1.854,1.854,0,0,0-.645.813V0h-1.539V-8.453h1.375l.148,1.234a2.934,2.934,0,0,1,.887-1.023,2.073,2.073,0,0,1,1.215-.367,1.9,1.9,0,0,1,.328.027,2.175,2.175,0,0,1,.258.059ZM-11.953,0h-1.539V-8.453h1.539Zm0-10.617h-1.539v-1.57h1.539Zm3.742,2.164L-8.1-7.344a2.871,2.871,0,0,1,1.051-.934,3.158,3.158,0,0,1,1.48-.332,2.615,2.615,0,0,1,1.449.391,2.363,2.363,0,0,1,.91,1.172A3.162,3.162,0,0,1-2.152-8.191,2.769,2.769,0,0,1-.625-8.609a2.531,2.531,0,0,1,2.039.887,4.051,4.051,0,0,1,.75,2.668V0H.625V-5.07A2.81,2.81,0,0,0,.2-6.84a1.567,1.567,0,0,0-1.281-.52,1.631,1.631,0,0,0-1.277.547A2.381,2.381,0,0,0-2.937-5.43V0H-4.484V-5.07a2.772,2.772,0,0,0-.441-1.738A1.532,1.532,0,0,0-6.2-7.359a2.115,2.115,0,0,0-1.156.289,1.867,1.867,0,0,0-.7.813V0H-9.586V-8.453ZM9.594,0q-.078-.383-.121-.676a4.96,4.96,0,0,1-.051-.59A3.589,3.589,0,0,1,8.3-.246a2.867,2.867,0,0,1-1.488.41A2.763,2.763,0,0,1,4.8-.512a2.486,2.486,0,0,1-.691-1.863A2.183,2.183,0,0,1,5.09-4.27a4.579,4.579,0,0,1,2.66-.684H9.422v-.836a1.551,1.551,0,0,0-.453-1.176A1.779,1.779,0,0,0,7.688-7.4a1.859,1.859,0,0,0-1.211.375,1.125,1.125,0,0,0-.461.9l-1.461.016-.016-.047A2.023,2.023,0,0,1,5.4-7.844a3.578,3.578,0,0,1,2.371-.766,3.49,3.49,0,0,1,2.313.73,2.588,2.588,0,0,1,.875,2.105V-1.7a7.923,7.923,0,0,0,.047.875A4.5,4.5,0,0,0,11.18,0ZM7.039-1.125a2.739,2.739,0,0,0,1.508-.43,2.042,2.042,0,0,0,.875-.984V-3.914H7.7a2.24,2.24,0,0,0-1.488.469,1.4,1.4,0,0,0-.559,1.1A1.159,1.159,0,0,0,6-1.453,1.472,1.472,0,0,0,7.039-1.125ZM17.2-7.094l-.789-.047a1.762,1.762,0,0,0-1.027.289,1.855,1.855,0,0,0-.645.813V0H13.2V-8.453H14.57l.148,1.234a2.934,2.934,0,0,1,.887-1.023,2.073,2.073,0,0,1,1.215-.367,1.9,1.9,0,0,1,.328.027,2.175,2.175,0,0,1,.258.059ZM20.461,0H18.922V-8.453h1.539Zm0-10.617H18.922v-1.57h1.539ZM28.023,0q-.078-.383-.121-.676a4.96,4.96,0,0,1-.051-.59A3.589,3.589,0,0,1,26.73-.246a2.867,2.867,0,0,1-1.488.41A2.763,2.763,0,0,1,23.23-.512a2.486,2.486,0,0,1-.691-1.863,2.183,2.183,0,0,1,.98-1.895,4.579,4.579,0,0,1,2.66-.684h1.672v-.836A1.551,1.551,0,0,0,27.4-6.965,1.779,1.779,0,0,0,26.117-7.4a1.859,1.859,0,0,0-1.211.375,1.125,1.125,0,0,0-.461.9l-1.461.016-.016-.047a2.023,2.023,0,0,1,.863-1.687A3.578,3.578,0,0,1,26.2-8.609a3.49,3.49,0,0,1,2.313.73,2.588,2.588,0,0,1,.875,2.105V-1.7a7.923,7.923,0,0,0,.047.875A4.5,4.5,0,0,0,29.609,0ZM25.469-1.125a2.739,2.739,0,0,0,1.508-.43,2.042,2.042,0,0,0,.875-.984V-3.914H26.125a2.24,2.24,0,0,0-1.488.469,1.4,1.4,0,0,0-.559,1.1,1.159,1.159,0,0,0,.352.891A1.472,1.472,0,0,0,25.469-1.125Z" transform="translate(716 3355)" fill="#fff"/>
    <path id="Trazado_886015" data-name="Trazado 886015" d="M-24.3,0V-11.375h3.578A4.812,4.812,0,0,1-17.141-10a4.824,4.824,0,0,1,1.355,3.543v1.555a4.808,4.808,0,0,1-1.355,3.543A4.827,4.827,0,0,1-20.723,0Zm1.539-10.164V-1.2h2.039a3.137,3.137,0,0,0,2.488-1.039,3.9,3.9,0,0,0,.91-2.664v-1.57a3.873,3.873,0,0,0-.91-2.648,3.137,3.137,0,0,0-2.488-1.039ZM-12.012,0h-1.539V-8.453h1.539Zm0-10.617h-1.539v-1.57h1.539Zm6.367,3.523-.789-.047a1.762,1.762,0,0,0-1.027.289,1.854,1.854,0,0,0-.645.813V0H-9.645V-8.453H-8.27l.148,1.234a2.934,2.934,0,0,1,.887-1.023A2.073,2.073,0,0,1-6.02-8.609a1.9,1.9,0,0,1,.328.027,2.175,2.175,0,0,1,.258.059ZM-.691.164A3.576,3.576,0,0,1-3.531-1a4.48,4.48,0,0,1-1.02-3.062v-.344A4.386,4.386,0,0,1-3.5-7.418,3.3,3.3,0,0,1-.934-8.609,3.067,3.067,0,0,1,1.609-7.555a4.345,4.345,0,0,1,.848,2.8v.813H-2.949l-.023.039A3.494,3.494,0,0,0-2.41-1.832a1.965,1.965,0,0,0,1.719.793A3.872,3.872,0,0,0,.68-1.262a3.061,3.061,0,0,0,1.012-.613l.6,1a3.7,3.7,0,0,1-1.2.738A4.762,4.762,0,0,1-.691.164ZM-.934-7.4a1.673,1.673,0,0,0-1.332.621,2.938,2.938,0,0,0-.645,1.59l.016.039H.918v-.125A2.462,2.462,0,0,0,.465-6.8,1.638,1.638,0,0,0-.934-7.4ZM7.543-1.039a1.81,1.81,0,0,0,1.242-.473,1.494,1.494,0,0,0,.531-1.16h1.391l.023.047A2.428,2.428,0,0,1,9.793-.684a3.313,3.313,0,0,1-2.25.848,3.319,3.319,0,0,1-2.75-1.211,4.674,4.674,0,0,1-.969-3.016v-.328a4.654,4.654,0,0,1,.973-3A3.317,3.317,0,0,1,7.543-8.609a3.189,3.189,0,0,1,2.316.875,2.775,2.775,0,0,1,.871,2.148l-.016.047h-1.4a1.865,1.865,0,0,0-.5-1.316A1.658,1.658,0,0,0,7.543-7.4a1.777,1.777,0,0,0-1.652.879,4.114,4.114,0,0,0-.52,2.129v.328a4.192,4.192,0,0,0,.512,2.148A1.776,1.776,0,0,0,7.543-1.039ZM14.7-10.492v2.039h1.6v1.141H14.7V-2.18a1.149,1.149,0,0,0,.246.836A.89.89,0,0,0,15.6-1.1a1.429,1.429,0,0,0,.3-.035,2.2,2.2,0,0,0,.273-.074l.211,1.055a1.36,1.36,0,0,1-.508.23,2.562,2.562,0,0,1-.664.09A1.993,1.993,0,0,1,13.715-.4,2.46,2.46,0,0,1,13.16-2.18V-7.312H11.816V-8.453H13.16v-2.039ZM23.145,0q-.078-.383-.121-.676a4.96,4.96,0,0,1-.051-.59,3.589,3.589,0,0,1-1.121,1.02,2.867,2.867,0,0,1-1.488.41,2.763,2.763,0,0,1-2.012-.676,2.486,2.486,0,0,1-.691-1.863,2.183,2.183,0,0,1,.98-1.895,4.579,4.579,0,0,1,2.66-.684h1.672v-.836a1.551,1.551,0,0,0-.453-1.176A1.779,1.779,0,0,0,21.238-7.4a1.859,1.859,0,0,0-1.211.375,1.125,1.125,0,0,0-.461.9l-1.461.016-.016-.047a2.023,2.023,0,0,1,.863-1.687,3.578,3.578,0,0,1,2.371-.766,3.49,3.49,0,0,1,2.313.73,2.588,2.588,0,0,1,.875,2.105V-1.7a7.923,7.923,0,0,0,.047.875A4.5,4.5,0,0,0,24.73,0ZM20.59-1.125a2.739,2.739,0,0,0,1.508-.43,2.042,2.042,0,0,0,.875-.984V-3.914H21.246a2.24,2.24,0,0,0-1.488.469,1.4,1.4,0,0,0-.559,1.1,1.159,1.159,0,0,0,.352.891A1.472,1.472,0,0,0,20.59-1.125Z" transform="translate(1272.581 3290)" fill="#12263f"/>
    <path id="Trazado_886016" data-name="Trazado 886016" d="M-28.535,0h-1.547V-11.375h1.547Zm3.984-8.453.109,1.258a3.069,3.069,0,0,1,1.059-1.043,2.824,2.824,0,0,1,1.449-.371,2.759,2.759,0,0,1,2.117.8,3.515,3.515,0,0,1,.75,2.473V0h-1.539V-5.3a2.287,2.287,0,0,0-.441-1.586,1.768,1.768,0,0,0-1.348-.469,2.386,2.386,0,0,0-1.207.285,2.072,2.072,0,0,0-.785.8V0h-1.539V-8.453Zm7.367,4.383a5.641,5.641,0,0,1,.871-3.289,2.807,2.807,0,0,1,2.441-1.25,3.027,3.027,0,0,1,1.316.273,2.7,2.7,0,0,1,.98.8v-4.648h1.539V0h-1.18l-.234-1.07a2.743,2.743,0,0,1-1.023.922,3.058,3.058,0,0,1-1.414.313A2.9,2.9,0,0,1-16.309-.957a4.659,4.659,0,0,1-.875-2.949Zm1.539.164a3.588,3.588,0,0,0,.523,2.051,1.828,1.828,0,0,0,1.625.77A2.039,2.039,0,0,0-12.34-1.4a2.334,2.334,0,0,0,.766-.875V-6.219a2.37,2.37,0,0,0-.77-.832,2.033,2.033,0,0,0-1.137-.309,1.759,1.759,0,0,0-1.637.914,4.718,4.718,0,0,0-.527,2.375ZM-6.074,0H-7.613V-8.453h1.539Zm0-10.617H-7.613v-1.57h1.539ZM.293-7.094-.5-7.141a1.762,1.762,0,0,0-1.027.289,1.854,1.854,0,0,0-.645.813V0H-3.707V-8.453h1.375l.148,1.234A2.934,2.934,0,0,1-1.3-8.242,2.073,2.073,0,0,1-.082-8.609a1.9,1.9,0,0,1,.328.027A2.175,2.175,0,0,1,.5-8.523ZM5.246.164A3.576,3.576,0,0,1,2.406-1a4.48,4.48,0,0,1-1.02-3.062v-.344A4.386,4.386,0,0,1,2.438-7.418,3.3,3.3,0,0,1,5-8.609,3.067,3.067,0,0,1,7.547-7.555a4.345,4.345,0,0,1,.848,2.8v.813H2.988L2.965-3.9a3.494,3.494,0,0,0,.563,2.066,1.965,1.965,0,0,0,1.719.793,3.872,3.872,0,0,0,1.371-.223,3.061,3.061,0,0,0,1.012-.613l.6,1a3.7,3.7,0,0,1-1.2.738A4.762,4.762,0,0,1,5.246.164ZM5-7.4a1.673,1.673,0,0,0-1.332.621,2.938,2.938,0,0,0-.645,1.59l.016.039H6.855v-.125A2.462,2.462,0,0,0,6.4-6.8,1.638,1.638,0,0,0,5-7.4ZM13.48-1.039a1.81,1.81,0,0,0,1.242-.473,1.494,1.494,0,0,0,.531-1.16h1.391l.023.047A2.428,2.428,0,0,1,15.73-.684a3.313,3.313,0,0,1-2.25.848,3.319,3.319,0,0,1-2.75-1.211,4.674,4.674,0,0,1-.969-3.016v-.328a4.654,4.654,0,0,1,.973-3A3.317,3.317,0,0,1,13.48-8.609a3.189,3.189,0,0,1,2.316.875,2.775,2.775,0,0,1,.871,2.148l-.016.047h-1.4a1.865,1.865,0,0,0-.5-1.316A1.658,1.658,0,0,0,13.48-7.4a1.777,1.777,0,0,0-1.652.879,4.114,4.114,0,0,0-.52,2.129v.328a4.192,4.192,0,0,0,.512,2.148A1.776,1.776,0,0,0,13.48-1.039Zm7.156-9.453v2.039h1.6v1.141h-1.6V-2.18a1.149,1.149,0,0,0,.246.836.89.89,0,0,0,.652.242,1.429,1.429,0,0,0,.3-.035,2.2,2.2,0,0,0,.273-.074l.211,1.055a1.36,1.36,0,0,1-.508.23,2.562,2.562,0,0,1-.664.09A1.993,1.993,0,0,1,19.652-.4,2.46,2.46,0,0,1,19.1-2.18V-7.312H17.754V-8.453H19.1v-2.039ZM29.082,0Q29-.383,28.961-.676a4.96,4.96,0,0,1-.051-.59,3.589,3.589,0,0,1-1.121,1.02A2.867,2.867,0,0,1,26.3.164a2.763,2.763,0,0,1-2.012-.676A2.486,2.486,0,0,1,23.6-2.375a2.183,2.183,0,0,1,.98-1.895,4.579,4.579,0,0,1,2.66-.684H28.91v-.836a1.551,1.551,0,0,0-.453-1.176A1.779,1.779,0,0,0,27.176-7.4a1.859,1.859,0,0,0-1.211.375,1.125,1.125,0,0,0-.461.9l-1.461.016-.016-.047a2.023,2.023,0,0,1,.863-1.687,3.578,3.578,0,0,1,2.371-.766,3.49,3.49,0,0,1,2.313.73,2.588,2.588,0,0,1,.875,2.105V-1.7a7.923,7.923,0,0,0,.047.875A4.5,4.5,0,0,0,30.668,0ZM26.527-1.125a2.739,2.739,0,0,0,1.508-.43,2.042,2.042,0,0,0,.875-.984V-3.914H27.184a2.24,2.24,0,0,0-1.488.469,1.4,1.4,0,0,0-.559,1.1,1.159,1.159,0,0,0,.352.891A1.472,1.472,0,0,0,26.527-1.125Z" transform="translate(1273.081 3420)" fill="#12263f"/>
    <path id="Trazado_886017" data-name="Trazado 886017" d="M-18.82-10.508v2.055H-17.3v1.406H-18.82v4.672a1.019,1.019,0,0,0,.227.746.821.821,0,0,0,.6.223,1.679,1.679,0,0,0,.3-.027,1.852,1.852,0,0,0,.281-.074l.2,1.391a2.181,2.181,0,0,1-.574.207,3.161,3.161,0,0,1-.691.074,2.19,2.19,0,0,1-1.645-.613,2.674,2.674,0,0,1-.6-1.926V-7.047H-22V-8.453h1.289v-2.055ZM-13.75,0h-1.9V-8.453h1.9Zm0-10.523h-1.9v-1.664h1.9ZM-8.039.164A3.681,3.681,0,0,1-10.934-1a4.374,4.374,0,0,1-1.043-3.027v-.312A4.522,4.522,0,0,1-10.934-7.41a3.37,3.37,0,0,1,2.691-1.2A3.163,3.163,0,0,1-5.664-7.559,4.249,4.249,0,0,1-4.789-4.75v1.023h-5.227l-.016.039A2.77,2.77,0,0,0-9.484-2a1.866,1.866,0,0,0,1.555.648,4.277,4.277,0,0,0,1.34-.187,3.825,3.825,0,0,0,1.051-.539l.617,1.242A4.023,4.023,0,0,1-6.2-.125,5.37,5.37,0,0,1-8.039.164Zm-.2-7.25a1.467,1.467,0,0,0-1.187.535,2.652,2.652,0,0,0-.555,1.395l.016.039h3.3v-.148a2.134,2.134,0,0,0-.379-1.316A1.4,1.4,0,0,0-8.242-7.086Zm6.711-1.367.109,1.219A3.023,3.023,0,0,1-.379-8.246a2.783,2.783,0,0,1,1.418-.363A2.64,2.64,0,0,1,3.1-7.8a3.692,3.692,0,0,1,.738,2.539V0h-1.9V-5.242a2.042,2.042,0,0,0-.383-1.4A1.5,1.5,0,0,0,.4-7.055a2.267,2.267,0,0,0-1.055.23,1.847,1.847,0,0,0-.711.637V0h-1.9V-8.453ZM9.4.164A3.681,3.681,0,0,1,6.5-1,4.374,4.374,0,0,1,5.461-4.031v-.312A4.522,4.522,0,0,1,6.5-7.41,3.37,3.37,0,0,1,9.2-8.609a3.163,3.163,0,0,1,2.578,1.051,4.249,4.249,0,0,1,.875,2.809v1.023H7.422l-.016.039A2.77,2.77,0,0,0,7.953-2a1.866,1.866,0,0,0,1.555.648,4.277,4.277,0,0,0,1.34-.187A3.825,3.825,0,0,0,11.9-2.078l.617,1.242a4.023,4.023,0,0,1-1.281.711A5.37,5.37,0,0,1,9.4.164Zm-.2-7.25a1.467,1.467,0,0,0-1.187.535,2.652,2.652,0,0,0-.555,1.395l.016.039h3.3v-.148a2.134,2.134,0,0,0-.379-1.316A1.4,1.4,0,0,0,9.2-7.086Zm6.711-1.367.109,1.219a3.023,3.023,0,0,1,1.043-1.012,2.783,2.783,0,0,1,1.418-.363,2.64,2.64,0,0,1,2.059.813,3.692,3.692,0,0,1,.738,2.539V0h-1.9V-5.242a2.042,2.042,0,0,0-.383-1.4,1.5,1.5,0,0,0-1.156-.414,2.267,2.267,0,0,0-1.055.23,1.847,1.847,0,0,0-.711.637V0h-1.9V-8.453Z" transform="translate(441 3322)" fill="#12263f"/>
    <path id="Trazado_886018" data-name="Trazado 886018" d="M-3.762.164A3.681,3.681,0,0,1-6.656-1,4.374,4.374,0,0,1-7.7-4.031v-.312A4.522,4.522,0,0,1-6.656-7.41a3.37,3.37,0,0,1,2.691-1.2A3.163,3.163,0,0,1-1.387-7.559,4.249,4.249,0,0,1-.512-4.75v1.023H-5.738l-.016.039A2.77,2.77,0,0,0-5.207-2a1.866,1.866,0,0,0,1.555.648,4.277,4.277,0,0,0,1.34-.187,3.825,3.825,0,0,0,1.051-.539L-.645-.836a4.023,4.023,0,0,1-1.281.711A5.37,5.37,0,0,1-3.762.164Zm-.2-7.25a1.467,1.467,0,0,0-1.187.535,2.652,2.652,0,0,0-.555,1.395l.016.039h3.3v-.148a2.134,2.134,0,0,0-.379-1.316A1.4,1.4,0,0,0-3.965-7.086ZM5.777-2.312a.875.875,0,0,0-.371-.723A3.838,3.838,0,0,0,4-3.547a5.7,5.7,0,0,1-2.281-.9A1.893,1.893,0,0,1,.934-6.039a2.3,2.3,0,0,1,.9-1.816A3.56,3.56,0,0,1,4.2-8.609a3.671,3.671,0,0,1,2.441.777,2.252,2.252,0,0,1,.887,1.871l-.016.047H5.691a1.185,1.185,0,0,0-.406-.895A1.528,1.528,0,0,0,4.2-7.187a1.552,1.552,0,0,0-1.047.313.977.977,0,0,0-.359.766.823.823,0,0,0,.336.688,3.682,3.682,0,0,0,1.383.461,5.727,5.727,0,0,1,2.344.918,1.939,1.939,0,0,1,.789,1.621A2.246,2.246,0,0,1,6.7-.559a3.965,3.965,0,0,1-2.48.723,3.786,3.786,0,0,1-2.6-.844A2.383,2.383,0,0,1,.715-2.617L.73-2.664H2.5a1.266,1.266,0,0,0,.531,1.07,2.135,2.135,0,0,0,1.219.336,1.909,1.909,0,0,0,1.129-.289A.9.9,0,0,0,5.777-2.312Z" transform="translate(823 3594.205)" fill="#12263f"/>
    <path id="Trazado_886019" data-name="Trazado 886019" d="M-34.062-10.508v2.055h1.516v1.406h-1.516v4.672a1.019,1.019,0,0,0,.227.746.821.821,0,0,0,.6.223,1.678,1.678,0,0,0,.3-.027,1.852,1.852,0,0,0,.281-.074l.2,1.391A2.181,2.181,0,0,1-33.02.09a3.161,3.161,0,0,1-.691.074,2.19,2.19,0,0,1-1.645-.613,2.674,2.674,0,0,1-.6-1.926V-7.047h-1.289V-8.453h1.289v-2.055ZM-28.992,0h-1.9V-8.453h1.9Zm0-10.523h-1.9v-1.664h1.9ZM-23.281.164A3.681,3.681,0,0,1-26.176-1a4.374,4.374,0,0,1-1.043-3.027v-.312A4.522,4.522,0,0,1-26.176-7.41a3.37,3.37,0,0,1,2.691-1.2,3.163,3.163,0,0,1,2.578,1.051,4.249,4.249,0,0,1,.875,2.809v1.023h-5.227l-.016.039A2.77,2.77,0,0,0-24.727-2a1.866,1.866,0,0,0,1.555.648,4.277,4.277,0,0,0,1.34-.187,3.825,3.825,0,0,0,1.051-.539l.617,1.242a4.023,4.023,0,0,1-1.281.711A5.37,5.37,0,0,1-23.281.164Zm-.2-7.25a1.467,1.467,0,0,0-1.187.535,2.652,2.652,0,0,0-.555,1.395l.016.039h3.3v-.148a2.134,2.134,0,0,0-.379-1.316A1.4,1.4,0,0,0-23.484-7.086Zm6.711-1.367.109,1.219a3.023,3.023,0,0,1,1.043-1.012A2.783,2.783,0,0,1-14.2-8.609a2.64,2.64,0,0,1,2.059.813,3.692,3.692,0,0,1,.738,2.539V0h-1.9V-5.242a2.042,2.042,0,0,0-.383-1.4,1.5,1.5,0,0,0-1.156-.414,2.267,2.267,0,0,0-1.055.23,1.847,1.847,0,0,0-.711.637V0h-1.9V-8.453ZM-5.844.164A3.681,3.681,0,0,1-8.738-1,4.374,4.374,0,0,1-9.781-4.031v-.312A4.522,4.522,0,0,1-8.738-7.41a3.37,3.37,0,0,1,2.691-1.2A3.163,3.163,0,0,1-3.469-7.559,4.249,4.249,0,0,1-2.594-4.75v1.023H-7.82l-.016.039A2.77,2.77,0,0,0-7.289-2a1.866,1.866,0,0,0,1.555.648,4.277,4.277,0,0,0,1.34-.187,3.825,3.825,0,0,0,1.051-.539l.617,1.242a4.023,4.023,0,0,1-1.281.711A5.37,5.37,0,0,1-5.844.164Zm-.2-7.25a1.467,1.467,0,0,0-1.187.535,2.652,2.652,0,0,0-.555,1.395l.016.039h3.3v-.148a2.134,2.134,0,0,0-.379-1.316A1.4,1.4,0,0,0-6.047-7.086ZM.664-8.453.773-7.234A3.023,3.023,0,0,1,1.816-8.246a2.783,2.783,0,0,1,1.418-.363A2.64,2.64,0,0,1,5.293-7.8a3.692,3.692,0,0,1,.738,2.539V0h-1.9V-5.242a2.042,2.042,0,0,0-.383-1.4,1.5,1.5,0,0,0-1.156-.414,2.267,2.267,0,0,0-1.055.23,1.847,1.847,0,0,0-.711.637V0h-1.9V-8.453ZM11.641-4.109a5.574,5.574,0,0,1,.867-3.262,2.8,2.8,0,0,1,2.438-1.238,2.68,2.68,0,0,1,1.3.3,2.789,2.789,0,0,1,.961.875l.219-1.023h1.539V3.25h-1.9V-.8a2.552,2.552,0,0,1-.922.719A2.889,2.889,0,0,1,14.93.164,2.876,2.876,0,0,1,12.508-.969a4.766,4.766,0,0,1-.867-2.977Zm1.9.164a3.486,3.486,0,0,0,.449,1.883,1.562,1.562,0,0,0,1.426.711,1.944,1.944,0,0,0,.98-.23,1.865,1.865,0,0,0,.668-.668V-6.187a1.961,1.961,0,0,0-.672-.66,1.866,1.866,0,0,0-.961-.238A1.526,1.526,0,0,0,14-6.254a4.4,4.4,0,0,0-.461,2.145Zm12.789,2.7a2.836,2.836,0,0,1-1,1.047,2.707,2.707,0,0,1-1.418.367A2.647,2.647,0,0,1,21.781-.73a4.206,4.206,0,0,1-.766-2.777V-8.453h1.891v4.961a2.825,2.825,0,0,0,.352,1.66,1.3,1.3,0,0,0,1.094.449A2.442,2.442,0,0,0,25.5-1.629a1.787,1.787,0,0,0,.73-.715V-8.453h1.9V0H26.5ZM33.7.164A3.681,3.681,0,0,1,30.809-1a4.374,4.374,0,0,1-1.043-3.027v-.312A4.522,4.522,0,0,1,30.809-7.41a3.37,3.37,0,0,1,2.691-1.2,3.163,3.163,0,0,1,2.578,1.051,4.249,4.249,0,0,1,.875,2.809v1.023H31.727l-.016.039A2.77,2.77,0,0,0,32.258-2a1.866,1.866,0,0,0,1.555.648,4.277,4.277,0,0,0,1.34-.187A3.825,3.825,0,0,0,36.2-2.078L36.82-.836a4.023,4.023,0,0,1-1.281.711A5.37,5.37,0,0,1,33.7.164Zm-.2-7.25a1.467,1.467,0,0,0-1.187.535,2.652,2.652,0,0,0-.555,1.395l.016.039h3.3v-.148A2.134,2.134,0,0,0,34.7-6.582,1.4,1.4,0,0,0,33.5-7.086Z" transform="translate(769 3544)" fill="#12263f"/>
    <path id="Trazado_878073" data-name="Trazado 878073" d="M-7673.927-8660h71.064" transform="translate(8472.927 12008)" fill="none" stroke="#3a1d71" stroke-width="1.5"/>
    <path id="Trazado_879023" data-name="Trazado 879023" d="M-7894.5-8342v109.025" transform="translate(8288 11603)" fill="none" stroke="#3a1d71" stroke-width="2"/>
    <path id="Trazado_879038" data-name="Trazado 879038" d="M-7894.5-8342v74.958" transform="translate(8610.5 11831.463)" fill="none" stroke="#3a1d71" stroke-width="2"/>
    <path id="Trazado_878077" data-name="Trazado 878077" d="M6.184,1.764,0,0,6.17,9.567l.015-.019.015.019L12.369,0Z" transform="translate(387.315 3365.242)" fill="#3a1d71"/>
    <path id="Trazado_879037" data-name="Trazado 879037" d="M6.184,1.764,0,0,6.169,9.567l.015-.019.015.019L12.369,0Z" transform="translate(709.815 3559.638)" fill="#3a1d71"/>
    <path id="Trazado_879024" data-name="Trazado 879024" d="M6.184,1.764,0,0,6.17,9.567l.015-.019.015.019L12.369,0Z" transform="translate(865.28 3354.185) rotate(-90)" fill="#3a1d71"/>
    <path id="Trazado_879027" data-name="Trazado 879027" d="M6.184,1.764,0,0,6.17,9.567l.015-.019.015.019L12.369,0Z" transform="translate(615.199 3353.957) rotate(-90)" fill="#3a1d71"/>
    <path id="Trazado_879029" data-name="Trazado 879029" d="M6.184,1.764,0,0,6.17,9.567l.015-.019.015.019L12.369,0Z" transform="translate(1172.28 3288.957) rotate(-90)" fill="#3a1d71"/>
    <path id="Trazado_879028" data-name="Trazado 879028" d="M6.184,1.764,0,0,6.17,9.567l.015-.019.015.019L12.369,0Z" transform="translate(615.199 3484.412) rotate(-90)" fill="#3a1d71"/>
    <path id="Trazado_879030" data-name="Trazado 879030" d="M6.184,1.764,0,0,6.17,9.567l.015-.019.015.019L12.369,0Z" transform="translate(1172.28 3419.412) rotate(-90)" fill="#3a1d71"/>
    <path id="Trazado_886020" data-name="Trazado 886020" d="M3,0H53a3,3,0,0,1,3,3V49a3,3,0,0,1-3,3H3a3,3,0,0,1-3-3V3A3,3,0,0,1,3,0Z" transform="translate(256 3387)" fill="#3a1d71"/>
    <g id="chart_11787052" transform="translate(264.879 3394.309)">
      <path id="Trazado_878170" data-name="Trazado 878170" d="M4.36,8.577V6.411A3.561,3.561,0,0,1,7.913,2.85h18.1a3.245,3.245,0,0,1,1.1.178,7.463,7.463,0,0,0-5.824,7.3,6.748,6.748,0,0,0,.105,1.225v.138a7.463,7.463,0,0,0,7.3,6.1,6.7,6.7,0,0,0,.811-.049V33.6a3.553,3.553,0,0,1-3.553,3.553H7.913A3.553,3.553,0,0,1,4.36,33.6V16.566" transform="translate(-0.189 -0.198)" fill="#f0f0f0"/>
      <path id="Trazado_878171" data-name="Trazado 878171" d="M25.829,37.776H7.724A4.372,4.372,0,0,1,3.36,33.412V16.378a.811.811,0,1,1,1.622,0V33.412a2.75,2.75,0,0,0,2.742,2.742h18.1a2.75,2.75,0,0,0,2.742-2.742V18.4a8.274,8.274,0,0,1-8.111-6.765v-.154a7.819,7.819,0,0,1-.114-1.355,8.306,8.306,0,0,1,3.366-6.651H7.724a2.75,2.75,0,0,0-2.742,2.75V8.388a.811.811,0,0,1-1.622,0V6.222A4.364,4.364,0,0,1,7.724,1.85h18.1a4.186,4.186,0,0,1,1.371.219.807.807,0,0,1-.1,1.549,6.7,6.7,0,0,0-5.191,6.489A6.278,6.278,0,0,0,22,11.178l-.771.292.811-.154a6.651,6.651,0,0,0,6.546,5.443,5.19,5.19,0,0,0,.714-.049.821.821,0,0,1,.908.811v15.89A4.372,4.372,0,0,1,25.829,37.776Z" transform="translate(0 -0.009)"/>
      <path id="Trazado_878172" data-name="Trazado 878172" d="M4.171,15.827a.811.811,0,0,1-.811-.811V13.491a.811.811,0,1,1,1.622,0v1.525A.811.811,0,0,1,4.171,15.827Z" transform="translate(0 -2.055)"/>
      <path id="Trazado_878173" data-name="Trazado 878173" d="M25.408,37.15l1,5.6L33.52,32.38l-5.589,1.087a3.18,3.18,0,0,0-2.523,3.683Z" transform="translate(-4.154 -5.775)" fill="#64c8f0"/>
      <path id="Trazado_878174" data-name="Trazado 878174" d="M26.217,43.374h-.17a.811.811,0,0,1-.625-.649L24.416,37.12A4,4,0,0,1,27.587,32.5l5.589-1.087a.814.814,0,0,1,.811,1.257l-7.1,10.35A.811.811,0,0,1,26.217,43.374Zm-.2-6.554.657,3.658,4.867-7.106-3.642.706a2.377,2.377,0,0,0-1.882,2.742Z" transform="translate(-3.965 -5.591)"/>
      <rect id="Rectángulo_402924" data-name="Rectángulo 402924" width="3.277" height="14.901" rx="1.05" transform="translate(8.916 7.227)" fill="#fa6450"/>
      <path id="Trazado_878175" data-name="Trazado 878175" d="M12.454,24.012H10.872A1.622,1.622,0,0,1,9.25,22.39V9.152A1.622,1.622,0,0,1,10.872,7.53h1.582a1.663,1.663,0,0,1,1.663,1.622V22.358a1.622,1.622,0,0,1-1.663,1.655ZM10.872,9.12V22.358h1.663V9.152Z" transform="translate(-1.112 -1.082)"/>
      <rect id="Rectángulo_402925" data-name="Rectángulo 402925" width="3.277" height="12.021" rx="1.05" transform="translate(14.643 10.106)" fill="#3cc8b4"/>
      <path id="Trazado_878176" data-name="Trazado 878176" d="M19.515,24.683H17.933A1.622,1.622,0,0,1,16.27,23.06V12.7a1.622,1.622,0,0,1,1.663-1.622h1.582A1.622,1.622,0,0,1,21.137,12.7V23.028a1.622,1.622,0,0,1-1.622,1.655ZM17.933,12.637,17.892,23h1.622V12.7Z" transform="translate(-2.438 -1.752)"/>
      <rect id="Rectángulo_402926" data-name="Rectángulo 402926" width="3.277" height="4.023" rx="1.05" transform="translate(20.37 18.104)" fill="#fab400"/>
      <path id="Trazado_878177" data-name="Trazado 878177" d="M26.575,26.545H24.993a1.622,1.622,0,0,1-1.663-1.622v-2.36a1.622,1.622,0,0,1,1.663-1.622h1.582a1.622,1.622,0,0,1,1.663,1.622V24.89a1.622,1.622,0,0,1-1.663,1.655Zm-1.582-4.056-.041,2.36h1.663V22.562Z" transform="translate(-3.771 -3.615)"/>
      <path id="Trazado_878178" data-name="Trazado 878178" d="M14.625,32.072H8.411a.811.811,0,0,1,0-1.622h6.213a.811.811,0,0,1,0,1.622Z" transform="translate(-0.801 -5.411)"/>
      <path id="Trazado_878179" data-name="Trazado 878179" d="M20.914,32.072H19.421a.811.811,0,0,1,0-1.622h1.493a.811.811,0,1,1,0,1.622Z" transform="translate(-2.88 -5.411)"/>
      <path id="Trazado_878180" data-name="Trazado 878180" d="M14.625,39.712H8.411a.811.811,0,1,1,0-1.622h6.213a.811.811,0,1,1,0,1.622Z" transform="translate(-0.801 -6.854)"/>
      <path id="Trazado_878181" data-name="Trazado 878181" d="M20.914,39.712H19.421a.811.811,0,0,1,0-1.622h1.493a.811.811,0,1,1,0,1.622Z" transform="translate(-2.88 -6.854)"/>
      <path id="Trazado_878182" data-name="Trazado 878182" d="M19.373,35.722H12.681a.811.811,0,0,1,0-1.622h6.692a.811.811,0,1,1,0,1.622Z" transform="translate(-1.607 -6.1)"/>
      <path id="Trazado_878183" data-name="Trazado 878183" d="M9.252,35.672H8.441a.811.811,0,1,1,0-1.622h.811a.811.811,0,1,1,0,1.622Z" transform="translate(-0.806 -6.091)"/>
      <path id="Trazado_878184" data-name="Trazado 878184" d="M40.174,10.3a6.814,6.814,0,0,1-.13,1.363,7.236,7.236,0,0,1-.495,1.622,7.454,7.454,0,0,1-3.139,3.464,7.3,7.3,0,0,1-2.9.941,6.7,6.7,0,0,1-.811.049,7.463,7.463,0,0,1-7.3-6.1V11.5a6.748,6.748,0,0,1-.105-1.225,7.463,7.463,0,0,1,5.824-7.3,7.3,7.3,0,0,1,1.622-.187A7.463,7.463,0,0,1,40.174,10.3Z" transform="translate(-4.142 -0.187)" fill="#64c8f0"/>
      <path id="Trazado_878185" data-name="Trazado 878185" d="M32.525,18.388a8.274,8.274,0,0,1-8.111-6.765v-.154a7.819,7.819,0,0,1-.114-1.355A8.33,8.33,0,0,1,30.789,2a8.111,8.111,0,0,1,1.825-.2,8.29,8.29,0,0,1,8.274,8.282,7.519,7.519,0,0,1-.146,1.517,7.552,7.552,0,0,1-.552,1.776,8.306,8.306,0,0,1-3.455,3.877,8.622,8.622,0,0,1-4.121,1.1Zm-6.546-7.065a6.651,6.651,0,0,0,6.546,5.443,5.192,5.192,0,0,0,.714-.049,6.489,6.489,0,0,0,2.6-.811,6.627,6.627,0,0,0,2.823-3.147,6.3,6.3,0,0,0,.446-1.436,6.432,6.432,0,0,0,.114-1.209,6.659,6.659,0,0,0-6.651-6.659,6.367,6.367,0,0,0-1.468.162,6.7,6.7,0,0,0-5.191,6.489A6.278,6.278,0,0,0,26,11.177l-.771.292Z" transform="translate(-3.955 0)"/>
      <path id="Trazado_878186" data-name="Trazado 878186" d="M34.147,16.7a1.225,1.225,0,0,1-1.217-1.217V11.427a1.217,1.217,0,0,1,2.433,0v4.056A1.217,1.217,0,0,1,34.147,16.7Z" transform="translate(-5.584 -1.588)"/>
      <path id="Trazado_878187" data-name="Trazado 878187" d="M34.179,8.416a1.225,1.225,0,0,1-.86-.357l-.073-.081a1.209,1.209,0,0,1,0-1.72,1.225,1.225,0,0,1,1.72,0l.073.081a1.209,1.209,0,0,1,0,1.72,1.225,1.225,0,0,1-.86.357Z" transform="translate(-5.576 -0.775)"/>
    </g>
    <path id="Trazado_886021" data-name="Trazado 886021" d="M3,0H53a3,3,0,0,1,3,3V49a3,3,0,0,1-3,3H3a3,3,0,0,1-3-3V3A3,3,0,0,1,3,0Z" transform="translate(882.081 3322)" fill="#3a1d71"/>
    <g id="chart_11787052-2" data-name="chart_11787052" transform="translate(890.96 3329.309)">
      <path id="Trazado_878170-2" data-name="Trazado 878170" d="M4.36,8.577V6.411A3.561,3.561,0,0,1,7.913,2.85h18.1a3.245,3.245,0,0,1,1.1.178,7.463,7.463,0,0,0-5.824,7.3,6.748,6.748,0,0,0,.105,1.225v.138a7.463,7.463,0,0,0,7.3,6.1,6.7,6.7,0,0,0,.811-.049V33.6a3.553,3.553,0,0,1-3.553,3.553H7.913A3.553,3.553,0,0,1,4.36,33.6V16.566" transform="translate(-0.189 -0.198)" fill="#f0f0f0"/>
      <path id="Trazado_878171-2" data-name="Trazado 878171" d="M25.829,37.776H7.724A4.372,4.372,0,0,1,3.36,33.412V16.378a.811.811,0,1,1,1.622,0V33.412a2.75,2.75,0,0,0,2.742,2.742h18.1a2.75,2.75,0,0,0,2.742-2.742V18.4a8.274,8.274,0,0,1-8.111-6.765v-.154a7.819,7.819,0,0,1-.114-1.355,8.306,8.306,0,0,1,3.366-6.651H7.724a2.75,2.75,0,0,0-2.742,2.75V8.388a.811.811,0,0,1-1.622,0V6.222A4.364,4.364,0,0,1,7.724,1.85h18.1a4.186,4.186,0,0,1,1.371.219.807.807,0,0,1-.1,1.549,6.7,6.7,0,0,0-5.191,6.489A6.278,6.278,0,0,0,22,11.178l-.771.292.811-.154a6.651,6.651,0,0,0,6.546,5.443,5.19,5.19,0,0,0,.714-.049.821.821,0,0,1,.908.811v15.89A4.372,4.372,0,0,1,25.829,37.776Z" transform="translate(0 -0.009)"/>
      <path id="Trazado_878172-2" data-name="Trazado 878172" d="M4.171,15.827a.811.811,0,0,1-.811-.811V13.491a.811.811,0,1,1,1.622,0v1.525A.811.811,0,0,1,4.171,15.827Z" transform="translate(0 -2.055)"/>
      <path id="Trazado_878173-2" data-name="Trazado 878173" d="M25.408,37.15l1,5.6L33.52,32.38l-5.589,1.087a3.18,3.18,0,0,0-2.523,3.683Z" transform="translate(-4.154 -5.775)" fill="#64c8f0"/>
      <path id="Trazado_878174-2" data-name="Trazado 878174" d="M26.217,43.374h-.17a.811.811,0,0,1-.625-.649L24.416,37.12A4,4,0,0,1,27.587,32.5l5.589-1.087a.814.814,0,0,1,.811,1.257l-7.1,10.35A.811.811,0,0,1,26.217,43.374Zm-.2-6.554.657,3.658,4.867-7.106-3.642.706a2.377,2.377,0,0,0-1.882,2.742Z" transform="translate(-3.965 -5.591)"/>
      <rect id="Rectángulo_402924-2" data-name="Rectángulo 402924" width="3.277" height="14.901" rx="1.05" transform="translate(8.916 7.227)" fill="#fa6450"/>
      <path id="Trazado_878175-2" data-name="Trazado 878175" d="M12.454,24.012H10.872A1.622,1.622,0,0,1,9.25,22.39V9.152A1.622,1.622,0,0,1,10.872,7.53h1.582a1.663,1.663,0,0,1,1.663,1.622V22.358a1.622,1.622,0,0,1-1.663,1.655ZM10.872,9.12V22.358h1.663V9.152Z" transform="translate(-1.112 -1.082)"/>
      <rect id="Rectángulo_402925-2" data-name="Rectángulo 402925" width="3.277" height="12.021" rx="1.05" transform="translate(14.643 10.106)" fill="#3cc8b4"/>
      <path id="Trazado_878176-2" data-name="Trazado 878176" d="M19.515,24.683H17.933A1.622,1.622,0,0,1,16.27,23.06V12.7a1.622,1.622,0,0,1,1.663-1.622h1.582A1.622,1.622,0,0,1,21.137,12.7V23.028a1.622,1.622,0,0,1-1.622,1.655ZM17.933,12.637,17.892,23h1.622V12.7Z" transform="translate(-2.438 -1.752)"/>
      <rect id="Rectángulo_402926-2" data-name="Rectángulo 402926" width="3.277" height="4.023" rx="1.05" transform="translate(20.37 18.104)" fill="#fab400"/>
      <path id="Trazado_878177-2" data-name="Trazado 878177" d="M26.575,26.545H24.993a1.622,1.622,0,0,1-1.663-1.622v-2.36a1.622,1.622,0,0,1,1.663-1.622h1.582a1.622,1.622,0,0,1,1.663,1.622V24.89a1.622,1.622,0,0,1-1.663,1.655Zm-1.582-4.056-.041,2.36h1.663V22.562Z" transform="translate(-3.771 -3.615)"/>
      <path id="Trazado_878178-2" data-name="Trazado 878178" d="M14.625,32.072H8.411a.811.811,0,0,1,0-1.622h6.213a.811.811,0,0,1,0,1.622Z" transform="translate(-0.801 -5.411)"/>
      <path id="Trazado_878179-2" data-name="Trazado 878179" d="M20.914,32.072H19.421a.811.811,0,0,1,0-1.622h1.493a.811.811,0,1,1,0,1.622Z" transform="translate(-2.88 -5.411)"/>
      <path id="Trazado_878180-2" data-name="Trazado 878180" d="M14.625,39.712H8.411a.811.811,0,1,1,0-1.622h6.213a.811.811,0,1,1,0,1.622Z" transform="translate(-0.801 -6.854)"/>
      <path id="Trazado_878181-2" data-name="Trazado 878181" d="M20.914,39.712H19.421a.811.811,0,0,1,0-1.622h1.493a.811.811,0,1,1,0,1.622Z" transform="translate(-2.88 -6.854)"/>
      <path id="Trazado_878182-2" data-name="Trazado 878182" d="M19.373,35.722H12.681a.811.811,0,0,1,0-1.622h6.692a.811.811,0,1,1,0,1.622Z" transform="translate(-1.607 -6.1)"/>
      <path id="Trazado_878183-2" data-name="Trazado 878183" d="M9.252,35.672H8.441a.811.811,0,1,1,0-1.622h.811a.811.811,0,1,1,0,1.622Z" transform="translate(-0.806 -6.091)"/>
      <path id="Trazado_878184-2" data-name="Trazado 878184" d="M40.174,10.3a6.814,6.814,0,0,1-.13,1.363,7.236,7.236,0,0,1-.495,1.622,7.454,7.454,0,0,1-3.139,3.464,7.3,7.3,0,0,1-2.9.941,6.7,6.7,0,0,1-.811.049,7.463,7.463,0,0,1-7.3-6.1V11.5a6.748,6.748,0,0,1-.105-1.225,7.463,7.463,0,0,1,5.824-7.3,7.3,7.3,0,0,1,1.622-.187A7.463,7.463,0,0,1,40.174,10.3Z" transform="translate(-4.142 -0.187)" fill="#64c8f0"/>
      <path id="Trazado_878185-2" data-name="Trazado 878185" d="M32.525,18.388a8.274,8.274,0,0,1-8.111-6.765v-.154a7.819,7.819,0,0,1-.114-1.355A8.33,8.33,0,0,1,30.789,2a8.111,8.111,0,0,1,1.825-.2,8.29,8.29,0,0,1,8.274,8.282,7.519,7.519,0,0,1-.146,1.517,7.552,7.552,0,0,1-.552,1.776,8.306,8.306,0,0,1-3.455,3.877,8.622,8.622,0,0,1-4.121,1.1Zm-6.546-7.065a6.651,6.651,0,0,0,6.546,5.443,5.192,5.192,0,0,0,.714-.049,6.489,6.489,0,0,0,2.6-.811,6.627,6.627,0,0,0,2.823-3.147,6.3,6.3,0,0,0,.446-1.436,6.432,6.432,0,0,0,.114-1.209,6.659,6.659,0,0,0-6.651-6.659,6.367,6.367,0,0,0-1.468.162,6.7,6.7,0,0,0-5.191,6.489A6.278,6.278,0,0,0,26,11.177l-.771.292Z" transform="translate(-3.955 0)"/>
      <path id="Trazado_878186-2" data-name="Trazado 878186" d="M34.147,16.7a1.225,1.225,0,0,1-1.217-1.217V11.427a1.217,1.217,0,0,1,2.433,0v4.056A1.217,1.217,0,0,1,34.147,16.7Z" transform="translate(-5.584 -1.588)"/>
      <path id="Trazado_878187-2" data-name="Trazado 878187" d="M34.179,8.416a1.225,1.225,0,0,1-.86-.357l-.073-.081a1.209,1.209,0,0,1,0-1.72,1.225,1.225,0,0,1,1.72,0l.073.081a1.209,1.209,0,0,1,0,1.72,1.225,1.225,0,0,1-.86.357Z" transform="translate(-5.576 -0.775)"/>
    </g>
    <path id="Trazado_879025" data-name="Trazado 879025" d="M-7779-8238h40.74v-65.228h54.824" transform="translate(8302 11651)" fill="none" stroke="#3a1d71" stroke-width="1.5"/>
    <path id="Trazado_879031" data-name="Trazado 879031" d="M-7779-8238h40.74v-65.228h54.824" transform="translate(8859.081 11586)" fill="none" stroke="#3a1d71" stroke-width="1.5"/>
    <path id="Trazado_879033" data-name="Trazado 879033" d="M-7779-8238h40.74v-65.228h54.824" transform="translate(8599 11843.205)" fill="none" stroke="#3a1d71" stroke-width="1.5"/>
    <path id="Trazado_879034" data-name="Trazado 879034" d="M-7801-8303.228h62.74v109.772h54.824" transform="translate(8599 11908.432)" fill="none" stroke="#3a1d71" stroke-width="1.5"/>
    <path id="Trazado_879026" data-name="Trazado 879026" d="M-7779-8303.227h40.74V-8238h54.824" transform="translate(8302 11716.227)" fill="none" stroke="#3a1d71" stroke-width="1.5"/>
    <path id="Trazado_879032" data-name="Trazado 879032" d="M-7779-8303.227h40.74V-8238h54.824" transform="translate(8859.081 11651.227)" fill="none" stroke="#3a1d71" stroke-width="1.5"/>
    <path id="Trazado_886022" data-name="Trazado 886022" d="M3,0H190a3,3,0,0,1,3,3V42a3,3,0,0,1-3,3H3a3,3,0,0,1-3-3V3A3,3,0,0,1,3,0Z" transform="translate(904.081 3517.477)" fill="#aec4fa"/>
    <path id="Trazado_886023" data-name="Trazado 886023" d="M3,0H190a3,3,0,0,1,3,3V42a3,3,0,0,1-3,3H3a3,3,0,0,1-3-3V3A3,3,0,0,1,3,0Z" transform="translate(904.081 3637.477)" fill="#aec4fa"/>
    <path id="Trazado_886024" data-name="Trazado 886024" d="M3,0H190a3,3,0,0,1,3,3V42a3,3,0,0,1-3,3H3a3,3,0,0,1-3-3V3A3,3,0,0,1,3,0Z" transform="translate(904.081 3692.477)" fill="#aec4fa"/>
    <path id="Trazado_886025" data-name="Trazado 886025" d="M-34.1-4.562V0h-1.539V-11.375h4.352a4.009,4.009,0,0,1,2.832.938,3.207,3.207,0,0,1,1.012,2.469,3.2,3.2,0,0,1-1.012,2.477,4.031,4.031,0,0,1-2.832.93Zm0-1.2h2.813a2.231,2.231,0,0,0,1.727-.621,2.227,2.227,0,0,0,.57-1.566,2.26,2.26,0,0,0-.574-1.578,2.21,2.21,0,0,0-1.723-.633H-34.1Zm11.82,5.93A3.576,3.576,0,0,1-25.117-1a4.48,4.48,0,0,1-1.02-3.062v-.344a4.386,4.386,0,0,1,1.051-3.012A3.3,3.3,0,0,1-22.52-8.609a3.067,3.067,0,0,1,2.543,1.055,4.345,4.345,0,0,1,.848,2.8v.813h-5.406l-.023.039A3.494,3.494,0,0,0-24-1.832a1.965,1.965,0,0,0,1.719.793,3.872,3.872,0,0,0,1.371-.223,3.061,3.061,0,0,0,1.012-.613l.6,1a3.7,3.7,0,0,1-1.2.738A4.762,4.762,0,0,1-22.277.164ZM-22.52-7.4a1.673,1.673,0,0,0-1.332.621,2.938,2.938,0,0,0-.645,1.59l.016.039h3.813v-.125A2.462,2.462,0,0,0-21.121-6.8,1.638,1.638,0,0,0-22.52-7.4Zm9.117.3-.789-.047a1.762,1.762,0,0,0-1.027.289,1.855,1.855,0,0,0-.645.813V0H-17.4V-8.453h1.375l.148,1.234a2.934,2.934,0,0,1,.887-1.023,2.073,2.073,0,0,1,1.215-.367,1.9,1.9,0,0,1,.328.027,2.175,2.175,0,0,1,.258.059Zm3.875-3.4v2.039h1.6v1.141h-1.6V-2.18a1.149,1.149,0,0,0,.246.836.89.89,0,0,0,.652.242,1.429,1.429,0,0,0,.3-.035,2.2,2.2,0,0,0,.273-.074l.211,1.055a1.36,1.36,0,0,1-.508.23,2.562,2.562,0,0,1-.664.09A1.993,1.993,0,0,1-10.512-.4a2.46,2.46,0,0,1-.555-1.777V-7.312H-12.41V-8.453h1.344v-2.039ZM-4.613,0H-6.152V-8.453h1.539Zm0-10.617H-6.152v-1.57h1.539ZM-.871-8.453-.762-7.2A3.069,3.069,0,0,1,.3-8.238a2.824,2.824,0,0,1,1.449-.371,2.759,2.759,0,0,1,2.117.8,3.515,3.515,0,0,1,.75,2.473V0H3.074V-5.3a2.287,2.287,0,0,0-.441-1.586,1.768,1.768,0,0,0-1.348-.469,2.386,2.386,0,0,0-1.207.285,2.072,2.072,0,0,0-.785.8V0H-2.246V-8.453ZM10.348.164A3.576,3.576,0,0,1,7.508-1a4.48,4.48,0,0,1-1.02-3.062v-.344A4.386,4.386,0,0,1,7.539-7.418a3.3,3.3,0,0,1,2.566-1.191,3.067,3.067,0,0,1,2.543,1.055,4.345,4.345,0,0,1,.848,2.8v.813H8.09L8.066-3.9a3.494,3.494,0,0,0,.563,2.066,1.965,1.965,0,0,0,1.719.793,3.872,3.872,0,0,0,1.371-.223,3.061,3.061,0,0,0,1.012-.613l.6,1a3.7,3.7,0,0,1-1.2.738A4.762,4.762,0,0,1,10.348.164ZM10.105-7.4a1.673,1.673,0,0,0-1.332.621,2.938,2.938,0,0,0-.645,1.59l.016.039h3.813v-.125A2.462,2.462,0,0,0,11.5-6.8,1.638,1.638,0,0,0,10.105-7.4ZM16.6-8.453,16.707-7.2a3.069,3.069,0,0,1,1.059-1.043,2.824,2.824,0,0,1,1.449-.371,2.759,2.759,0,0,1,2.117.8,3.515,3.515,0,0,1,.75,2.473V0H20.543V-5.3A2.287,2.287,0,0,0,20.1-6.891a1.768,1.768,0,0,0-1.348-.469,2.386,2.386,0,0,0-1.207.285,2.072,2.072,0,0,0-.785.8V0H15.223V-8.453Zm9.859-2.039v2.039h1.6v1.141h-1.6V-2.18a1.149,1.149,0,0,0,.246.836.89.89,0,0,0,.652.242,1.429,1.429,0,0,0,.3-.035,2.2,2.2,0,0,0,.273-.074l.211,1.055a1.36,1.36,0,0,1-.508.23,2.562,2.562,0,0,1-.664.09A1.993,1.993,0,0,1,25.473-.4a2.46,2.46,0,0,1-.555-1.777V-7.312H23.574V-8.453h1.344v-2.039ZM33.207.164A3.576,3.576,0,0,1,30.367-1a4.48,4.48,0,0,1-1.02-3.062v-.344A4.386,4.386,0,0,1,30.4-7.418a3.3,3.3,0,0,1,2.566-1.191,3.067,3.067,0,0,1,2.543,1.055,4.345,4.345,0,0,1,.848,2.8v.813H30.949l-.023.039a3.494,3.494,0,0,0,.563,2.066,1.965,1.965,0,0,0,1.719.793,3.872,3.872,0,0,0,1.371-.223,3.061,3.061,0,0,0,1.012-.613l.6,1A3.7,3.7,0,0,1,35-.137,4.762,4.762,0,0,1,33.207.164ZM32.965-7.4a1.673,1.673,0,0,0-1.332.621,2.938,2.938,0,0,0-.645,1.59L31-5.148h3.813v-.125A2.462,2.462,0,0,0,34.363-6.8,1.638,1.638,0,0,0,32.965-7.4Z" transform="translate(1001.081 3546.477)" fill="#12263f"/>
    <path id="Trazado_886026" data-name="Trazado 886026" d="M-27.555-5.031h-4.8V0h-1.539V-11.375h7.133v1.211h-5.594v3.922h4.8ZM-23.609,0h-1.539V-8.453h1.539Zm0-10.617h-1.539v-1.57h1.539Zm2.016,6.547a5.641,5.641,0,0,1,.871-3.289,2.807,2.807,0,0,1,2.441-1.25,3.027,3.027,0,0,1,1.316.273,2.7,2.7,0,0,1,.98.8v-4.648h1.539V0h-1.18l-.234-1.07a2.743,2.743,0,0,1-1.023.922A3.058,3.058,0,0,1-18.3.164,2.9,2.9,0,0,1-20.719-.957a4.659,4.659,0,0,1-.875-2.949Zm1.539.164a3.588,3.588,0,0,0,.523,2.051,1.828,1.828,0,0,0,1.625.77A2.039,2.039,0,0,0-16.75-1.4a2.334,2.334,0,0,0,.766-.875V-6.219a2.37,2.37,0,0,0-.77-.832,2.033,2.033,0,0,0-1.137-.309,1.759,1.759,0,0,0-1.637.914,4.718,4.718,0,0,0-.527,2.375ZM-8.648.164A3.576,3.576,0,0,1-11.488-1a4.48,4.48,0,0,1-1.02-3.062v-.344a4.386,4.386,0,0,1,1.051-3.012A3.3,3.3,0,0,1-8.891-8.609,3.067,3.067,0,0,1-6.348-7.555,4.345,4.345,0,0,1-5.5-4.75v.813h-5.406l-.023.039a3.494,3.494,0,0,0,.563,2.066,1.965,1.965,0,0,0,1.719.793,3.872,3.872,0,0,0,1.371-.223,3.061,3.061,0,0,0,1.012-.613l.6,1a3.7,3.7,0,0,1-1.2.738A4.762,4.762,0,0,1-8.648.164ZM-8.891-7.4a1.673,1.673,0,0,0-1.332.621,2.938,2.938,0,0,0-.645,1.59l.016.039h3.813v-.125A2.462,2.462,0,0,0-7.492-6.8,1.638,1.638,0,0,0-8.891-7.4ZM-4.125-4.07a5.641,5.641,0,0,1,.871-3.289A2.807,2.807,0,0,1-.812-8.609,3.027,3.027,0,0,1,.5-8.336a2.7,2.7,0,0,1,.98.8v-4.648H3.023V0H1.844L1.609-1.07A2.743,2.743,0,0,1,.586-.148,3.058,3.058,0,0,1-.828.164,2.9,2.9,0,0,1-3.25-.957a4.659,4.659,0,0,1-.875-2.949Zm1.539.164a3.588,3.588,0,0,0,.523,2.051,1.828,1.828,0,0,0,1.625.77A2.039,2.039,0,0,0,.719-1.4a2.334,2.334,0,0,0,.766-.875V-6.219a2.37,2.37,0,0,0-.77-.832A2.033,2.033,0,0,0-.422-7.359a1.759,1.759,0,0,0-1.637.914A4.718,4.718,0,0,0-2.586-4.07ZM6.984,0H5.445V-8.453H6.984Zm0-10.617H5.445v-1.57H6.984ZM9.078-4.07a5.641,5.641,0,0,1,.871-3.289,2.8,2.8,0,0,1,2.434-1.25,2.966,2.966,0,0,1,1.414.324,2.845,2.845,0,0,1,1.023.934l.188-1.1h1.227v8.5a3.225,3.225,0,0,1-.945,2.5,3.884,3.884,0,0,1-2.727.871,5.716,5.716,0,0,1-1.316-.168A5.147,5.147,0,0,1,10,2.789l.234-1.2a4.45,4.45,0,0,0,1.074.379,5.517,5.517,0,0,0,1.238.145,2.242,2.242,0,0,0,1.637-.512A2.12,2.12,0,0,0,14.7.047V-.914a2.725,2.725,0,0,1-.992.8,3.091,3.091,0,0,1-1.336.273A2.89,2.89,0,0,1,9.949-.957a4.674,4.674,0,0,1-.871-2.949Zm1.539.164a3.592,3.592,0,0,0,.523,2.047,1.817,1.817,0,0,0,1.617.773A2.034,2.034,0,0,0,13.922-1.4,2.4,2.4,0,0,0,14.7-2.3V-6.187a2.388,2.388,0,0,0-.773-.855,2.029,2.029,0,0,0-1.148-.316,1.752,1.752,0,0,0-1.629.914,4.718,4.718,0,0,0-.527,2.375Zm9.2-4.547L19.93-7.2a3.069,3.069,0,0,1,1.059-1.043,2.824,2.824,0,0,1,1.449-.371,2.759,2.759,0,0,1,2.117.8,3.515,3.515,0,0,1,.75,2.473V0H23.766V-5.3a2.287,2.287,0,0,0-.441-1.586,1.768,1.768,0,0,0-1.348-.469,2.386,2.386,0,0,0-1.207.285,2.072,2.072,0,0,0-.785.8V0H18.445V-8.453ZM32.734,0q-.078-.383-.121-.676a4.96,4.96,0,0,1-.051-.59,3.589,3.589,0,0,1-1.121,1.02,2.867,2.867,0,0,1-1.488.41,2.763,2.763,0,0,1-2.012-.676,2.486,2.486,0,0,1-.691-1.863,2.183,2.183,0,0,1,.98-1.895,4.579,4.579,0,0,1,2.66-.684h1.672v-.836a1.551,1.551,0,0,0-.453-1.176A1.779,1.779,0,0,0,30.828-7.4a1.859,1.859,0,0,0-1.211.375,1.125,1.125,0,0,0-.461.9L27.7-6.109l-.016-.047a2.023,2.023,0,0,1,.863-1.687,3.578,3.578,0,0,1,2.371-.766,3.49,3.49,0,0,1,2.313.73A2.588,2.588,0,0,1,34.1-5.773V-1.7a7.923,7.923,0,0,0,.047.875A4.5,4.5,0,0,0,34.32,0ZM30.18-1.125a2.739,2.739,0,0,0,1.508-.43,2.042,2.042,0,0,0,.875-.984V-3.914H30.836a2.24,2.24,0,0,0-1.488.469,1.4,1.4,0,0,0-.559,1.1,1.159,1.159,0,0,0,.352.891A1.472,1.472,0,0,0,30.18-1.125Z" transform="translate(1001.081 3666.477)" fill="#12263f"/>
    <path id="Trazado_886027" data-name="Trazado 886027" d="M-67.41,0V-11.375h3.578A4.812,4.812,0,0,1-60.25-10a4.824,4.824,0,0,1,1.355,3.543v1.555A4.808,4.808,0,0,1-60.25-1.363,4.827,4.827,0,0,1-63.832,0Zm1.539-10.164V-1.2h2.039a3.137,3.137,0,0,0,2.488-1.039,3.9,3.9,0,0,0,.91-2.664v-1.57a3.873,3.873,0,0,0-.91-2.648,3.137,3.137,0,0,0-2.488-1.039ZM-55.121,0H-56.66V-8.453h1.539Zm0-10.617H-56.66v-1.57h1.539Zm2.094,6.547a5.641,5.641,0,0,1,.871-3.289,2.8,2.8,0,0,1,2.434-1.25,2.966,2.966,0,0,1,1.414.324,2.845,2.845,0,0,1,1.023.934l.188-1.1h1.227v8.5a3.225,3.225,0,0,1-.945,2.5,3.884,3.884,0,0,1-2.727.871,5.716,5.716,0,0,1-1.316-.168,5.147,5.147,0,0,1-1.246-.457l.234-1.2a4.451,4.451,0,0,0,1.074.379,5.517,5.517,0,0,0,1.238.145,2.242,2.242,0,0,0,1.637-.512A2.12,2.12,0,0,0-47.41.047V-.914a2.725,2.725,0,0,1-.992.8,3.091,3.091,0,0,1-1.336.273A2.89,2.89,0,0,1-52.156-.957a4.674,4.674,0,0,1-.871-2.949Zm1.539.164a3.592,3.592,0,0,0,.523,2.047,1.817,1.817,0,0,0,1.617.773A2.034,2.034,0,0,0-48.184-1.4,2.4,2.4,0,0,0-47.41-2.3V-6.187a2.388,2.388,0,0,0-.773-.855,2.029,2.029,0,0,0-1.148-.316,1.752,1.752,0,0,0-1.629.914,4.718,4.718,0,0,0-.527,2.375Zm9.2-4.547.109,1.258a3.069,3.069,0,0,1,1.059-1.043,2.824,2.824,0,0,1,1.449-.371,2.759,2.759,0,0,1,2.117.8,3.515,3.515,0,0,1,.75,2.473V0H-38.34V-5.3a2.287,2.287,0,0,0-.441-1.586,1.768,1.768,0,0,0-1.348-.469,2.386,2.386,0,0,0-1.207.285,2.072,2.072,0,0,0-.785.8V0H-43.66V-8.453ZM-29.371,0q-.078-.383-.121-.676a4.96,4.96,0,0,1-.051-.59,3.589,3.589,0,0,1-1.121,1.02,2.867,2.867,0,0,1-1.488.41,2.763,2.763,0,0,1-2.012-.676,2.486,2.486,0,0,1-.691-1.863,2.183,2.183,0,0,1,.98-1.895,4.579,4.579,0,0,1,2.66-.684h1.672v-.836A1.551,1.551,0,0,0-30-6.965,1.779,1.779,0,0,0-31.277-7.4a1.859,1.859,0,0,0-1.211.375,1.125,1.125,0,0,0-.461.9l-1.461.016-.016-.047a2.023,2.023,0,0,1,.863-1.687,3.578,3.578,0,0,1,2.371-.766,3.49,3.49,0,0,1,2.313.73A2.588,2.588,0,0,1-28-5.773V-1.7a7.923,7.923,0,0,0,.047.875A4.5,4.5,0,0,0-27.785,0Zm-2.555-1.125a2.739,2.739,0,0,0,1.508-.43,2.042,2.042,0,0,0,.875-.984V-3.914H-31.27a2.24,2.24,0,0,0-1.488.469,1.4,1.4,0,0,0-.559,1.1,1.159,1.159,0,0,0,.352.891A1.472,1.472,0,0,0-31.926-1.125Zm9.781-2.945a5.641,5.641,0,0,1,.871-3.289,2.807,2.807,0,0,1,2.441-1.25,3.027,3.027,0,0,1,1.316.273,2.7,2.7,0,0,1,.98.8v-4.648H-15V0h-1.18l-.234-1.07a2.743,2.743,0,0,1-1.023.922,3.058,3.058,0,0,1-1.414.313A2.9,2.9,0,0,1-21.27-.957a4.659,4.659,0,0,1-.875-2.949Zm1.539.164a3.588,3.588,0,0,0,.523,2.051,1.828,1.828,0,0,0,1.625.77A2.039,2.039,0,0,0-17.3-1.4a2.334,2.334,0,0,0,.766-.875V-6.219a2.37,2.37,0,0,0-.77-.832,2.033,2.033,0,0,0-1.137-.309,1.759,1.759,0,0,0-1.637.914,4.718,4.718,0,0,0-.527,2.375ZM-9.2.164A3.576,3.576,0,0,1-12.039-1a4.48,4.48,0,0,1-1.02-3.062v-.344a4.386,4.386,0,0,1,1.051-3.012A3.3,3.3,0,0,1-9.441-8.609,3.067,3.067,0,0,1-6.9-7.555a4.345,4.345,0,0,1,.848,2.8v.813h-5.406l-.023.039a3.494,3.494,0,0,0,.563,2.066A1.965,1.965,0,0,0-9.2-1.039a3.872,3.872,0,0,0,1.371-.223,3.061,3.061,0,0,0,1.012-.613l.6,1a3.7,3.7,0,0,1-1.2.738A4.762,4.762,0,0,1-9.2.164ZM-9.441-7.4a1.673,1.673,0,0,0-1.332.621,2.938,2.938,0,0,0-.645,1.59l.016.039H-7.59v-.125A2.462,2.462,0,0,0-8.043-6.8,1.638,1.638,0,0,0-9.441-7.4ZM3.012-1.039a1.81,1.81,0,0,0,1.242-.473,1.494,1.494,0,0,0,.531-1.16H6.176l.023.047A2.428,2.428,0,0,1,5.262-.684a3.313,3.313,0,0,1-2.25.848A3.319,3.319,0,0,1,.262-1.047,4.674,4.674,0,0,1-.707-4.062v-.328a4.654,4.654,0,0,1,.973-3A3.317,3.317,0,0,1,3.012-8.609a3.189,3.189,0,0,1,2.316.875A2.775,2.775,0,0,1,6.2-5.586l-.016.047h-1.4a1.865,1.865,0,0,0-.5-1.316A1.658,1.658,0,0,0,3.012-7.4a1.777,1.777,0,0,0-1.652.879A4.114,4.114,0,0,0,.84-4.391v.328a4.192,4.192,0,0,0,.512,2.148A1.776,1.776,0,0,0,3.012-1.039ZM7.668-4.3a4.654,4.654,0,0,1,1.016-3.09,3.406,3.406,0,0,1,2.758-1.215A3.439,3.439,0,0,1,14.219-7.4,4.639,4.639,0,0,1,15.238-4.3v.172a4.631,4.631,0,0,1-1.016,3.094,3.429,3.429,0,0,1-2.766,1.2,3.436,3.436,0,0,1-2.77-1.207,4.623,4.623,0,0,1-1.02-3.09Zm1.539.172a4.009,4.009,0,0,0,.566,2.219,1.875,1.875,0,0,0,1.684.875,1.87,1.87,0,0,0,1.672-.875,3.988,3.988,0,0,0,.57-2.219V-4.3a3.976,3.976,0,0,0-.574-2.211A1.882,1.882,0,0,0,11.441-7.4a1.856,1.856,0,0,0-1.668.883A4.018,4.018,0,0,0,9.207-4.3ZM18.5-8.453,18.605-7.2a3.069,3.069,0,0,1,1.059-1.043,2.824,2.824,0,0,1,1.449-.371,2.759,2.759,0,0,1,2.117.8,3.515,3.515,0,0,1,.75,2.473V0H22.441V-5.3A2.287,2.287,0,0,0,22-6.891a1.768,1.768,0,0,0-1.348-.469,2.386,2.386,0,0,0-1.207.285,2.072,2.072,0,0,0-.785.8V0H17.121V-8.453ZM26.645,0V-7.312H25.316V-8.453h1.328v-.914a2.875,2.875,0,0,1,.832-2.2,3.24,3.24,0,0,1,2.309-.781,4.431,4.431,0,0,1,1.031.121q.508.121,1.2.355l-.266,1.25a7.011,7.011,0,0,0-.883-.281,3.947,3.947,0,0,0-.961-.117,1.8,1.8,0,0,0-1.316.406,1.713,1.713,0,0,0-.4,1.25v.914h1.68v1.141h-1.68V0Zm6.117,0H31.215V-8.453h1.547Zm7.555,0q-.078-.383-.121-.676a4.96,4.96,0,0,1-.051-.59,3.589,3.589,0,0,1-1.121,1.02,2.867,2.867,0,0,1-1.488.41,2.763,2.763,0,0,1-2.012-.676,2.486,2.486,0,0,1-.691-1.863,2.183,2.183,0,0,1,.98-1.895,4.579,4.579,0,0,1,2.66-.684h1.672v-.836a1.551,1.551,0,0,0-.453-1.176A1.779,1.779,0,0,0,38.41-7.4a1.859,1.859,0,0,0-1.211.375,1.125,1.125,0,0,0-.461.9l-1.461.016-.016-.047a2.023,2.023,0,0,1,.863-1.687A3.578,3.578,0,0,1,38.5-8.609a3.49,3.49,0,0,1,2.313.73,2.588,2.588,0,0,1,.875,2.105V-1.7a7.923,7.923,0,0,0,.047.875A4.5,4.5,0,0,0,41.9,0ZM37.762-1.125a2.739,2.739,0,0,0,1.508-.43,2.042,2.042,0,0,0,.875-.984V-3.914H38.418a2.24,2.24,0,0,0-1.488.469,1.4,1.4,0,0,0-.559,1.1,1.159,1.159,0,0,0,.352.891A1.472,1.472,0,0,0,37.762-1.125Zm7.531-7.328L45.4-7.2a3.069,3.069,0,0,1,1.059-1.043,2.824,2.824,0,0,1,1.449-.371,2.759,2.759,0,0,1,2.117.8,3.515,3.515,0,0,1,.75,2.473V0H49.238V-5.3A2.287,2.287,0,0,0,48.8-6.891a1.768,1.768,0,0,0-1.348-.469,2.386,2.386,0,0,0-1.207.285,2.072,2.072,0,0,0-.785.8V0H43.918V-8.453ZM54.465-1.2h4.883V0H52.629V-1.078L57.2-7.234H52.684V-8.453h6.4v1.047ZM66.254,0q-.078-.383-.121-.676a4.96,4.96,0,0,1-.051-.59,3.589,3.589,0,0,1-1.121,1.02,2.867,2.867,0,0,1-1.488.41,2.763,2.763,0,0,1-2.012-.676,2.486,2.486,0,0,1-.691-1.863,2.183,2.183,0,0,1,.98-1.895,4.579,4.579,0,0,1,2.66-.684h1.672v-.836a1.551,1.551,0,0,0-.453-1.176A1.779,1.779,0,0,0,64.348-7.4a1.859,1.859,0,0,0-1.211.375,1.125,1.125,0,0,0-.461.9l-1.461.016L61.2-6.156a2.023,2.023,0,0,1,.863-1.687,3.578,3.578,0,0,1,2.371-.766,3.49,3.49,0,0,1,2.313.73,2.588,2.588,0,0,1,.875,2.105V-1.7a7.923,7.923,0,0,0,.047.875A4.5,4.5,0,0,0,67.84,0ZM63.7-1.125a2.739,2.739,0,0,0,1.508-.43,2.042,2.042,0,0,0,.875-.984V-3.914H64.355a2.24,2.24,0,0,0-1.488.469,1.4,1.4,0,0,0-.559,1.1,1.159,1.159,0,0,0,.352.891A1.472,1.472,0,0,0,63.7-1.125Z" transform="translate(1001.081 3721.477)" fill="#12263f"/>
    <path id="Trazado_879035" data-name="Trazado 879035" d="M-7615.2-8030.626h44.387" transform="translate(8475.656 11635.83)" fill="none" stroke="#3a1d71" stroke-width="1.5"/>
    <path id="Trazado_886028" data-name="Trazado 886028" d="M3,0H190a3,3,0,0,1,3,3V42a3,3,0,0,1-3,3H3a3,3,0,0,1-3-3V3A3,3,0,0,1,3,0Z" transform="translate(904.081 3583.205)" fill="#aec4fa"/>
    <path id="Trazado_886029" data-name="Trazado 886029" d="M-22.012-4.672A4.853,4.853,0,0,1-23.3-1.211,4.4,4.4,0,0,1-26.66.164,4.167,4.167,0,0,1-29.9-1.211a4.959,4.959,0,0,1-1.246-3.461V-6.7A4.977,4.977,0,0,1-29.9-10.156a4.156,4.156,0,0,1,3.238-1.383A4.39,4.39,0,0,1-23.3-10.16,4.867,4.867,0,0,1-22.012-6.7Zm-1.539-2.039a3.837,3.837,0,0,0-.844-2.562,2.813,2.813,0,0,0-2.266-1,2.606,2.606,0,0,0-2.145,1,3.972,3.972,0,0,0-.8,2.563v2.039a4,4,0,0,0,.8,2.578,2.606,2.606,0,0,0,2.145,1,2.815,2.815,0,0,0,2.27-1,3.869,3.869,0,0,0,.84-2.582Zm10.766,2.8a4.645,4.645,0,0,1-.879,2.949A2.9,2.9,0,0,1-16.082.164a3.064,3.064,0,0,1-1.465-.332,2.719,2.719,0,0,1-1.027-.98L-18.824,0H-20V-12.187h1.539v4.734a2.671,2.671,0,0,1,.988-.859,3.03,3.03,0,0,1,1.379-.3,2.809,2.809,0,0,1,2.438,1.25,5.622,5.622,0,0,1,.875,3.289Zm-1.539-.164a4.666,4.666,0,0,0-.535-2.371,1.762,1.762,0,0,0-1.629-.918,2.014,2.014,0,0,0-1.2.348,2.452,2.452,0,0,0-.777.934v3.664a2.517,2.517,0,0,0,.777.977,2,2,0,0,0,1.215.352,1.829,1.829,0,0,0,1.617-.773,3.552,3.552,0,0,0,.531-2.047ZM-6-2.273A1.026,1.026,0,0,0-6.383-3.1a3.732,3.732,0,0,0-1.465-.562,6.146,6.146,0,0,1-2.293-.9,1.814,1.814,0,0,1-.8-1.547,2.229,2.229,0,0,1,.879-1.766,3.433,3.433,0,0,1,2.277-.734,3.4,3.4,0,0,1,2.328.781,2.239,2.239,0,0,1,.852,1.82l-.016.047H-6.09a1.331,1.331,0,0,0-.48-.992A1.717,1.717,0,0,0-7.785-7.4,1.751,1.751,0,0,0-9-7.031a1.146,1.146,0,0,0-.4.875.927.927,0,0,0,.348.773,3.848,3.848,0,0,0,1.434.5,6.058,6.058,0,0,1,2.359.93,1.872,1.872,0,0,1,.8,1.57,2.226,2.226,0,0,1-.91,1.836A3.754,3.754,0,0,1-7.746.164a3.715,3.715,0,0,1-2.547-.82,2.341,2.341,0,0,1-.883-1.914l.016-.047h1.469a1.424,1.424,0,0,0,.609,1.2,2.358,2.358,0,0,0,1.336.379,2.1,2.1,0,0,0,1.285-.348A1.063,1.063,0,0,0-6-2.273ZM-2.9-4.3a4.654,4.654,0,0,1,1.016-3.09A3.406,3.406,0,0,1,.871-8.609,3.439,3.439,0,0,1,3.648-7.4,4.639,4.639,0,0,1,4.668-4.3v.172A4.631,4.631,0,0,1,3.652-1.039,3.429,3.429,0,0,1,.887.164a3.436,3.436,0,0,1-2.77-1.207A4.623,4.623,0,0,1-2.9-4.133Zm1.539.172A4.009,4.009,0,0,0-.8-1.914a1.875,1.875,0,0,0,1.684.875,1.87,1.87,0,0,0,1.672-.875,3.988,3.988,0,0,0,.57-2.219V-4.3a3.976,3.976,0,0,0-.574-2.211A1.882,1.882,0,0,0,.871-7.4,1.856,1.856,0,0,0-.8-6.516,4.018,4.018,0,0,0-1.363-4.3ZM8.215,0H6.676V-12.187H8.215Zm5.867.164A3.576,3.576,0,0,1,11.242-1a4.48,4.48,0,0,1-1.02-3.062v-.344a4.386,4.386,0,0,1,1.051-3.012A3.3,3.3,0,0,1,13.84-8.609a3.067,3.067,0,0,1,2.543,1.055,4.345,4.345,0,0,1,.848,2.8v.813H11.824L11.8-3.9a3.494,3.494,0,0,0,.563,2.066,1.965,1.965,0,0,0,1.719.793,3.872,3.872,0,0,0,1.371-.223,3.061,3.061,0,0,0,1.012-.613l.6,1a3.7,3.7,0,0,1-1.2.738A4.762,4.762,0,0,1,14.082.164ZM13.84-7.4a1.673,1.673,0,0,0-1.332.621,2.938,2.938,0,0,0-.645,1.59l.016.039h3.813v-.125A2.462,2.462,0,0,0,15.238-6.8,1.638,1.638,0,0,0,13.84-7.4ZM21.1-10.492v2.039h1.6v1.141H21.1V-2.18a1.149,1.149,0,0,0,.246.836A.89.89,0,0,0,22-1.1a1.429,1.429,0,0,0,.3-.035,2.2,2.2,0,0,0,.273-.074l.211,1.055a1.36,1.36,0,0,1-.508.23,2.562,2.562,0,0,1-.664.09A1.993,1.993,0,0,1,20.113-.4a2.46,2.46,0,0,1-.555-1.777V-7.312H18.215V-8.453h1.344v-2.039ZM29.543,0q-.078-.383-.121-.676a4.96,4.96,0,0,1-.051-.59A3.589,3.589,0,0,1,28.25-.246a2.867,2.867,0,0,1-1.488.41A2.763,2.763,0,0,1,24.75-.512a2.486,2.486,0,0,1-.691-1.863,2.183,2.183,0,0,1,.98-1.895,4.579,4.579,0,0,1,2.66-.684h1.672v-.836a1.551,1.551,0,0,0-.453-1.176A1.779,1.779,0,0,0,27.637-7.4a1.859,1.859,0,0,0-1.211.375,1.125,1.125,0,0,0-.461.9L24.5-6.109l-.016-.047a2.023,2.023,0,0,1,.863-1.687,3.578,3.578,0,0,1,2.371-.766,3.49,3.49,0,0,1,2.313.73,2.588,2.588,0,0,1,.875,2.105V-1.7a7.923,7.923,0,0,0,.047.875A4.5,4.5,0,0,0,31.129,0ZM26.988-1.125a2.739,2.739,0,0,0,1.508-.43,2.042,2.042,0,0,0,.875-.984V-3.914H27.645a2.24,2.24,0,0,0-1.488.469,1.4,1.4,0,0,0-.559,1.1,1.159,1.159,0,0,0,.352.891A1.472,1.472,0,0,0,26.988-1.125Z" transform="translate(1001.081 3612.205)" fill="#12263f"/>
    <path id="Trazado_886030" data-name="Trazado 886030" d="M3,0H256a3,3,0,0,1,3,3V49a3,3,0,0,1-3,3H3a3,3,0,0,1-3-3V3A3,3,0,0,1,3,0Z" transform="translate(264 3221)" fill="#f0c518"/>
    <path id="Trazado_886031" data-name="Trazado 886031" d="M-82.512-2.969a1.33,1.33,0,0,0-.457-1.055,4.592,4.592,0,0,0-1.605-.75,9.124,9.124,0,0,1-2.988-1.4,2.646,2.646,0,0,1-1.02-2.2,2.761,2.761,0,0,1,1.148-2.285,4.654,4.654,0,0,1,2.93-.887,4.621,4.621,0,0,1,3.043.953,2.982,2.982,0,0,1,1.113,2.5l-.016.047h-2.211a1.657,1.657,0,0,0-.516-1.309A2.106,2.106,0,0,0-84.535-9.8a1.91,1.91,0,0,0-1.3.406A1.323,1.323,0,0,0-86.3-8.359a1.135,1.135,0,0,0,.5.949,6.689,6.689,0,0,0,1.727.785,7.429,7.429,0,0,1,2.859,1.387,2.841,2.841,0,0,1,.984,2.254,2.713,2.713,0,0,1-1.141,2.3,4.952,4.952,0,0,1-3.016.844A5.388,5.388,0,0,1-87.539-.75a3.015,3.015,0,0,1-1.277-2.727l.016-.047h2.211A1.79,1.79,0,0,0-86-2.039a2.5,2.5,0,0,0,1.609.477,2.2,2.2,0,0,0,1.395-.383A1.242,1.242,0,0,0-82.512-2.969ZM-76.324,0h-2.281V-8.453h2.281Zm0-10.477h-2.281v-1.711h2.281Zm6.445,8.133a.787.787,0,0,0-.363-.645,3.69,3.69,0,0,0-1.348-.473,5.375,5.375,0,0,1-2.254-.9,1.962,1.962,0,0,1-.77-1.633,2.329,2.329,0,0,1,.922-1.852,3.717,3.717,0,0,1,2.453-.766,4.011,4.011,0,0,1,2.566.766,2.237,2.237,0,0,1,.926,1.906l-.016.047h-2.2a1.106,1.106,0,0,0-.328-.828,1.3,1.3,0,0,0-.945-.32,1.292,1.292,0,0,0-.867.273.85.85,0,0,0-.32.672.759.759,0,0,0,.332.637,3.7,3.7,0,0,0,1.348.441A5.484,5.484,0,0,1-68.43-4.1a2.014,2.014,0,0,1,.762,1.668,2.231,2.231,0,0,1-.977,1.867,4.215,4.215,0,0,1-2.578.727,3.918,3.918,0,0,1-2.668-.855,2.392,2.392,0,0,1-.934-1.949l.016-.047h2.086a1.186,1.186,0,0,0,.445.984,1.838,1.838,0,0,0,1.1.3,1.567,1.567,0,0,0,.965-.254A.824.824,0,0,0-69.879-2.344Zm6.414-8.18v2.07h1.43v1.6h-1.43v4.3a.982.982,0,0,0,.207.7.727.727,0,0,0,.543.211,2.178,2.178,0,0,0,.313-.02,2.632,2.632,0,0,0,.3-.066L-61.91-.07a4.618,4.618,0,0,1-.668.176,3.982,3.982,0,0,1-.707.059A2.431,2.431,0,0,1-65.1-.484a2.843,2.843,0,0,1-.637-2.055V-6.852h-1.234v-1.6h1.234v-2.07Zm6.5,10.688A3.8,3.8,0,0,1-59.918-1,4.252,4.252,0,0,1-60.98-3.984V-4.3a4.628,4.628,0,0,1,1.031-3.109,3.506,3.506,0,0,1,2.836-1.2A3.282,3.282,0,0,1-54.5-7.566a4.122,4.122,0,0,1,.91,2.809v1.18h-5.039l-.023.047a2.284,2.284,0,0,0,.527,1.406,1.766,1.766,0,0,0,1.4.539,4.692,4.692,0,0,0,1.3-.156,5.307,5.307,0,0,0,1.105-.477L-53.7-.812a4.234,4.234,0,0,1-1.375.7A6.1,6.1,0,0,1-56.965.164Zm-.148-7.016a1.267,1.267,0,0,0-1.059.473,2.371,2.371,0,0,0-.449,1.254l.016.039h2.781v-.172a1.974,1.974,0,0,0-.3-1.168A1.127,1.127,0,0,0-57.113-6.852Zm6.969-1.6.094,1.117a2.84,2.84,0,0,1,1.02-.941,2.932,2.932,0,0,1,1.418-.332,2.582,2.582,0,0,1,1.391.359,2.217,2.217,0,0,1,.875,1.086,2.93,2.93,0,0,1,1.016-1.062,2.756,2.756,0,0,1,1.469-.383,2.408,2.408,0,0,1,1.973.887,4.233,4.233,0,0,1,.723,2.707V0h-2.281V-5.023a2.369,2.369,0,0,0-.312-1.414,1.109,1.109,0,0,0-.93-.4,1.592,1.592,0,0,0-.84.215,1.565,1.565,0,0,0-.566.6q0,.148.008.254t.008.215V0h-2.273V-5.023a2.376,2.376,0,0,0-.312-1.4,1.1,1.1,0,0,0-.937-.41,1.769,1.769,0,0,0-.809.176,1.551,1.551,0,0,0-.574.5V0h-2.273V-8.453ZM-33.434,0a4.8,4.8,0,0,1-.215-.609,4.239,4.239,0,0,1-.129-.656,3.127,3.127,0,0,1-.93,1.023,2.33,2.33,0,0,1-1.375.406A2.855,2.855,0,0,1-38.129-.52a2.449,2.449,0,0,1-.719-1.863,2.229,2.229,0,0,1,.957-1.926A4.78,4.78,0,0,1-35.1-4.992h1.281v-.672a1.315,1.315,0,0,0-.32-.945,1.257,1.257,0,0,0-.953-.336,1.239,1.239,0,0,0-.855.27.941.941,0,0,0-.3.738h-2.2l-.016-.047a2.144,2.144,0,0,1,.934-1.848,4.055,4.055,0,0,1,2.582-.777,3.784,3.784,0,0,1,2.465.766,2.667,2.667,0,0,1,.941,2.2v3.492a6.6,6.6,0,0,0,.09,1.117A5.606,5.606,0,0,0-31.16,0ZM-35.52-1.523a1.944,1.944,0,0,0,1.063-.3,1.6,1.6,0,0,0,.641-.687V-3.7H-35.1a1.519,1.519,0,0,0-1.1.359,1.181,1.181,0,0,0-.371.883.881.881,0,0,0,.277.684A1.1,1.1,0,0,0-35.52-1.523Zm10.266-.82a.787.787,0,0,0-.363-.645,3.69,3.69,0,0,0-1.348-.473,5.375,5.375,0,0,1-2.254-.9,1.962,1.962,0,0,1-.77-1.633,2.329,2.329,0,0,1,.922-1.852,3.717,3.717,0,0,1,2.453-.766,4.011,4.011,0,0,1,2.566.766,2.237,2.237,0,0,1,.926,1.906l-.016.047h-2.2a1.106,1.106,0,0,0-.328-.828,1.3,1.3,0,0,0-.945-.32,1.292,1.292,0,0,0-.867.273.85.85,0,0,0-.32.672.759.759,0,0,0,.332.637,3.7,3.7,0,0,0,1.348.441A5.484,5.484,0,0,1-23.8-4.1a2.014,2.014,0,0,1,.762,1.668A2.231,2.231,0,0,1-24.02-.562,4.215,4.215,0,0,1-26.6.164a3.918,3.918,0,0,1-2.668-.855A2.392,2.392,0,0,1-30.2-2.641l.016-.047H-28.1a1.186,1.186,0,0,0,.445.984,1.838,1.838,0,0,0,1.1.3,1.567,1.567,0,0,0,.965-.254A.824.824,0,0,0-25.254-2.344Zm7.313-1.812a5.493,5.493,0,0,1,.863-3.227,2.8,2.8,0,0,1,2.434-1.227,2.367,2.367,0,0,1,1.141.273,2.744,2.744,0,0,1,.891.781v-4.633h2.289V0H-12.27l-.2-1.039a2.826,2.826,0,0,1-.945.895,2.5,2.5,0,0,1-1.25.309A2.858,2.858,0,0,1-17.078-.977a4.871,4.871,0,0,1-.863-3.016Zm2.273.164a3.443,3.443,0,0,0,.375,1.746,1.306,1.306,0,0,0,1.219.637,1.775,1.775,0,0,0,.859-.2,1.589,1.589,0,0,0,.6-.582v-3.6a1.756,1.756,0,0,0-.6-.621,1.589,1.589,0,0,0-.848-.223,1.287,1.287,0,0,0-1.223.742,4.194,4.194,0,0,0-.387,1.938ZM-4.895.164A3.8,3.8,0,0,1-7.848-1,4.252,4.252,0,0,1-8.91-3.984V-4.3A4.628,4.628,0,0,1-7.879-7.406a3.506,3.506,0,0,1,2.836-1.2A3.282,3.282,0,0,1-2.43-7.566a4.122,4.122,0,0,1,.91,2.809v1.18H-6.559l-.023.047a2.284,2.284,0,0,0,.527,1.406,1.766,1.766,0,0,0,1.4.539,4.692,4.692,0,0,0,1.3-.156,5.307,5.307,0,0,0,1.105-.477l.617,1.406A4.234,4.234,0,0,1-3-.117,6.1,6.1,0,0,1-4.895.164Zm-.148-7.016A1.267,1.267,0,0,0-6.1-6.379a2.371,2.371,0,0,0-.449,1.254l.016.039h2.781v-.172a1.974,1.974,0,0,0-.3-1.168A1.127,1.127,0,0,0-5.043-6.852ZM6.191,0H3.91V-8.453H6.191Zm0-10.477H3.91v-1.711H6.191Zm3.961,2.023.1,1.211A3.092,3.092,0,0,1,11.293-8.25a2.7,2.7,0,0,1,1.383-.359,2.513,2.513,0,0,1,2,.824,3.908,3.908,0,0,1,.719,2.605V0H13.105V-5.172a2.024,2.024,0,0,0-.316-1.285,1.166,1.166,0,0,0-.949-.379,1.992,1.992,0,0,0-.895.191,1.746,1.746,0,0,0-.637.527V0H8.027V-8.453ZM17.691,0V-6.852H16.434v-1.6h1.258v-.937a2.859,2.859,0,0,1,.82-2.191,3.239,3.239,0,0,1,2.3-.77,4.168,4.168,0,0,1,.59.043q.3.043.66.121l-.2,1.7q-.187-.031-.363-.055a3.144,3.144,0,0,0-.41-.023,1.1,1.1,0,0,0-.84.3,1.234,1.234,0,0,0-.285.875v.938H21.6v1.6H19.973V0Zm4.633-4.3a4.536,4.536,0,0,1,1.055-3.1A3.676,3.676,0,0,1,26.3-8.609a3.715,3.715,0,0,1,2.938,1.2A4.512,4.512,0,0,1,30.3-4.3v.164a4.519,4.519,0,0,1-1.059,3.105,3.7,3.7,0,0,1-2.926,1.2,3.709,3.709,0,0,1-2.934-1.2,4.519,4.519,0,0,1-1.059-3.105Zm2.273.164A3.677,3.677,0,0,0,25-2.285a1.4,1.4,0,0,0,1.313.7,1.389,1.389,0,0,0,1.293-.7,3.653,3.653,0,0,0,.41-1.852V-4.3a3.616,3.616,0,0,0-.414-1.836,1.4,1.4,0,0,0-1.3-.711,1.384,1.384,0,0,0-1.293.715A3.648,3.648,0,0,0,24.6-4.3ZM36.152-6.492l-.836-.023a1.519,1.519,0,0,0-.836.211,1.337,1.337,0,0,0-.5.594V0H31.707V-8.453h2.117l.1,1.25a2.667,2.667,0,0,1,.77-1.035,1.715,1.715,0,0,1,1.09-.371,1.705,1.705,0,0,1,.316.027q.145.027.293.066Zm3.3-1.961.094,1.117a2.84,2.84,0,0,1,1.02-.941,2.932,2.932,0,0,1,1.418-.332,2.582,2.582,0,0,1,1.391.359,2.217,2.217,0,0,1,.875,1.086A2.93,2.93,0,0,1,45.27-8.227a2.756,2.756,0,0,1,1.469-.383,2.408,2.408,0,0,1,1.973.887,4.233,4.233,0,0,1,.723,2.707V0H47.152V-5.023a2.369,2.369,0,0,0-.312-1.414,1.109,1.109,0,0,0-.93-.4,1.592,1.592,0,0,0-.84.215,1.565,1.565,0,0,0-.566.6q0,.148.008.254t.008.215V0H42.246V-5.023a2.376,2.376,0,0,0-.312-1.4A1.1,1.1,0,0,0,41-6.836a1.769,1.769,0,0,0-.809.176,1.551,1.551,0,0,0-.574.5V0H37.34V-8.453ZM56.168,0a4.8,4.8,0,0,1-.215-.609,4.239,4.239,0,0,1-.129-.656,3.127,3.127,0,0,1-.93,1.023A2.33,2.33,0,0,1,53.52.164,2.855,2.855,0,0,1,51.473-.52a2.449,2.449,0,0,1-.719-1.863,2.229,2.229,0,0,1,.957-1.926A4.78,4.78,0,0,1,54.5-4.992h1.281v-.672a1.315,1.315,0,0,0-.32-.945,1.257,1.257,0,0,0-.953-.336,1.239,1.239,0,0,0-.855.27.941.941,0,0,0-.3.738h-2.2l-.016-.047a2.144,2.144,0,0,1,.934-1.848,4.055,4.055,0,0,1,2.582-.777,3.784,3.784,0,0,1,2.465.766,2.667,2.667,0,0,1,.941,2.2v3.492a6.605,6.605,0,0,0,.09,1.117A5.606,5.606,0,0,0,58.441,0ZM54.082-1.523a1.944,1.944,0,0,0,1.063-.3,1.6,1.6,0,0,0,.641-.687V-3.7H54.5a1.519,1.519,0,0,0-1.1.359,1.181,1.181,0,0,0-.371.883.881.881,0,0,0,.277.684A1.1,1.1,0,0,0,54.082-1.523Zm9.227-.062a1.27,1.27,0,0,0,.945-.355,1.291,1.291,0,0,0,.352-.949h2.078l.016.047A2.645,2.645,0,0,1,65.746-.7a3.564,3.564,0,0,1-2.437.863,3.6,3.6,0,0,1-2.9-1.2A4.558,4.558,0,0,1,59.387-4.1v-.234A4.588,4.588,0,0,1,60.406-7.4a3.57,3.57,0,0,1,2.887-1.207,3.486,3.486,0,0,1,2.492.891A2.976,2.976,0,0,1,66.7-5.375l-.016.047H64.605a1.687,1.687,0,0,0-.348-1.09,1.168,1.168,0,0,0-.965-.434,1.3,1.3,0,0,0-1.254.707,3.878,3.878,0,0,0-.371,1.809V-4.1a3.863,3.863,0,0,0,.371,1.82A1.32,1.32,0,0,0,63.309-1.586ZM70.426,0H68.145V-8.453h2.281Zm0-10.477H68.145v-1.711h2.281ZM71.949-4.3A4.536,4.536,0,0,1,73-7.4a3.676,3.676,0,0,1,2.922-1.207,3.715,3.715,0,0,1,2.938,1.2,4.512,4.512,0,0,1,1.063,3.1v.164a4.519,4.519,0,0,1-1.059,3.105,3.7,3.7,0,0,1-2.926,1.2,3.709,3.709,0,0,1-2.934-1.2,4.519,4.519,0,0,1-1.059-3.105Zm2.273.164a3.677,3.677,0,0,0,.406,1.855,1.4,1.4,0,0,0,1.313.7,1.389,1.389,0,0,0,1.293-.7,3.653,3.653,0,0,0,.41-1.852V-4.3a3.616,3.616,0,0,0-.414-1.836,1.4,1.4,0,0,0-1.3-.711,1.384,1.384,0,0,0-1.293.715,3.648,3.648,0,0,0-.41,1.832Zm2.164-7.922h2.539l.016.047L76.777-9.984H74.832Zm7.031,3.609.1,1.211A3.092,3.092,0,0,1,84.559-8.25a2.7,2.7,0,0,1,1.383-.359,2.513,2.513,0,0,1,2,.824A3.908,3.908,0,0,1,88.66-5.18V0H86.371V-5.172a2.024,2.024,0,0,0-.316-1.285,1.166,1.166,0,0,0-.949-.379,1.992,1.992,0,0,0-.895.191,1.746,1.746,0,0,0-.637.527V0H81.293V-8.453Z" transform="translate(416 3254)" fill="#12263f"/>
    <path id="Trazado_886032" data-name="Trazado 886032" d="M3,0H53a3,3,0,0,1,3,3V49a3,3,0,0,1-3,3H3a3,3,0,0,1-3-3V3A3,3,0,0,1,3,0Z" transform="translate(256 3221)" fill="#3a1d71"/>
    <g id="chart_11787052-3" data-name="chart_11787052" transform="translate(264.879 3228.309)">
      <path id="Trazado_878170-3" data-name="Trazado 878170" d="M4.36,8.577V6.411A3.561,3.561,0,0,1,7.913,2.85h18.1a3.245,3.245,0,0,1,1.1.178,7.463,7.463,0,0,0-5.824,7.3,6.748,6.748,0,0,0,.105,1.225v.138a7.463,7.463,0,0,0,7.3,6.1,6.7,6.7,0,0,0,.811-.049V33.6a3.553,3.553,0,0,1-3.553,3.553H7.913A3.553,3.553,0,0,1,4.36,33.6V16.566" transform="translate(-0.189 -0.198)" fill="#f0f0f0"/>
      <path id="Trazado_878171-3" data-name="Trazado 878171" d="M25.829,37.776H7.724A4.372,4.372,0,0,1,3.36,33.412V16.378a.811.811,0,1,1,1.622,0V33.412a2.75,2.75,0,0,0,2.742,2.742h18.1a2.75,2.75,0,0,0,2.742-2.742V18.4a8.274,8.274,0,0,1-8.111-6.765v-.154a7.819,7.819,0,0,1-.114-1.355,8.306,8.306,0,0,1,3.366-6.651H7.724a2.75,2.75,0,0,0-2.742,2.75V8.388a.811.811,0,0,1-1.622,0V6.222A4.364,4.364,0,0,1,7.724,1.85h18.1a4.186,4.186,0,0,1,1.371.219.807.807,0,0,1-.1,1.549,6.7,6.7,0,0,0-5.191,6.489A6.278,6.278,0,0,0,22,11.178l-.771.292.811-.154a6.651,6.651,0,0,0,6.546,5.443,5.19,5.19,0,0,0,.714-.049.821.821,0,0,1,.908.811v15.89A4.372,4.372,0,0,1,25.829,37.776Z" transform="translate(0 -0.009)"/>
      <path id="Trazado_878172-3" data-name="Trazado 878172" d="M4.171,15.827a.811.811,0,0,1-.811-.811V13.491a.811.811,0,1,1,1.622,0v1.525A.811.811,0,0,1,4.171,15.827Z" transform="translate(0 -2.055)"/>
      <path id="Trazado_878173-3" data-name="Trazado 878173" d="M25.408,37.15l1,5.6L33.52,32.38l-5.589,1.087a3.18,3.18,0,0,0-2.523,3.683Z" transform="translate(-4.154 -5.775)" fill="#64c8f0"/>
      <path id="Trazado_878174-3" data-name="Trazado 878174" d="M26.217,43.374h-.17a.811.811,0,0,1-.625-.649L24.416,37.12A4,4,0,0,1,27.587,32.5l5.589-1.087a.814.814,0,0,1,.811,1.257l-7.1,10.35A.811.811,0,0,1,26.217,43.374Zm-.2-6.554.657,3.658,4.867-7.106-3.642.706a2.377,2.377,0,0,0-1.882,2.742Z" transform="translate(-3.965 -5.591)"/>
      <rect id="Rectángulo_402924-3" data-name="Rectángulo 402924" width="3.277" height="14.901" rx="1.05" transform="translate(8.916 7.227)" fill="#fa6450"/>
      <path id="Trazado_878175-3" data-name="Trazado 878175" d="M12.454,24.012H10.872A1.622,1.622,0,0,1,9.25,22.39V9.152A1.622,1.622,0,0,1,10.872,7.53h1.582a1.663,1.663,0,0,1,1.663,1.622V22.358a1.622,1.622,0,0,1-1.663,1.655ZM10.872,9.12V22.358h1.663V9.152Z" transform="translate(-1.112 -1.082)"/>
      <rect id="Rectángulo_402925-3" data-name="Rectángulo 402925" width="3.277" height="12.021" rx="1.05" transform="translate(14.643 10.106)" fill="#3cc8b4"/>
      <path id="Trazado_878176-3" data-name="Trazado 878176" d="M19.515,24.683H17.933A1.622,1.622,0,0,1,16.27,23.06V12.7a1.622,1.622,0,0,1,1.663-1.622h1.582A1.622,1.622,0,0,1,21.137,12.7V23.028a1.622,1.622,0,0,1-1.622,1.655ZM17.933,12.637,17.892,23h1.622V12.7Z" transform="translate(-2.438 -1.752)"/>
      <rect id="Rectángulo_402926-3" data-name="Rectángulo 402926" width="3.277" height="4.023" rx="1.05" transform="translate(20.37 18.104)" fill="#fab400"/>
      <path id="Trazado_878177-3" data-name="Trazado 878177" d="M26.575,26.545H24.993a1.622,1.622,0,0,1-1.663-1.622v-2.36a1.622,1.622,0,0,1,1.663-1.622h1.582a1.622,1.622,0,0,1,1.663,1.622V24.89a1.622,1.622,0,0,1-1.663,1.655Zm-1.582-4.056-.041,2.36h1.663V22.562Z" transform="translate(-3.771 -3.615)"/>
      <path id="Trazado_878178-3" data-name="Trazado 878178" d="M14.625,32.072H8.411a.811.811,0,0,1,0-1.622h6.213a.811.811,0,0,1,0,1.622Z" transform="translate(-0.801 -5.411)"/>
      <path id="Trazado_878179-3" data-name="Trazado 878179" d="M20.914,32.072H19.421a.811.811,0,0,1,0-1.622h1.493a.811.811,0,1,1,0,1.622Z" transform="translate(-2.88 -5.411)"/>
      <path id="Trazado_878180-3" data-name="Trazado 878180" d="M14.625,39.712H8.411a.811.811,0,1,1,0-1.622h6.213a.811.811,0,1,1,0,1.622Z" transform="translate(-0.801 -6.854)"/>
      <path id="Trazado_878181-3" data-name="Trazado 878181" d="M20.914,39.712H19.421a.811.811,0,0,1,0-1.622h1.493a.811.811,0,1,1,0,1.622Z" transform="translate(-2.88 -6.854)"/>
      <path id="Trazado_878182-3" data-name="Trazado 878182" d="M19.373,35.722H12.681a.811.811,0,0,1,0-1.622h6.692a.811.811,0,1,1,0,1.622Z" transform="translate(-1.607 -6.1)"/>
      <path id="Trazado_878183-3" data-name="Trazado 878183" d="M9.252,35.672H8.441a.811.811,0,1,1,0-1.622h.811a.811.811,0,1,1,0,1.622Z" transform="translate(-0.806 -6.091)"/>
      <path id="Trazado_878184-3" data-name="Trazado 878184" d="M40.174,10.3a6.814,6.814,0,0,1-.13,1.363,7.236,7.236,0,0,1-.495,1.622,7.454,7.454,0,0,1-3.139,3.464,7.3,7.3,0,0,1-2.9.941,6.7,6.7,0,0,1-.811.049,7.463,7.463,0,0,1-7.3-6.1V11.5a6.748,6.748,0,0,1-.105-1.225,7.463,7.463,0,0,1,5.824-7.3,7.3,7.3,0,0,1,1.622-.187A7.463,7.463,0,0,1,40.174,10.3Z" transform="translate(-4.142 -0.187)" fill="#64c8f0"/>
      <path id="Trazado_878185-3" data-name="Trazado 878185" d="M32.525,18.388a8.274,8.274,0,0,1-8.111-6.765v-.154a7.819,7.819,0,0,1-.114-1.355A8.33,8.33,0,0,1,30.789,2a8.111,8.111,0,0,1,1.825-.2,8.29,8.29,0,0,1,8.274,8.282,7.519,7.519,0,0,1-.146,1.517,7.552,7.552,0,0,1-.552,1.776,8.306,8.306,0,0,1-3.455,3.877,8.622,8.622,0,0,1-4.121,1.1Zm-6.546-7.065a6.651,6.651,0,0,0,6.546,5.443,5.192,5.192,0,0,0,.714-.049,6.489,6.489,0,0,0,2.6-.811,6.627,6.627,0,0,0,2.823-3.147,6.3,6.3,0,0,0,.446-1.436,6.432,6.432,0,0,0,.114-1.209,6.659,6.659,0,0,0-6.651-6.659,6.367,6.367,0,0,0-1.468.162,6.7,6.7,0,0,0-5.191,6.489A6.278,6.278,0,0,0,26,11.177l-.771.292Z" transform="translate(-3.955 0)"/>
      <path id="Trazado_878186-3" data-name="Trazado 878186" d="M34.147,16.7a1.225,1.225,0,0,1-1.217-1.217V11.427a1.217,1.217,0,0,1,2.433,0v4.056A1.217,1.217,0,0,1,34.147,16.7Z" transform="translate(-5.584 -1.588)"/>
      <path id="Trazado_878187-3" data-name="Trazado 878187" d="M34.179,8.416a1.225,1.225,0,0,1-.86-.357l-.073-.081a1.209,1.209,0,0,1,0-1.72,1.225,1.225,0,0,1,1.72,0l.073.081a1.209,1.209,0,0,1,0,1.72,1.225,1.225,0,0,1-.86.357Z" transform="translate(-5.576 -0.775)"/>
    </g>
    <path id="Trazado_886033" data-name="Trazado 886033" d="M3,0H164a3,3,0,0,1,3,3V42a3,3,0,0,1-3,3H3a3,3,0,0,1-3-3V3A3,3,0,0,1,3,0Z" transform="translate(632 3456)" fill="#3a1d71"/>
    <path id="Trazado_886034" data-name="Trazado 886034" d="M-33.129-2.867a1.711,1.711,0,0,0-.555-1.3,4.62,4.62,0,0,0-1.953-.891A6.5,6.5,0,0,1-38.344-6.32a2.655,2.655,0,0,1-.973-2.1,2.8,2.8,0,0,1,1.047-2.227,4.05,4.05,0,0,1,2.719-.891,3.971,3.971,0,0,1,2.863,1.02,3.088,3.088,0,0,1,1.035,2.379l-.023.047h-1.469a2.1,2.1,0,0,0-.676-1.6,2.431,2.431,0,0,0-1.73-.633A2.37,2.37,0,0,0-37.2-9.8a1.754,1.754,0,0,0-.574,1.359,1.518,1.518,0,0,0,.629,1.238,5.8,5.8,0,0,0,2.043.871,5.8,5.8,0,0,1,2.617,1.313,2.857,2.857,0,0,1,.9,2.141A2.657,2.657,0,0,1-32.672-.672,4.491,4.491,0,0,1-35.5.164a4.8,4.8,0,0,1-2.91-.922,2.81,2.81,0,0,1-1.223-2.469l.016-.047h1.469a1.912,1.912,0,0,0,.813,1.652,3.076,3.076,0,0,0,1.836.582,2.761,2.761,0,0,0,1.73-.492A1.6,1.6,0,0,0-33.129-2.867ZM-26.121.164A3.576,3.576,0,0,1-28.961-1a4.48,4.48,0,0,1-1.02-3.062v-.344A4.386,4.386,0,0,1-28.93-7.418a3.3,3.3,0,0,1,2.566-1.191A3.067,3.067,0,0,1-23.82-7.555a4.345,4.345,0,0,1,.848,2.8v.813h-5.406L-28.4-3.9a3.494,3.494,0,0,0,.563,2.066,1.965,1.965,0,0,0,1.719.793,3.872,3.872,0,0,0,1.371-.223,3.061,3.061,0,0,0,1.012-.613l.6,1a3.7,3.7,0,0,1-1.2.738A4.762,4.762,0,0,1-26.121.164ZM-26.363-7.4a1.673,1.673,0,0,0-1.332.621,2.938,2.938,0,0,0-.645,1.59l.016.039h3.813v-.125A2.462,2.462,0,0,0-24.965-6.8,1.638,1.638,0,0,0-26.363-7.4Zm8.477,6.359a1.81,1.81,0,0,0,1.242-.473,1.494,1.494,0,0,0,.531-1.16h1.391l.023.047a2.428,2.428,0,0,1-.937,1.941,3.313,3.313,0,0,1-2.25.848,3.319,3.319,0,0,1-2.75-1.211,4.674,4.674,0,0,1-.969-3.016v-.328a4.654,4.654,0,0,1,.973-3,3.317,3.317,0,0,1,2.746-1.215,3.189,3.189,0,0,1,2.316.875A2.775,2.775,0,0,1-14.7-5.586l-.016.047h-1.4a1.865,1.865,0,0,0-.5-1.316,1.658,1.658,0,0,0-1.27-.543,1.777,1.777,0,0,0-1.652.879,4.114,4.114,0,0,0-.52,2.129v.328a4.192,4.192,0,0,0,.512,2.148A1.776,1.776,0,0,0-17.887-1.039ZM-7.5-1.25A2.863,2.863,0,0,1-8.527-.2,2.8,2.8,0,0,1-9.973.164a2.716,2.716,0,0,1-2.156-.883,4.1,4.1,0,0,1-.773-2.75V-8.453h1.539v5a3.147,3.147,0,0,0,.4,1.859,1.481,1.481,0,0,0,1.242.508,2.531,2.531,0,0,0,1.355-.332,2.077,2.077,0,0,0,.809-.941V-8.453H-6.02V0H-7.4Zm5.1-7.2L-2.293-7.2A3.069,3.069,0,0,1-1.234-8.238,2.824,2.824,0,0,1,.215-8.609a2.759,2.759,0,0,1,2.117.8,3.515,3.515,0,0,1,.75,2.473V0H1.543V-5.3A2.287,2.287,0,0,0,1.1-6.891,1.768,1.768,0,0,0-.246-7.359a2.386,2.386,0,0,0-1.207.285,2.072,2.072,0,0,0-.785.8V0H-3.777V-8.453ZM4.965-4.07a5.641,5.641,0,0,1,.871-3.289,2.807,2.807,0,0,1,2.441-1.25,3.027,3.027,0,0,1,1.316.273,2.7,2.7,0,0,1,.98.8v-4.648h1.539V0h-1.18L10.7-1.07a2.743,2.743,0,0,1-1.023.922A3.058,3.058,0,0,1,8.262.164,2.9,2.9,0,0,1,5.84-.957a4.659,4.659,0,0,1-.875-2.949ZM6.5-3.906a3.588,3.588,0,0,0,.523,2.051,1.828,1.828,0,0,0,1.625.77A2.039,2.039,0,0,0,9.809-1.4a2.334,2.334,0,0,0,.766-.875V-6.219a2.37,2.37,0,0,0-.77-.832,2.033,2.033,0,0,0-1.137-.309,1.759,1.759,0,0,0-1.637.914A4.718,4.718,0,0,0,6.5-4.07ZM19.605,0q-.078-.383-.121-.676a4.96,4.96,0,0,1-.051-.59,3.589,3.589,0,0,1-1.121,1.02,2.867,2.867,0,0,1-1.488.41,2.763,2.763,0,0,1-2.012-.676,2.486,2.486,0,0,1-.691-1.863A2.183,2.183,0,0,1,15.1-4.27a4.579,4.579,0,0,1,2.66-.684h1.672v-.836a1.551,1.551,0,0,0-.453-1.176A1.779,1.779,0,0,0,17.7-7.4a1.859,1.859,0,0,0-1.211.375,1.125,1.125,0,0,0-.461.9l-1.461.016-.016-.047a2.023,2.023,0,0,1,.863-1.687,3.578,3.578,0,0,1,2.371-.766,3.49,3.49,0,0,1,2.313.73,2.588,2.588,0,0,1,.875,2.105V-1.7a7.923,7.923,0,0,0,.047.875A4.5,4.5,0,0,0,21.191,0ZM17.051-1.125a2.739,2.739,0,0,0,1.508-.43,2.042,2.042,0,0,0,.875-.984V-3.914H17.707a2.24,2.24,0,0,0-1.488.469,1.4,1.4,0,0,0-.559,1.1,1.159,1.159,0,0,0,.352.891A1.472,1.472,0,0,0,17.051-1.125ZM27.207-7.094l-.789-.047a1.762,1.762,0,0,0-1.027.289,1.854,1.854,0,0,0-.645.813V0H23.207V-8.453h1.375l.148,1.234a2.934,2.934,0,0,1,.887-1.023,2.073,2.073,0,0,1,1.215-.367,1.9,1.9,0,0,1,.328.027,2.175,2.175,0,0,1,.258.059ZM30.473,0H28.934V-8.453h1.539Zm0-10.617H28.934v-1.57h1.539ZM38.035,0q-.078-.383-.121-.676a4.96,4.96,0,0,1-.051-.59,3.589,3.589,0,0,1-1.121,1.02,2.867,2.867,0,0,1-1.488.41,2.763,2.763,0,0,1-2.012-.676,2.486,2.486,0,0,1-.691-1.863,2.183,2.183,0,0,1,.98-1.895,4.579,4.579,0,0,1,2.66-.684h1.672v-.836a1.551,1.551,0,0,0-.453-1.176A1.779,1.779,0,0,0,36.129-7.4a1.859,1.859,0,0,0-1.211.375,1.125,1.125,0,0,0-.461.9L33-6.109l-.016-.047a2.023,2.023,0,0,1,.863-1.687,3.578,3.578,0,0,1,2.371-.766,3.49,3.49,0,0,1,2.313.73A2.588,2.588,0,0,1,39.4-5.773V-1.7a7.923,7.923,0,0,0,.047.875A4.5,4.5,0,0,0,39.621,0ZM35.48-1.125a2.739,2.739,0,0,0,1.508-.43,2.042,2.042,0,0,0,.875-.984V-3.914H36.137a2.24,2.24,0,0,0-1.488.469,1.4,1.4,0,0,0-.559,1.1,1.159,1.159,0,0,0,.352.891A1.472,1.472,0,0,0,35.48-1.125Z" transform="translate(716 3485)" fill="#fff"/>
    <path id="Trazado_886035" data-name="Trazado 886035" d="M3,0H164a3,3,0,0,1,3,3V49a3,3,0,0,1-3,3H3a3,3,0,0,1-3-3V3A3,3,0,0,1,3,0Z" transform="translate(632 3579.205)" fill="#f0c518"/>
    <path id="Trazado_886036" data-name="Trazado 886036" d="M-30.434-3.086l.141.625h.047l.133-.6,2.477-8.312h2.406L-29.1,0h-2.344L-35.3-11.375h2.406ZM-19.676,0a4.8,4.8,0,0,1-.215-.609,4.239,4.239,0,0,1-.129-.656,3.127,3.127,0,0,1-.93,1.023,2.33,2.33,0,0,1-1.375.406A2.855,2.855,0,0,1-24.371-.52a2.449,2.449,0,0,1-.719-1.863,2.229,2.229,0,0,1,.957-1.926,4.78,4.78,0,0,1,2.793-.684h1.281v-.672a1.315,1.315,0,0,0-.32-.945,1.257,1.257,0,0,0-.953-.336,1.239,1.239,0,0,0-.855.27.941.941,0,0,0-.3.738h-2.2l-.016-.047a2.144,2.144,0,0,1,.934-1.848,4.055,4.055,0,0,1,2.582-.777,3.784,3.784,0,0,1,2.465.766,2.667,2.667,0,0,1,.941,2.2v3.492a6.6,6.6,0,0,0,.09,1.117A5.606,5.606,0,0,0-17.4,0Zm-2.086-1.523a1.944,1.944,0,0,0,1.063-.3,1.6,1.6,0,0,0,.641-.687V-3.7H-21.34a1.519,1.519,0,0,0-1.1.359,1.181,1.181,0,0,0-.371.883.881.881,0,0,0,.277.684A1.1,1.1,0,0,0-21.762-1.523ZM-13.668,0h-2.281V-12.187h2.281Zm4.273,0h-2.281V-8.453h2.281Zm0-10.477h-2.281v-1.711h2.281Zm1.523,6.32a5.493,5.493,0,0,1,.863-3.227A2.8,2.8,0,0,1-4.574-8.609a2.367,2.367,0,0,1,1.141.273,2.744,2.744,0,0,1,.891.781v-4.633H-.254V0H-2.2l-.2-1.039a2.826,2.826,0,0,1-.945.895A2.5,2.5,0,0,1-4.59.164,2.858,2.858,0,0,1-7.008-.977a4.871,4.871,0,0,1-.863-3.016Zm2.273.164a3.443,3.443,0,0,0,.375,1.746A1.306,1.306,0,0,0-4-1.609a1.775,1.775,0,0,0,.859-.2,1.589,1.589,0,0,0,.6-.582v-3.6a1.756,1.756,0,0,0-.6-.621,1.589,1.589,0,0,0-.848-.223,1.287,1.287,0,0,0-1.223.742A4.194,4.194,0,0,0-5.6-4.156ZM6.5,0a4.8,4.8,0,0,1-.215-.609,4.239,4.239,0,0,1-.129-.656,3.127,3.127,0,0,1-.93,1.023A2.33,2.33,0,0,1,3.848.164,2.855,2.855,0,0,1,1.8-.52a2.449,2.449,0,0,1-.719-1.863,2.229,2.229,0,0,1,.957-1.926,4.78,4.78,0,0,1,2.793-.684H6.113v-.672a1.315,1.315,0,0,0-.32-.945,1.257,1.257,0,0,0-.953-.336,1.239,1.239,0,0,0-.855.27.941.941,0,0,0-.3.738h-2.2l-.016-.047a2.144,2.144,0,0,1,.934-1.848,4.055,4.055,0,0,1,2.582-.777,3.784,3.784,0,0,1,2.465.766,2.667,2.667,0,0,1,.941,2.2v3.492a6.6,6.6,0,0,0,.09,1.117A5.606,5.606,0,0,0,8.77,0ZM4.41-1.523a1.944,1.944,0,0,0,1.063-.3,1.6,1.6,0,0,0,.641-.687V-3.7H4.832a1.519,1.519,0,0,0-1.1.359,1.181,1.181,0,0,0-.371.883.881.881,0,0,0,.277.684A1.1,1.1,0,0,0,4.41-1.523ZM14.551-6.492l-.836-.023a1.519,1.519,0,0,0-.836.211,1.337,1.337,0,0,0-.5.594V0H10.105V-8.453h2.117l.1,1.25a2.667,2.667,0,0,1,.77-1.035,1.715,1.715,0,0,1,1.09-.371,1.705,1.705,0,0,1,.316.027q.145.027.293.066Zm9.742,4.148a.787.787,0,0,0-.363-.645,3.69,3.69,0,0,0-1.348-.473,5.375,5.375,0,0,1-2.254-.9,1.962,1.962,0,0,1-.77-1.633,2.329,2.329,0,0,1,.922-1.852,3.717,3.717,0,0,1,2.453-.766,4.011,4.011,0,0,1,2.566.766,2.237,2.237,0,0,1,.926,1.906l-.016.047h-2.2a1.106,1.106,0,0,0-.328-.828,1.3,1.3,0,0,0-.945-.32,1.292,1.292,0,0,0-.867.273.85.85,0,0,0-.32.672.759.759,0,0,0,.332.637,3.7,3.7,0,0,0,1.348.441,5.484,5.484,0,0,1,2.316.918A2.014,2.014,0,0,1,26.5-2.43a2.231,2.231,0,0,1-.977,1.867,4.215,4.215,0,0,1-2.578.727,3.918,3.918,0,0,1-2.668-.855,2.392,2.392,0,0,1-.934-1.949l.016-.047h2.086a1.186,1.186,0,0,0,.445.984,1.838,1.838,0,0,0,1.1.3,1.567,1.567,0,0,0,.965-.254A.824.824,0,0,0,24.293-2.344ZM30.371,0H28.09V-8.453h2.281Zm0-10.477H28.09v-1.711h2.281Z" transform="translate(742 3612.205)" fill="#12263f"/>
    <path id="Trazado_886037" data-name="Trazado 886037" d="M3,0H53a3,3,0,0,1,3,3V49a3,3,0,0,1-3,3H3a3,3,0,0,1-3-3V3A3,3,0,0,1,3,0Z" transform="translate(632 3579.205)" fill="#3a1d71"/>
    <g id="chart_11787052-4" data-name="chart_11787052" transform="translate(644.239 3588.313)">
      <path id="Trazado_878170-4" data-name="Trazado 878170" d="M4.36,8.577V6.411A3.561,3.561,0,0,1,7.913,2.85h18.1a3.245,3.245,0,0,1,1.1.178,7.463,7.463,0,0,0-5.824,7.3,6.748,6.748,0,0,0,.105,1.225v.138a7.463,7.463,0,0,0,7.3,6.1,6.7,6.7,0,0,0,.811-.049V33.6a3.553,3.553,0,0,1-3.553,3.553H7.913A3.553,3.553,0,0,1,4.36,33.6V16.566" transform="translate(-3.549 -1.998)" fill="#f0f0f0"/>
      <path id="Trazado_878171-4" data-name="Trazado 878171" d="M25.829,37.776H7.724A4.372,4.372,0,0,1,3.36,33.412V16.378a.811.811,0,1,1,1.622,0V33.412a2.75,2.75,0,0,0,2.742,2.742h18.1a2.75,2.75,0,0,0,2.742-2.742V18.4a8.274,8.274,0,0,1-8.111-6.765v-.154a7.819,7.819,0,0,1-.114-1.355,8.306,8.306,0,0,1,3.366-6.651H7.724a2.75,2.75,0,0,0-2.742,2.75V8.388a.811.811,0,0,1-1.622,0V6.222A4.364,4.364,0,0,1,7.724,1.85h18.1a4.186,4.186,0,0,1,1.371.219.807.807,0,0,1-.1,1.549,6.7,6.7,0,0,0-5.191,6.489A6.278,6.278,0,0,0,22,11.178l-.771.292.811-.154a6.651,6.651,0,0,0,6.546,5.443,5.19,5.19,0,0,0,.714-.049.821.821,0,0,1,.908.811v15.89A4.372,4.372,0,0,1,25.829,37.776Z" transform="translate(-3.36 -1.809)"/>
      <path id="Trazado_878172-4" data-name="Trazado 878172" d="M4.171,15.827a.811.811,0,0,1-.811-.811V13.491a.811.811,0,1,1,1.622,0v1.525A.811.811,0,0,1,4.171,15.827Z" transform="translate(-3.36 -3.855)"/>
      <path id="Trazado_878173-4" data-name="Trazado 878173" d="M25.408,37.15l1,5.6L33.52,32.38l-5.589,1.087a3.18,3.18,0,0,0-2.523,3.683Z" transform="translate(-7.514 -7.575)" fill="#64c8f0"/>
      <path id="Trazado_878174-4" data-name="Trazado 878174" d="M26.217,43.374h-.17a.811.811,0,0,1-.625-.649L24.416,37.12A4,4,0,0,1,27.587,32.5l5.589-1.087a.814.814,0,0,1,.811,1.257l-7.1,10.35A.811.811,0,0,1,26.217,43.374Zm-.2-6.554.657,3.658,4.867-7.106-3.642.706a2.377,2.377,0,0,0-1.882,2.742Z" transform="translate(-7.325 -7.391)"/>
      <rect id="Rectángulo_402924-4" data-name="Rectángulo 402924" width="3.277" height="14.901" rx="1.05" transform="translate(5.556 5.427)" fill="#fa6450"/>
      <path id="Trazado_878175-4" data-name="Trazado 878175" d="M12.454,24.012H10.872A1.622,1.622,0,0,1,9.25,22.39V9.152A1.622,1.622,0,0,1,10.872,7.53h1.582a1.663,1.663,0,0,1,1.663,1.622V22.358a1.622,1.622,0,0,1-1.663,1.655ZM10.872,9.12V22.358h1.663V9.152Z" transform="translate(-4.472 -2.882)"/>
      <rect id="Rectángulo_402925-4" data-name="Rectángulo 402925" width="3.277" height="12.021" rx="1.05" transform="translate(11.283 8.306)" fill="#3cc8b4"/>
      <path id="Trazado_878176-4" data-name="Trazado 878176" d="M19.515,24.683H17.933A1.622,1.622,0,0,1,16.27,23.06V12.7a1.622,1.622,0,0,1,1.663-1.622h1.582A1.622,1.622,0,0,1,21.137,12.7V23.028a1.622,1.622,0,0,1-1.622,1.655ZM17.933,12.637,17.892,23h1.622V12.7Z" transform="translate(-5.798 -3.552)"/>
      <rect id="Rectángulo_402926-4" data-name="Rectángulo 402926" width="3.277" height="4.023" rx="1.05" transform="translate(17.01 16.304)" fill="#fab400"/>
      <path id="Trazado_878177-4" data-name="Trazado 878177" d="M26.575,26.545H24.993a1.622,1.622,0,0,1-1.663-1.622v-2.36a1.622,1.622,0,0,1,1.663-1.622h1.582a1.622,1.622,0,0,1,1.663,1.622V24.89a1.622,1.622,0,0,1-1.663,1.655Zm-1.582-4.056-.041,2.36h1.663V22.562Z" transform="translate(-7.131 -5.415)"/>
      <path id="Trazado_878178-4" data-name="Trazado 878178" d="M14.625,32.072H8.411a.811.811,0,0,1,0-1.622h6.213a.811.811,0,0,1,0,1.622Z" transform="translate(-4.161 -7.211)"/>
      <path id="Trazado_878179-4" data-name="Trazado 878179" d="M20.914,32.072H19.421a.811.811,0,0,1,0-1.622h1.493a.811.811,0,1,1,0,1.622Z" transform="translate(-6.24 -7.211)"/>
      <path id="Trazado_878180-4" data-name="Trazado 878180" d="M14.625,39.712H8.411a.811.811,0,1,1,0-1.622h6.213a.811.811,0,1,1,0,1.622Z" transform="translate(-4.161 -8.654)"/>
      <path id="Trazado_878181-4" data-name="Trazado 878181" d="M20.914,39.712H19.421a.811.811,0,0,1,0-1.622h1.493a.811.811,0,1,1,0,1.622Z" transform="translate(-6.24 -8.654)"/>
      <path id="Trazado_878182-4" data-name="Trazado 878182" d="M19.373,35.722H12.681a.811.811,0,0,1,0-1.622h6.692a.811.811,0,1,1,0,1.622Z" transform="translate(-4.967 -7.9)"/>
      <path id="Trazado_878183-4" data-name="Trazado 878183" d="M9.252,35.672H8.441a.811.811,0,1,1,0-1.622h.811a.811.811,0,1,1,0,1.622Z" transform="translate(-4.166 -7.891)"/>
      <path id="Trazado_878184-4" data-name="Trazado 878184" d="M40.174,10.3a6.814,6.814,0,0,1-.13,1.363,7.236,7.236,0,0,1-.495,1.622,7.454,7.454,0,0,1-3.139,3.464,7.3,7.3,0,0,1-2.9.941,6.7,6.7,0,0,1-.811.049,7.463,7.463,0,0,1-7.3-6.1V11.5a6.748,6.748,0,0,1-.105-1.225,7.463,7.463,0,0,1,5.824-7.3,7.3,7.3,0,0,1,1.622-.187A7.463,7.463,0,0,1,40.174,10.3Z" transform="translate(-7.502 -1.987)" fill="#64c8f0"/>
      <path id="Trazado_878185-4" data-name="Trazado 878185" d="M32.525,18.388a8.274,8.274,0,0,1-8.111-6.765v-.154a7.819,7.819,0,0,1-.114-1.355A8.33,8.33,0,0,1,30.789,2a8.111,8.111,0,0,1,1.825-.2,8.29,8.29,0,0,1,8.274,8.282,7.519,7.519,0,0,1-.146,1.517,7.552,7.552,0,0,1-.552,1.776,8.306,8.306,0,0,1-3.455,3.877,8.622,8.622,0,0,1-4.121,1.1Zm-6.546-7.065a6.651,6.651,0,0,0,6.546,5.443,5.192,5.192,0,0,0,.714-.049,6.489,6.489,0,0,0,2.6-.811,6.627,6.627,0,0,0,2.823-3.147,6.3,6.3,0,0,0,.446-1.436,6.432,6.432,0,0,0,.114-1.209,6.659,6.659,0,0,0-6.651-6.659,6.367,6.367,0,0,0-1.468.162,6.7,6.7,0,0,0-5.191,6.489A6.278,6.278,0,0,0,26,11.177l-.771.292Z" transform="translate(-7.315 -1.8)"/>
      <path id="Trazado_878186-4" data-name="Trazado 878186" d="M34.147,16.7a1.225,1.225,0,0,1-1.217-1.217V11.427a1.217,1.217,0,0,1,2.433,0v4.056A1.217,1.217,0,0,1,34.147,16.7Z" transform="translate(-8.944 -3.388)"/>
      <path id="Trazado_878187-4" data-name="Trazado 878187" d="M34.179,8.416a1.225,1.225,0,0,1-.86-.357l-.073-.081a1.209,1.209,0,0,1,0-1.72,1.225,1.225,0,0,1,1.72,0l.073.081a1.209,1.209,0,0,1,0,1.72,1.225,1.225,0,0,1-.86.357Z" transform="translate(-8.936 -2.575)"/>
    </g>
  </g>
</svg>
