<svg xmlns="http://www.w3.org/2000/svg" width="62" height="58.109" viewBox="0 0 62 58.109">
  <g id="Grupo_1098872" data-name="Grupo 1098872" transform="translate(-252.955 -631.38)">
    <rect id="Rectángulo_400902" data-name="Rectángulo 400902" width="62" height="58" rx="8" transform="translate(252.955 631.38)" fill="#0b47db"/>
    <g id="scientist_4829628_1_" data-name="scientist_4829628 (1)" transform="translate(195.954 636.539)">
      <g id="Grupo_1103059" data-name="Grupo 1103059" transform="translate(70.515 0.772)">
        <path id="Trazado_885295" data-name="Trazado 885295" d="M125.689,337.212h-3.025v-.922a.827.827,0,0,0-.827-.827H111.495a.827.827,0,0,0-.827.827v.922h-2.831a5.378,5.378,0,0,0-5.378,5.378V352.94l.213-.595h5.185l.481.595h22.728V342.589A5.378,5.378,0,0,0,125.689,337.212Z" transform="translate(-99.851 -301.539)" fill="#f0c518"/>
        <path id="Trazado_885296" data-name="Trazado 885296" d="M77.406,319.258a.658.658,0,0,0-.167.438v7.249h1.787v-5.752a2.157,2.157,0,0,0-1.206-1.935Z" transform="translate(-77.239 -287.01)" fill="#ffb09e"/>
        <path id="Trazado_885297" data-name="Trazado 885297" d="M79.348,317.1a.659.659,0,0,0-.5.224,2.157,2.157,0,0,1,1.206,1.935v5.752h1.448v-5.752A2.159,2.159,0,0,0,79.348,317.1Z" transform="translate(-78.686 -285.071)" fill="#f89580"/>
        <path id="Trazado_885298" data-name="Trazado 885298" d="M106.11,278.817a2.111,2.111,0,0,0,1.182-1.895V262.1a.621.621,0,0,0-.621-.621h-1.537a.621.621,0,0,0-.621.621v14.823a2.109,2.109,0,0,0,1.182,1.895Z" transform="translate(-101.693 -235.207)" fill="#d5daf3"/>
        <path id="Trazado_885299" data-name="Trazado 885299" d="M111.94,24.245h13.95V7.5a13.95,13.95,0,0,0-13.95,13.95Z" transform="translate(-108.351 -7.496)" fill="#5a5a5a"/>
        <path id="Trazado_885300" data-name="Trazado 885300" d="M349,206.914h-2.2v13.128a5.649,5.649,0,0,0,5.649,5.649h1.072a1.131,1.131,0,0,0,1.131-1.131v-12A5.649,5.649,0,0,0,349,206.914Z" transform="translate(-318.921 -186.286)" fill="#5a5a5a"/>
        <path id="Trazado_885301" data-name="Trazado 885301" d="M360.379,206.914H358.1a5.649,5.649,0,0,1,5.649,5.649v13.128h1.655a.621.621,0,0,0,.621-.621V212.563A5.649,5.649,0,0,0,360.379,206.914Z" transform="translate(-329.056 -186.286)" fill="#444"/>
        <path id="Trazado_885302" data-name="Trazado 885302" d="M100.189,165.8H94.275a4.117,4.117,0,0,1-4.117-4.117v-.025a4.117,4.117,0,0,1,4.117-4.117h5.914Z" transform="translate(-88.822 -142.019)" fill="#ffb09e"/>
        <path id="Trazado_885303" data-name="Trazado 885303" d="M308.367,157.542h5.914a4.117,4.117,0,0,1,4.117,4.117v.025a4.117,4.117,0,0,1-4.117,4.117h-5.914Z" transform="translate(-284.463 -142.02)" fill="#f89580"/>
        <path id="Trazado_885304" data-name="Trazado 885304" d="M282.646,336.289v.922h2.275v-.922a.827.827,0,0,0-.827-.827h-2.275A.827.827,0,0,1,282.646,336.289Z" transform="translate(-260.66 -301.539)" fill="#c29b00"/>
        <path id="Trazado_885305" data-name="Trazado 885305" d="M321.339,352.379h-2.275a5.378,5.378,0,0,1,5.378,5.378v10.351h2.275V357.757A5.378,5.378,0,0,0,321.339,352.379Z" transform="translate(-294.053 -316.706)" fill="#c29b00"/>
        <path id="Trazado_885306" data-name="Trazado 885306" d="M141.888,88.209a12.125,12.125,0,0,0,11.264-12.094v-4.3a11.605,11.605,0,1,0-23.191.013v4.3a12.052,12.052,0,0,0,11.927,12.081Z" transform="translate(-124.508 -54.329)" fill="#ffcebf"/>
        <path id="Trazado_885307" data-name="Trazado 885307" d="M237.443,59.462a12.125,12.125,0,0,1,11.1,12.081v4.3a12.125,12.125,0,0,1-11.264,12.094,12.135,12.135,0,0,0,13.233-12.081v-4.3A12.132,12.132,0,0,0,237.443,59.462Z" transform="translate(-220.726 -54.055)" fill="#ffb09e"/>
        <g id="Grupo_1103058" data-name="Grupo 1103058" transform="translate(8.37 24.898)">
          <path id="Trazado_885308" data-name="Trazado 885308" d="M303.373,249.806h-2a.805.805,0,0,1,0-1.61h2a.805.805,0,1,1,0,1.61Z" transform="translate(-285.84 -248.196)" fill="#fe8f83"/>
          <path id="Trazado_885309" data-name="Trazado 885309" d="M160.973,249.806h-2a.805.805,0,1,1,0-1.61h2a.805.805,0,1,1,0,1.61Z" transform="translate(-158.168 -248.196)" fill="#fe8f83"/>
        </g>
        <path id="Trazado_885310" data-name="Trazado 885310" d="M171.167,63.042a9.742,9.742,0,0,0,9.659,8.477h9.132C189.958,63.041,179.264,56.157,171.167,63.042Z" transform="translate(-161.453 -54.771)" fill="#ffb09e"/>
        <path id="Trazado_885311" data-name="Trazado 885311" d="M190.378,9.55v5.727a9.741,9.741,0,0,0,9.741,9.741h9.132V22.341c0-9.741-9.94-16.913-18.873-12.791Z" transform="translate(-178.677 -8.269)" fill="#5a5a5a"/>
        <path id="Trazado_885312" data-name="Trazado 885312" d="M237.861,7.5A14.068,14.068,0,0,1,251,21.532v2.677h1.758a.517.517,0,0,0,.517-.517v-2.16A14.108,14.108,0,0,0,237.861,7.5Z" transform="translate(-221.249 -7.46)" fill="#444"/>
        <path id="Trazado_885313" data-name="Trazado 885313" d="M118.368,261.48h-1.862a.621.621,0,0,1,.621.621v14.823a2.111,2.111,0,0,1-1.182,1.895,2.109,2.109,0,0,0,3.044-1.895V262.1A.62.62,0,0,0,118.368,261.48Z" transform="translate(-111.942 -235.208)" fill="#bec6ed"/>
        <path id="Trazado_885314" data-name="Trazado 885314" d="M95.932,410.3H90.863l-.405,9.738h5.879Z" transform="translate(-89.091 -368.637)" fill="#ffcebf"/>
        <path id="Trazado_885315" data-name="Trazado 885315" d="M139.246,410.3h-1.862l.405,9.738h1.862Z" transform="translate(-131.164 -368.637)" fill="#ffb09e"/>
        <path id="Trazado_885316" data-name="Trazado 885316" d="M84,352.472H79.1a1.862,1.862,0,0,0-1.862,1.862v6.145A1.862,1.862,0,0,0,79.1,362.34h5.141v-.017a1.861,1.861,0,0,0,1.626-1.845v-6.145A1.861,1.861,0,0,0,84,352.472Z" transform="translate(-77.239 -316.789)" fill="#ffcebf"/>
        <path id="Trazado_885317" data-name="Trazado 885317" d="M138.514,352.472h-1.862a1.862,1.862,0,0,1,1.862,1.862v6.145a1.861,1.861,0,0,1-1.626,1.845v.017h1.624a1.862,1.862,0,0,0,1.862-1.862v-6.145A1.861,1.861,0,0,0,138.514,352.472Z" transform="translate(-130.507 -316.789)" fill="#ffb09e"/>
      </g>
      <g id="Grupo_1103060" data-name="Grupo 1103060" transform="translate(69.739 0)">
        <path id="Trazado_885318" data-name="Trazado 885318" d="M221.216,254.48a.776.776,0,0,0-.776.776,1.822,1.822,0,0,1-3.617,0,.776.776,0,1,0-1.551,0,3.367,3.367,0,0,0,6.72,0,.776.776,0,0,0-.776-.776Z" transform="translate(-200.22 -228.161)"/>
        <path id="Trazado_885319" data-name="Trazado 885319" d="M298.413,193.017a.776.776,0,0,0,.776-.776v-1.477a.776.776,0,0,0-.135-1.54h-.641a.776.776,0,0,0-.776.776v2.241A.776.776,0,0,0,298.413,193.017Z" transform="translate(-274.067 -169.655)"/>
        <path id="Trazado_885320" data-name="Trazado 885320" d="M178.1,189.225h-.64a.776.776,0,0,0-.135,1.54v1.477a.776.776,0,1,0,1.551,0V190A.776.776,0,0,0,178.1,189.225Z" transform="translate(-165.624 -169.655)"/>
        <path id="Trazado_885321" data-name="Trazado 885321" d="M105.1,21.517a4.889,4.889,0,0,0-1.79-4.984v-1.69A14.857,14.857,0,0,0,88.5,0h-.028a14.787,14.787,0,0,0-6.58,1.349l0,0a14.722,14.722,0,0,0-3.845,2.577A.776.776,0,0,0,79.1,5.065,13.2,13.2,0,0,1,81.44,3.33V7.217a12.921,12.921,0,0,0-5.967,8.325c-.2.02-.491.073-.595.1v-.914a13.13,13.13,0,0,1,2.037-7.04.776.776,0,0,0-1.31-.83,14.679,14.679,0,0,0-2.278,7.87v1.569a4.892,4.892,0,0,0-2.253,4.116v.025A4.9,4.9,0,0,0,75.483,25.3q.105.486.249.963H73.956a1.4,1.4,0,0,0-1.4,1.4v4.7a2.916,2.916,0,0,0-1.383-.347,1.439,1.439,0,0,0-1.438,1.438v11a2.641,2.641,0,0,0,1.587,2.418l-.219,5.262a.776.776,0,0,0,.775.808H95.566a.776.776,0,0,0,0-1.551H79.746l-.188-4.513a2.642,2.642,0,0,0,1.593-2.245c.011-.164.007.39.007-6.324a2.666,2.666,0,0,0-.238-1.1h.412a.776.776,0,0,0,.776-.776v-.922a.052.052,0,0,1,.052-.052H93.948a.052.052,0,0,1,.052.052v.922a.776.776,0,0,0,.776.776H97.8a4.608,4.608,0,0,1,4.6,4.6V51.4H99.192a.776.776,0,0,0,0,1.551h3.986a.776.776,0,0,0,.776-.776V41.822a6.166,6.166,0,0,0-.063-.875c.54.014,1.375.007,2.977.006a1.4,1.4,0,0,0,1.4-1.4V27.049a6.444,6.444,0,0,0-3.16-5.532Zm-17.157,12.4a11.316,11.316,0,0,1-9.609-5.546v-.71a1.4,1.4,0,0,0-.951-1.324,11.425,11.425,0,0,1-.642-3.729c0-.014,0-.028,0-.041V18.42c0-.37.012-.656.026-.906a11.354,11.354,0,0,1,4.744-8.49,10.541,10.541,0,0,0,7.65,8.895A1.943,1.943,0,0,0,89,18.7v1.562H87.3V18.7a1.957,1.957,0,0,0-1.955-1.955H79.925A1.957,1.957,0,0,0,77.97,18.7v4.675a1.957,1.957,0,0,0,1.955,1.955h5.421A1.957,1.957,0,0,0,87.3,23.374V21.812H89v1.562a1.957,1.957,0,0,0,1.955,1.955h5.421a1.957,1.957,0,0,0,1.955-1.955V18.7a1.957,1.957,0,0,0-.042-.4h1.236c0,4.077.008,4.408-.025,5.015A11.348,11.348,0,0,1,87.946,33.919ZM96.779,18.7v4.675a.4.4,0,0,1-.4.4H90.955a.4.4,0,0,1-.4-.4V18.7a.4.4,0,0,1,.4-.4h5.421A.4.4,0,0,1,96.779,18.7Zm-11.03,4.675a.4.4,0,0,1-.4.4H79.925a.4.4,0,0,1-.4-.4V18.7a.4.4,0,0,1,.4-.4h5.421a.4.4,0,0,1,.4.4Zm17.925-2.938a3.319,3.319,0,0,1-2.646,3.247c.051-.649.047-1.079.047-1.306.008-.839,0-2.016,0-4.082h.944a1.3,1.3,0,0,0,.711-.213,3.323,3.323,0,0,1,.944,2.328v.025ZM88.5,1.551a13.3,13.3,0,0,1,13.263,13.292v1.9h-9.8a8.98,8.98,0,0,1-8.825-7.38c-.184-1.027-.14-1.245-.14-6.806A13.287,13.287,0,0,1,88.47,1.551ZM75.241,23.7a3.347,3.347,0,0,1-2.614-3.262v-.025a3.345,3.345,0,0,1,1.849-2.988,3.289,3.289,0,0,1,.764-.272c-.049.6-.055.871-.05,3.379,0,2.271-.011,2.434.051,3.153,0,.005,0,.011,0,.016Zm-1.13,4.121h2.675v7.859H74.111V27.819ZM71.29,33.576a1.385,1.385,0,0,1,1.27,1.379v.724a2.8,2.8,0,0,0-1.27.234Zm0,4.74a1.087,1.087,0,0,1,1.086-1.086h6.145a1.087,1.087,0,0,1,1.086,1.086V44.46h0a1.091,1.091,0,0,1-1.086,1.085c-6.716,0-6.156.005-6.3-.013a1.086,1.086,0,0,1-.929-1.073V38.316ZM72.869,47.1h5.145c.069,1.664.121,2.9.179,4.3h-5.5Zm7.687-11.575v.147H79.176c-.514,0-.72,0-.839,0V31.008a12.9,12.9,0,0,0,3.669,2.919,1.605,1.605,0,0,0-1.45,1.6Zm13.707-1.572a12.921,12.921,0,0,0,3.355-2.592v3.169a6.428,6.428,0,0,0,.1,1.141H95.551v-.147A1.606,1.606,0,0,0,94.263,33.951ZM106.711,39.4c-2.223,0-2.84.014-3.269-.036a6.186,6.186,0,0,0-4.085-3.5,4.857,4.857,0,0,1-.188-1.341V29.321a12.746,12.746,0,0,0,1.617-4.027,4.844,4.844,0,0,0,3.732-2.315,4.888,4.888,0,0,1,2.194,4.069Z" transform="translate(-69.739 0)"/>
      </g>
    </g>
  </g>
</svg>
