<svg xmlns="http://www.w3.org/2000/svg" width="190" height="173" viewBox="0 0 190 173">
  <g id="Grupo_1100910" data-name="Grupo 1100910" transform="translate(-180 -642)">
    <rect id="Rect치ngulo_400902" data-name="Rect치ngulo 400902" width="190" height="37" rx="11" transform="translate(180 755)" fill="#f0c518"/>
    <rect id="Rect치ngulo_400903" data-name="Rect치ngulo 400903" width="144" height="164" rx="11" transform="translate(203 642)" fill="#3a1d71"/>
    <g id="programador_10_" data-name="programador (10)" transform="translate(194.483 654.872)">
      <g id="Grupo_1099574" data-name="Grupo 1099574" transform="translate(29.701 2.346)">
        <g id="Grupo_1099573" data-name="Grupo 1099573">
          <g id="Grupo_1099571" data-name="Grupo 1099571" transform="translate(13.593)">
            <path id="Trazado_875215" data-name="Trazado 875215" d="M213.559,41.567V52.05H147.074V41.567A34.068,34.068,0,0,1,181.141,7.5c9.408,0,15.859,4.462,22.026,10.626S213.559,32.162,213.559,41.567Z" transform="translate(-144.371 -7.5)" fill="#3a1d71"/>
            <path id="Trazado_875216" data-name="Trazado 875216" d="M290.067,41.567v9.64l-3.507.713-3.885-6.726V42.971C282.674,15.3,256,7.5,256,7.5a34.064,34.064,0,0,1,34.067,34.067Z" transform="translate(-219.23 -7.5)" fill="#1f0a48"/>
            <path id="Trazado_875217" data-name="Trazado 875217" d="M238.608,278.984v-23.2H209.559v23.2Z" transform="translate(-187.313 -178.132)" fill="#ffbf9d"/>
            <path id="Trazado_875218" data-name="Trazado 875218" d="M205.893,128.017H144.507a6.077,6.077,0,0,0-6.077,6.077,15.276,15.276,0,0,0,15.276,15.276h42.989a15.276,15.276,0,0,0,15.276-15.276A6.077,6.077,0,0,0,205.893,128.017Z" transform="translate(-138.43 -90.325)" fill="#ffbf9d"/>
            <path id="Trazado_875219" data-name="Trazado 875219" d="M218.3,134.851l-10.466,9.157a11.236,11.236,0,0,1-7.4,2.78h-6.106a11.236,11.236,0,0,1-7.4-2.78l-10.466-9.157a16.852,16.852,0,0,1-5.756-12.683V96.507a4.865,4.865,0,0,0,4.591-3.255l2.677-7.63a5.163,5.163,0,0,1,6.9-3.04l.011,0a31.861,31.861,0,0,0,25.005,0,5.163,5.163,0,0,1,6.9,3.04l2.676,7.628a4.866,4.866,0,0,0,4.591,3.255v25.661A16.849,16.849,0,0,1,218.3,134.851Z" transform="translate(-160.617 -58.815)" fill="#ffbf9d"/>
          </g>
          <g id="Grupo_1099572" data-name="Grupo 1099572" transform="translate(0 96.125)">
            <path id="Trazado_875220" data-name="Trazado 875220" d="M197.964,371.025l.413-49.724a5.553,5.553,0,0,0-5.552-5.553l-7.318-.895H110.19a5.552,5.552,0,0,0-5.552,5.553v50.618h93.326Z" transform="translate(-101.613 -314.853)" fill="#bed9fd"/>
            <path id="Trazado_875221" data-name="Trazado 875221" d="M192.4,478.921l-9.106-.662H97.272a2.305,2.305,0,0,0-2.305,2.305h0a5.9,5.9,0,0,0,5.9,5.9h81.021l7.226-.972c3.259,0,5.587-1.008,5.587-4.267A2.305,2.305,0,0,0,192.4,478.921Z" transform="translate(-94.967 -427.154)" fill="#bed9fd"/>
            <path id="Trazado_875222" data-name="Trazado 875222" d="M369,314.854h-9.378a5.552,5.552,0,0,1,5.552,5.553v50.618h9.378V320.407A5.552,5.552,0,0,0,369,314.854Z" transform="translate(-276.852 -314.854)" fill="#97c3fc"/>
            <path id="Trazado_875223" data-name="Trazado 875223" d="M382.882,478.259h-10.1v6.117a2.09,2.09,0,0,1-2.09,2.09h8.591a5.9,5.9,0,0,0,5.9-5.9h0A2.305,2.305,0,0,0,382.882,478.259Z" transform="translate(-284.461 -427.154)" fill="#97c3fc"/>
          </g>
        </g>
      </g>
      <g id="Grupo_1099575" data-name="Grupo 1099575" transform="translate(0 0)">
        <path id="Trazado_875230" data-name="Trazado 875230" d="M195.485,363.7a2.346,2.346,0,0,0-3.317,0l-7.927,7.927a2.346,2.346,0,0,0,0,3.317l7.927,7.927a2.346,2.346,0,1,0,3.318-3.317l-6.269-6.268,6.269-6.268A2.346,2.346,0,0,0,195.485,363.7Z" transform="translate(-126.147 -249.478)"/>
        <path id="Trazado_875231" data-name="Trazado 875231" d="M288.786,382.868a2.347,2.347,0,0,0,3.318,0l7.927-7.927a2.346,2.346,0,0,0,0-3.317L292.1,363.7a2.346,2.346,0,0,0-3.317,3.317l6.269,6.268-6.269,6.268A2.346,2.346,0,0,0,288.786,382.868Z" transform="translate(-197.996 -249.478)"/>
        <path id="Trazado_875232" data-name="Trazado 875232" d="M239.447,381.224a2.347,2.347,0,0,0,2.206-1.55l7.129-19.745a2.346,2.346,0,0,0-4.413-1.593l-7.129,19.745a2.347,2.347,0,0,0,2.206,3.143Z" transform="translate(-162.947 -245.201)"/>
        <path id="Trazado_875233" data-name="Trazado 875233" d="M189.821,147.521V103.993a7.91,7.91,0,0,0-7.9-7.9H156.987v-11l2.775-2.429a2.346,2.346,0,1,0-3.09-3.53l-7.65,6.7a8.9,8.9,0,0,1-5.858,2.2h-6.111a8.9,8.9,0,0,1-5.858-2.2L120.725,76.66a14.521,14.521,0,0,1-4.96-10.927V42.015a7.231,7.231,0,0,0,1.827-.939,7.153,7.153,0,0,0,2.634-3.5l2.681-7.633a2.822,2.822,0,0,1,3.852-1.626,34.388,34.388,0,0,0,26.783-.033,2.816,2.816,0,0,1,3.772,1.66l2.677,7.631a7.228,7.228,0,0,0,4.462,4.435V65.734a14.389,14.389,0,0,1-1.24,5.868,2.346,2.346,0,1,0,4.289,1.9,19.055,19.055,0,0,0,1.643-7.769V62.085a17.519,17.519,0,0,0,10.1-15.945,8.4,8.4,0,0,0-2.7-6.179V36.432A36.433,36.433,0,0,0,119.475,6.406a2.346,2.346,0,0,0,2.662,3.864A31.74,31.74,0,0,1,171.85,36.432v1.346a8.486,8.486,0,0,0-1.03-.065h-4.028a2.527,2.527,0,0,1-2.373-1.689l-2.678-7.634A7.506,7.506,0,0,0,151.7,23.97a29.669,29.669,0,0,1-23.179,0,7.511,7.511,0,0,0-10.046,4.42L115.8,36.028a2.517,2.517,0,0,1-2.372,1.686H109.4a8.485,8.485,0,0,0-1.03.065V36.433a31.452,31.452,0,0,1,6.391-19.1,2.346,2.346,0,0,0-3.744-2.827,36.109,36.109,0,0,0-7.339,21.93v3.529a8.4,8.4,0,0,0-2.7,6.179,17.519,17.519,0,0,0,10.1,15.944v3.649a19.213,19.213,0,0,0,6.562,14.457l5.6,4.9v11h-7.5a2.346,2.346,0,1,0,0,4.691h66.187a3.214,3.214,0,0,1,3.209,3.212v43.231h-17.22a2.346,2.346,0,1,0,0,4.691l20.247-.006a3.564,3.564,0,0,1-3.559,3.527H95.62a3.559,3.559,0,0,1-3.559-3.522h64.9a2.346,2.346,0,0,0,0-4.691H95.089V103.993a3.214,3.214,0,0,1,3.209-3.212h6.49a2.346,2.346,0,1,0,0-4.691H98.3a7.91,7.91,0,0,0-7.9,7.9v43.531a4.657,4.657,0,0,0-3.027,4.355,8.251,8.251,0,0,0,8.25,8.25H184.6a8.26,8.26,0,0,0,8.25-8.25,4.64,4.64,0,0,0-3.027-4.357ZM174.555,46.14a12.856,12.856,0,0,1-5.41,10.533V42.4h1.675a3.74,3.74,0,0,1,3.735,3.735Zm-68.892,0A3.739,3.739,0,0,1,109.4,42.4h1.675V56.673A12.858,12.858,0,0,1,105.663,46.14Zm22.259,43.053.184.161a13.585,13.585,0,0,0,8.947,3.361h6.111a13.585,13.585,0,0,0,8.948-3.361l.184-.161v6.9H127.921v-6.9Z" transform="translate(-60.045 0)"/>
        <path id="Trazado_875234" data-name="Trazado 875234" d="M443.673,242.876v-5.964a7.4,7.4,0,0,0-14.794,0v5.964a7.4,7.4,0,0,0,14.794,0Zm-4.691,0a2.706,2.706,0,0,1-5.411,0v-5.964a2.706,2.706,0,0,1,5.411,0Z" transform="translate(-294.747 -157.734)" fill="#97c3fc"/>
        <path id="Trazado_875235" data-name="Trazado 875235" d="M395.406,250.273a2.345,2.345,0,0,0,2.346-2.346V231.861a2.346,2.346,0,1,0-4.691,0v16.067A2.345,2.345,0,0,0,395.406,250.273Z" transform="translate(-270.131 -157.734)" fill="#97c3fc"/>
        <path id="Trazado_875236" data-name="Trazado 875236" d="M472.095,311.416a7.405,7.405,0,0,0-7.4,7.4v5.964a7.4,7.4,0,1,0,14.794,0v-5.964A7.405,7.405,0,0,0,472.095,311.416Zm2.706,13.361a2.706,2.706,0,1,1-5.411,0v-5.964a2.706,2.706,0,0,1,5.411,0Z" transform="translate(-319.364 -214.021)" fill="#97c3fc"/>
        <path id="Trazado_875237" data-name="Trazado 875237" d="M431.224,311.416a2.345,2.345,0,0,0-2.346,2.346v16.067a2.346,2.346,0,1,0,4.691,0V313.762A2.345,2.345,0,0,0,431.224,311.416Z" transform="translate(-294.746 -214.021)" fill="#97c3fc"/>
        <path id="Trazado_875238" data-name="Trazado 875238" d="M499.346,229.515A2.345,2.345,0,0,0,497,231.861v16.067a2.346,2.346,0,0,0,4.691,0V231.861A2.345,2.345,0,0,0,499.346,229.515Z" transform="translate(-341.563 -157.734)" fill="#97c3fc"/>
        <path id="Trazado_875239" data-name="Trazado 875239" d="M43.216,229.515a7.405,7.405,0,0,0-7.4,7.4v5.964a7.4,7.4,0,0,0,14.794,0v-5.964A7.405,7.405,0,0,0,43.216,229.515Zm2.706,13.361a2.706,2.706,0,0,1-5.412,0v-5.964a2.706,2.706,0,0,1,5.412,0Z" transform="translate(-24.615 -157.734)" fill="#97c3fc"/>
        <path id="Trazado_875240" data-name="Trazado 875240" d="M106.286,250.273a2.345,2.345,0,0,0,2.346-2.346V231.861a2.346,2.346,0,1,0-4.691,0v16.067A2.346,2.346,0,0,0,106.286,250.273Z" transform="translate(-71.431 -157.734)" fill="#97c3fc"/>
        <path id="Trazado_875241" data-name="Trazado 875241" d="M7.4,311.416a7.405,7.405,0,0,0-7.4,7.4v5.964a7.4,7.4,0,1,0,14.794,0v-5.964A7.405,7.405,0,0,0,7.4,311.416ZM10.1,324.777a2.706,2.706,0,1,1-5.412,0v-5.964a2.706,2.706,0,0,1,5.411,0v5.964Z" transform="translate(0.002 -214.021)" fill="#97c3fc"/>
        <path id="Trazado_875242" data-name="Trazado 875242" d="M70.468,311.416a2.345,2.345,0,0,0-2.346,2.346v16.067a2.346,2.346,0,1,0,4.691,0V313.762A2.345,2.345,0,0,0,70.468,311.416Z" transform="translate(-46.815 -214.021)" fill="#97c3fc"/>
        <path id="Trazado_875243" data-name="Trazado 875243" d="M2.346,250.273a2.345,2.345,0,0,0,2.346-2.346V231.861a2.346,2.346,0,1,0-4.691,0v16.067A2.345,2.345,0,0,0,2.346,250.273Z" transform="translate(0.002 -157.734)" fill="#97c3fc"/>
      </g>
    </g>
  </g>
</svg>
