<svg xmlns="http://www.w3.org/2000/svg" xmlns:xlink="http://www.w3.org/1999/xlink" width="400" height="402" viewBox="0 0 400 402">
  <defs>
    <clipPath id="clip-path">
      <rect id="Rectángulo_404068" data-name="Rectángulo 404068" width="400" height="402" transform="translate(1020 530)" fill="#fff" stroke="#707070" stroke-width="1"/>
    </clipPath>
    <clipPath id="clip-path-2">
      <rect id="Rectángulo_404017" data-name="Rectángulo 404017" width="397.576" height="344.333" fill="none"/>
    </clipPath>
    <clipPath id="clip-path-3">
      <path id="Trazado_885944" data-name="Trazado 885944" d="M223.752,25.079l-34.48,1.163a17.524,17.524,0,0,0-16.926,18.106l1.162,34.48a17.526,17.526,0,0,0,18.107,16.926l34.48-1.162a17.529,17.529,0,0,0,16.927-18.107L241.859,42a17.526,17.526,0,0,0-17.505-16.935c-.2,0-.4,0-.6.01" transform="translate(-172.336 -25.069)" fill="#3a1d71"/>
    </clipPath>
  </defs>
  <g id="Enmascarar_grupo_1098755" data-name="Enmascarar grupo 1098755" transform="translate(-1020 -530)" clip-path="url(#clip-path)">
    <g id="Grupo_1103326" data-name="Grupo 1103326" transform="translate(1022.424 585.833)">
      <g id="Grupo_1103325" data-name="Grupo 1103325" clip-path="url(#clip-path-2)">
        <path id="Trazado_885838" data-name="Trazado 885838" d="M290.293,191.29S253.125,166,267.736,151.932,292.2,155.87,292.2,155.87,268.46,102.5,295.365,94.98s28.6,30.387,28.6,30.387S339.073,55.981,375.148,61.2s-19.7,73.6-19.7,73.6,43.151-12.127,42.11,22.351S341.025,168.8,341.025,168.8s47.94,19.247,21.226,40.65-71.958-18.161-71.958-18.161" fill="#9be3fc"/>
        <path id="Trazado_885839" data-name="Trazado 885839" d="M276.319,158.68l30.993,26.538,48.03,11.1" fill="none" stroke="#103140" stroke-linecap="round" stroke-linejoin="round" stroke-width="1.553"/>
        <line id="Línea_802" data-name="Línea 802" y1="113.148" x2="64.882" transform="translate(305.34 75.832)" fill="none" stroke="#103140" stroke-linecap="round" stroke-linejoin="round" stroke-width="1.553"/>
        <path id="Trazado_885840" data-name="Trazado 885840" d="M305.34,121l18.94,34.951h53.539" fill="none" stroke="#103140" stroke-linecap="round" stroke-linejoin="round" stroke-width="1.553"/>
        <path id="Trazado_885841" data-name="Trazado 885841" d="M279.049,76S257.9,52.487,270.24,45.324s16.051,6.792,16.051,6.792-7.267-40.441,12.376-41.066,14.442,25.556,14.442,25.556S335.067-8.263,358.837,1.35s-25.8,46.979-25.8,46.979,31.514-1.048,25.02,22.331-40.575-1.52-40.575-1.52S347,90.329,325.162,100.47,279.049,76,279.049,76" fill="#fdc614"/>
        <path id="Trazado_885842" data-name="Trazado 885842" d="M274.971,51.373,291.693,74.7l30.952,15.635" fill="none" stroke="#103140" stroke-linecap="round" stroke-linejoin="round" stroke-width="1.553"/>
        <line id="Línea_803" data-name="Línea 803" y1="66.418" x2="63.302" transform="translate(289.716 10.523)" fill="none" stroke="#103140" stroke-linecap="round" stroke-linejoin="round" stroke-width="1.553"/>
        <path id="Trazado_885843" data-name="Trazado 885843" d="M301.117,30.5l7.077,27.054,36.577,8.979" fill="none" stroke="#103140" stroke-linecap="round" stroke-linejoin="round" stroke-width="1.553"/>
        <path id="Trazado_885844" data-name="Trazado 885844" d="M143.324,338.372s-54.76,2.047-58.7-11.667,10.5-13.915,10.5-13.915-40.993-2.8-36.817-22S86.6,283,86.6,283,48.433,250.78,63.545,230.066s39.281,36.466,39.281,36.466,6.658-30.82,27.752-18.829-11.355,38.983-11.355,38.983,27.74-23.475,32.259.177-8.158,51.509-8.158,51.509" fill="#fdc614"/>
        <path id="Trazado_885845" data-name="Trazado 885845" d="M91.641,323.588l26.7-10.539,22.7-26.213" fill="none" stroke="#103140" stroke-linecap="round" stroke-linejoin="round" stroke-width="1.553"/>
        <line id="Línea_804" data-name="Línea 804" x1="60.809" y1="96.253" transform="translate(71.024 237.944)" fill="none" stroke="#103140" stroke-linecap="round" stroke-linejoin="round" stroke-width="1.553"/>
        <path id="Trazado_885846" data-name="Trazado 885846" d="M77.761,293.147l27.963-.277,17.615-33.289" fill="none" stroke="#103140" stroke-linecap="round" stroke-linejoin="round" stroke-width="1.553"/>
        <path id="Trazado_885847" data-name="Trazado 885847" d="M361.9,344.333H5.078a5.078,5.078,0,0,1,0-10.156H361.9a5.078,5.078,0,0,1,0,10.156" fill="#0f303f"/>
        <path id="Trazado_885848" data-name="Trazado 885848" d="M42.338,334.338H21.253A13.129,13.129,0,0,1,8.124,321.209v-42.17H55.467v42.17a13.129,13.129,0,0,1-13.129,13.129" fill="#03bafc"/>
        <path id="Trazado_885849" data-name="Trazado 885849" d="M57.566,288.267c-7.013,0-12.7,6.814-12.7,15.218s5.685,15.218,12.7,15.218,12.7-6.813,12.7-15.218-5.685-15.218-12.7-15.218m0,24.066c-4.077,0-7.382-3.961-7.382-8.848s3.305-8.847,7.382-8.847,7.382,3.961,7.382,8.847-3.3,8.848-7.382,8.848" fill="#03bafc"/>
        <path id="Trazado_885850" data-name="Trazado 885850" d="M234.759,38.761s-1.576-19.87-29.552-17.278c-14.473,1.34-23.078,20.976-29.505,31.683-12.6,20.993-25.3,39.308-49.12,47.912-10.24,3.7-20.912,6.372-30.582,11.375-24.967,12.918-30.679,42.23-30.928,68.079-.23,23.908,6.149,48.289,20.087,67.912,21.887,30.813,58.875,41.757,95.333,39.466,4.127-.26,8.245-.67,12.345-1.206C351.31,265.97,279.523,49.235,279.523,49.235Z" fill="#0f303f"/>
        <path id="Trazado_885851" data-name="Trazado 885851" d="M201.122,46.685s-26.208,71.14,14.6,76.753,43.61-25.445,43.61-25.445l4.718-46.433Z" fill="#f84a3f"/>
        <path id="Trazado_885852" data-name="Trazado 885852" d="M218.374,83.281c-.374,1.862.434,3.6,1.806,3.871s2.787-1.01,3.162-2.872-.434-3.6-1.806-3.871-2.788,1.01-3.162,2.872" fill="#103140"/>
        <path id="Trazado_885853" data-name="Trazado 885853" d="M199.388,82.393c-.034,1.9,1.073,3.458,2.472,3.484s2.561-1.495,2.6-3.393-1.073-3.459-2.472-3.484-2.561,1.494-2.6,3.393" fill="#103140"/>
        <path id="Trazado_885854" data-name="Trazado 885854" d="M210.586,108.518s9.133,4.554,15.7-1.478" fill="none" stroke="#103140" stroke-linecap="round" stroke-linejoin="round" stroke-width="1.493"/>
        <path id="Trazado_885855" data-name="Trazado 885855" d="M228.462,75.384s-5.029-7.361-10.922-2.142" fill="none" stroke="#103140" stroke-linecap="round" stroke-linejoin="round" stroke-width="1.493"/>
        <path id="Trazado_885856" data-name="Trazado 885856" d="M207.2,72.791s-3.992-4.967-7.652,1.079" fill="none" stroke="#103140" stroke-linecap="round" stroke-linejoin="round" stroke-width="1.493"/>
        <path id="Trazado_885857" data-name="Trazado 885857" d="M207.843,83.165s.273,10.683-2.5,11.147c-5.2.869-2.224,8.06,1.83,6.411" fill="none" stroke="#103140" stroke-linecap="round" stroke-linejoin="round" stroke-width="1.493"/>
        <path id="Trazado_885858" data-name="Trazado 885858" d="M201.122,46.685s25.066,32.113,60,33.687S281.1,17.066,243.991,18.083s-42.748,17.235-42.869,28.6" fill="#0f303f"/>
        <path id="Trazado_885859" data-name="Trazado 885859" d="M262.816,85.4c0,5.08-3.256,9.2-7.272,9.2s-7.271-4.118-7.271-9.2,3.256-9.2,7.271-9.2,7.272,4.118,7.272,9.2" fill="#f84a3f"/>
        <path id="Trazado_885860" data-name="Trazado 885860" d="M303.207,176.607V288.238H162.66V176.607a37.675,37.675,0,0,1,37.708-37.7H265.5a37.7,37.7,0,0,1,37.707,37.7" fill="#fdc614"/>
        <path id="Trazado_885861" data-name="Trazado 885861" d="M217.864,115.812l-.325,26.346c1.192.149,4.644.266,5.851.351.826.059,1.652.107,2.47.133,9.022.331,12.821.447,20.9-2.375l-.383-27.683Z" fill="#f84a3f"/>
        <path id="Trazado_885862" data-name="Trazado 885862" d="M282.275,142.843c-9.59,10.677-27.761,17.882-48.6,17.882-21.172,0-39.593-7.435-49.039-18.392a37.513,37.513,0,0,1,15.727-3.424H265.5a37.457,37.457,0,0,1,16.776,3.934" fill="#f84a3f"/>
        <path id="Trazado_885863" data-name="Trazado 885863" d="M334.14,221.1V325.532a17.574,17.574,0,0,1-17.574,17.574H149.633a17.574,17.574,0,0,1-17.574-17.574V221.1a17.574,17.574,0,0,1,17.574-17.574H316.566A17.574,17.574,0,0,1,334.14,221.1" fill="#0f303f"/>
        <path id="Trazado_885864" data-name="Trazado 885864" d="M247.391,297.768l-8.712-4.29a5.831,5.831,0,0,0-5.427.144l-8.473,4.744a5.835,5.835,0,0,1-8.625-5.925l1.388-9.61a5.835,5.835,0,0,0-1.814-5.118l-7.13-6.592a5.835,5.835,0,0,1,2.969-10.034l9.569-1.65a5.831,5.831,0,0,0,4.307-3.306l4.066-8.819a5.834,5.834,0,0,1,10.46-.276l4.527,8.591a5.829,5.829,0,0,0,4.475,3.074l9.643,1.142a5.835,5.835,0,0,1,3.5,9.863l-6.772,6.959a5.831,5.831,0,0,0-1.541,5.207l1.894,9.524a5.835,5.835,0,0,1-8.3,6.372" fill="#fdc614"/>
        <path id="Trazado_885865" data-name="Trazado 885865" d="M132.059,282.6V221.948A17.664,17.664,0,0,1,142.6,205.7c4.507-1.95,10.826-2.489,20.06-2.177" fill="none" stroke="#eef0f5" stroke-linecap="round" stroke-miterlimit="10" stroke-width="1.924"/>
        <g id="Grupo_1103415" data-name="Grupo 1103415" transform="translate(-43.249 -29.726)">
          <path id="Trazado_885866" data-name="Trazado 885866" d="M120.162,121.675H63.119a5.662,5.662,0,0,1-5.663-5.663V83.643a5.662,5.662,0,0,1,5.663-5.663h57.043a5.663,5.663,0,0,1,5.663,5.663v32.369a5.663,5.663,0,0,1-5.663,5.663" fill="#fdc614"/>
          <path id="Trazado_885867" data-name="Trazado 885867" d="M78.06,99.828a5.894,5.894,0,1,1-5.894-5.9,5.9,5.9,0,0,1,5.894,5.9" fill="#fff"/>
          <path id="Trazado_885868" data-name="Trazado 885868" d="M97.535,99.828a5.895,5.895,0,1,1-5.9-5.9,5.9,5.9,0,0,1,5.9,5.9" fill="#fff"/>
          <path id="Trazado_885869" data-name="Trazado 885869" d="M117.011,99.828a5.895,5.895,0,1,1-5.9-5.9,5.9,5.9,0,0,1,5.9,5.9" fill="#fff"/>
          <path id="Trazado_885870" data-name="Trazado 885870" d="M102.176,117.669l12.674,17.682V117.669Z" fill="#fdc614"/>
        </g>
      </g>
    </g>
    <g id="Grupo_1103411" data-name="Grupo 1103411" transform="translate(10532 10881.014)">
      <path id="Trazado_885977" data-name="Trazado 885977" d="M287.111,225.2l34.471,6.471a17.817,17.817,0,0,1,14.224,20.8l-6.472,34.471a17.818,17.818,0,0,1-20.8,14.224L274.065,294.7a17.817,17.817,0,0,1-14.224-20.8l6.472-34.473a17.793,17.793,0,0,1,20.8-14.221" transform="matrix(0.985, -0.174, 0.174, 0.985, -9722.353, -10502.652)" fill="#3a1d71"/>
      <g id="Grupo_1103409" data-name="Grupo 1103409" transform="translate(-9408.913 -10311.098)">
        <path id="Trazado_886005" data-name="Trazado 886005" d="M366.157,66.412c1.716,6.012-2.2,11.89-8.357,11.89H325.406a8.091,8.091,0,0,1-7.852-10.174,6.7,6.7,0,0,1,.28-.8,8.58,8.58,0,0,1,9.3-5.048,15.335,15.335,0,0,1,13.034-12.866A15.18,15.18,0,0,1,355.6,59.155S363.947,58.706,366.157,66.412Z" transform="translate(-317.24 -49.339)" fill="#1c0744"/>
        <path id="Trazado_886006" data-name="Trazado 886006" d="M337.025,83.01V70.57h-4.868a.7.7,0,0,1-.572-1.11l8.02-11.318a.7.7,0,0,1,1.144,0l8.009,11.228a.7.7,0,0,1-.572,1.11h-4.745V83.01h-6.416Z" transform="translate(-315.511 -48.304)" fill="#f0c518"/>
      </g>
    </g>
    <g id="Grupo_1103410" data-name="Grupo 1103410" transform="translate(10474 10983.714)">
      <g id="Grupo_1103399" data-name="Grupo 1103399" transform="translate(-9445.428 -10242.714)">
        <rect id="Rectángulo_404057" data-name="Rectángulo 404057" width="52.743" height="52.743" rx="8" transform="translate(0.225 0.225)" fill="#3a1d71"/>
        <path id="Trazado_885982" data-name="Trazado 885982" d="M192.617,114.858a9.648,9.648,0,0,0,1.956-.268,8.968,8.968,0,0,0,4.751-2.882,8.628,8.628,0,0,0,1.869-3.574,19.308,19.308,0,0,0,.286-4.846c-.009-3.513-.017-7.52-.035-11.933,0-4.422-.017-9.268-.026-14.469V72.923a15.574,15.574,0,0,0-.294-4.015,8.809,8.809,0,0,0-7.451-6.507,20.525,20.525,0,0,0-2.207-.069h-33.61a8.834,8.834,0,0,0-4.647,1.341,8.431,8.431,0,0,0-1.852,1.558,8,8,0,0,0-1.35,1.99,8.8,8.8,0,0,0-.762,2.259,12.838,12.838,0,0,0-.156,2.388v4.811c0,6.36-.009,12.5-.017,18.354q0,4.387-.009,8.55a22.164,22.164,0,0,0,.173,4.041,8.946,8.946,0,0,0,1.584,3.513,8.75,8.75,0,0,0,6.239,3.5c2.38.087,4.725.035,6.923.052,8.835.026,15.983.052,20.95.069,2.458.017,4.379.035,5.694.043q.961.013,1.48.026a3.614,3.614,0,0,1,.5.026s-.173.017-.5.026c-.355,0-.839.009-1.48.026-1.315.009-3.236.026-5.694.043-4.967.017-12.115.043-20.95.069-2.215-.017-4.517.052-6.957-.026a9.21,9.21,0,0,1-8.169-7.286,22.583,22.583,0,0,1-.19-4.119c0-2.769,0-5.625-.009-8.55,0-5.85,0-11.985-.017-18.354V71.867A12.53,12.53,0,0,1,148.8,69.4a9.068,9.068,0,0,1,.8-2.38,8.973,8.973,0,0,1,1.419-2.085,8.809,8.809,0,0,1,1.947-1.636,9.243,9.243,0,0,1,4.889-1.411h33.61a19.837,19.837,0,0,1,2.259.078,8.952,8.952,0,0,1,2.181.545,9.181,9.181,0,0,1,5.6,6.274,15.535,15.535,0,0,1,.294,4.119v3.963c-.009,5.2-.017,10.047-.026,14.469s-.026,8.42-.035,11.933a19.036,19.036,0,0,1-.329,4.9,8.712,8.712,0,0,1-1.947,3.634,8.9,8.9,0,0,1-4.863,2.856,7.71,7.71,0,0,1-1.471.173c-.337.009-.5,0-.5,0Z" transform="translate(-148.64 -61.89)" fill="#263238"/>
      </g>
      <g id="Grupo_1103400" data-name="Grupo 1103400" transform="translate(-9435.825 -10232.73)">
        <rect id="Rectángulo_404058" data-name="Rectángulo 404058" width="6.655" height="5.097" transform="translate(0.433 28.072)" fill="#f0c518"/>
        <rect id="Rectángulo_404059" data-name="Rectángulo 404059" width="6.655" height="16.848" transform="translate(8.852 16.32)" fill="#f0c518"/>
        <rect id="Rectángulo_404060" data-name="Rectángulo 404060" width="6.655" height="9.588" transform="translate(18.112 23.572)" fill="#f0c518"/>
        <rect id="Rectángulo_404061" data-name="Rectángulo 404061" width="6.655" height="21.729" transform="translate(26.947 11.44)" fill="#f0c518"/>
        <path id="Trazado_885984" data-name="Trazado 885984" d="M161.424,97.669a3.314,3.314,0,1,1,3.314-3.314A3.32,3.32,0,0,1,161.424,97.669Zm0-5.763a2.449,2.449,0,1,0,2.449,2.449A2.452,2.452,0,0,0,161.424,91.905Z" transform="translate(-158.11 -74.841)" fill="#f0c518"/>
        <path id="Trazado_885985" data-name="Trazado 885985" d="M172.424,83.1a3.314,3.314,0,1,1,3.314-3.314A3.32,3.32,0,0,1,172.424,83.1Zm0-5.755a2.449,2.449,0,1,0,2.449,2.449A2.452,2.452,0,0,0,172.424,77.344Z" transform="translate(-159.591 -72.879)" fill="#f0c518"/>
        <path id="Trazado_885986" data-name="Trazado 885986" d="M182.374,92.329a3.314,3.314,0,1,1,3.314-3.314A3.32,3.32,0,0,1,182.374,92.329Zm0-5.763a2.449,2.449,0,1,0,2.449,2.449A2.452,2.452,0,0,0,182.374,86.565Z" transform="translate(-160.931 -74.122)" fill="#f0c518"/>
        <path id="Trazado_885987" data-name="Trazado 885987" d="M193,78.949a3.314,3.314,0,1,1,3.314-3.314A3.32,3.32,0,0,1,193,78.949Zm0-5.755a2.449,2.449,0,1,0,2.449,2.449A2.452,2.452,0,0,0,193,73.194Z" transform="translate(-162.362 -72.32)" fill="#f0c518"/>
        <rect id="Rectángulo_404062" data-name="Rectángulo 404062" width="9.294" height="0.865" transform="matrix(0.575, -0.818, 0.818, 0.575, 22.986, 12.78)" fill="#f0c518"/>
        <rect id="Rectángulo_404063" data-name="Rectángulo 404063" width="0.865" height="5.884" transform="matrix(0.723, -0.691, 0.691, 0.723, 14.742, 9.537)" fill="#f0c518"/>
        <rect id="Rectángulo_404064" data-name="Rectángulo 404064" width="9.778" height="0.865" transform="matrix(0.613, -0.79, 0.79, 0.613, 4.553, 16.84)" fill="#f0c518"/>
      </g>
    </g>
    <g id="Grupo_1103412" data-name="Grupo 1103412" transform="translate(10561.012 10903.679)">
      <g id="Grupo_1103398" data-name="Grupo 1103398" transform="translate(-9295.779 -10353.179)">
        <rect id="Rectángulo_404056" data-name="Rectángulo 404056" width="49.375" height="49.374" rx="10.38" transform="translate(0.211 0.227)" fill="#0b47db"/>
        <path id="Trazado_885981" data-name="Trazado 885981" d="M41.169,49.593A9.032,9.032,0,0,0,43,49.342a8.4,8.4,0,0,0,4.447-2.7A8.078,8.078,0,0,0,49.2,43.3a18.076,18.076,0,0,0,.267-4.536c-.008-3.289-.016-7.04-.032-11.171,0-4.14-.016-8.676-.024-13.545v-3.71a14.58,14.58,0,0,0-.275-3.759A8.246,8.246,0,0,0,42.157.486,19.214,19.214,0,0,0,40.091.421H8.627a8.27,8.27,0,0,0-4.35,1.256A7.893,7.893,0,0,0,2.544,3.135,7.486,7.486,0,0,0,1.28,5,8.239,8.239,0,0,0,.567,7.113,12.017,12.017,0,0,0,.421,9.349v4.5C.421,19.807.413,25.558.4,31.034q0,4.107-.008,8a20.749,20.749,0,0,0,.162,3.783A8.289,8.289,0,0,0,2.041,46.1a8.176,8.176,0,0,0,5.841,3.273c2.228.081,4.423.032,6.481.049,8.271.024,14.962.049,19.612.065,2.3.016,4.1.032,5.33.041q.9.012,1.385.024a3.382,3.382,0,0,1,.47.024s-.162.016-.47.024c-.332,0-.786.008-1.385.024-1.231.008-3.03.024-5.33.041-4.65.016-11.341.041-19.612.065-2.074-.016-4.229.049-6.513-.024A8.622,8.622,0,0,1,.2,42.886,21.141,21.141,0,0,1,.024,39.03c0-2.592,0-5.266-.008-8,0-5.476,0-11.22-.016-17.182v-4.5A11.728,11.728,0,0,1,.154,7.032,8.489,8.489,0,0,1,.9,4.8,8.156,8.156,0,0,1,2.228,2.852,8.246,8.246,0,0,1,4.05,1.321,8.653,8.653,0,0,1,8.627,0H40.091a18.569,18.569,0,0,1,2.114.073,8.38,8.38,0,0,1,2.041.51,8.6,8.6,0,0,1,5.241,5.873,14.543,14.543,0,0,1,.275,3.856v3.71c-.008,4.869-.016,9.405-.024,13.545s-.024,7.882-.032,11.171a17.822,17.822,0,0,1-.308,4.585,8.156,8.156,0,0,1-1.823,3.4A8.337,8.337,0,0,1,43.024,49.4a7.219,7.219,0,0,1-1.377.162c-.316.008-.47,0-.47,0Z" fill="#263238"/>
      </g>
      <g id="Grupo_1103403" data-name="Grupo 1103403" transform="matrix(0.978, 0.208, -0.208, 0.978, -9279.076, -10341.972)">
        <path id="Trazado_885993" data-name="Trazado 885993" d="M8.99,18.006a8.812,8.812,0,0,1-2.754-.437,9,9,0,1,1,11.333-5.8h0A9.021,9.021,0,0,1,9,18.006ZM9,1.618a7.38,7.38,0,1,0,7.015,9.648h0A7.378,7.378,0,0,0,9,1.618Z" transform="translate(0 0)" fill="#fff"/>
        <path id="Trazado_885994" data-name="Trazado 885994" d="M7.5,8.9a.829.829,0,0,1-.6-.259L.213,1.355A.808.808,0,0,1,1.4.262L8.1,7.544a.807.807,0,0,1-.049,1.142A.784.784,0,0,1,7.5,8.9Z" transform="translate(13.402 14.512)" fill="#fff"/>
      </g>
    </g>
    <g id="Grupo_1103331" data-name="Grupo 1103331" transform="translate(10251.222 11565.784)">
      <g id="Grupo_1103330" data-name="Grupo 1103330" transform="translate(-8936.222 -10741.761)" clip-path="url(#clip-path-3)">
        <rect id="Rectángulo_404023" data-name="Rectángulo 404023" width="73.682" height="73.376" transform="translate(-2.709 0.081) rotate(-1.931)" fill="#3a1d71"/>
      </g>
      <path id="Trazado_885945" data-name="Trazado 885945" d="M201.756,80.638a1.371,1.371,0,0,1-.262-.014,23.05,23.05,0,0,1-3.821-.879,1.48,1.48,0,0,1-1.027-1.385l-.034-1.936a20.62,20.62,0,0,1-2.857-1.528l-1.623,1.05a1.479,1.479,0,0,1-1.721-.082,23.389,23.389,0,0,1-2.865-2.677,1.479,1.479,0,0,1-.2-1.713l.937-1.69a20.566,20.566,0,0,1-1.717-2.748l-1.935.1a1.438,1.438,0,0,1-1.45-.931,23.081,23.081,0,0,1-1.135-3.753,1.482,1.482,0,0,1,.687-1.579l1.658-1q-.094-.821-.121-1.615c-.018-.528-.014-1.07.012-1.619l-1.722-.882a1.483,1.483,0,0,1-.791-1.529,23.139,23.139,0,0,1,.879-3.821,1.477,1.477,0,0,1,1.385-1.028l1.936-.033a20.686,20.686,0,0,1,1.528-2.857l-1.049-1.623a1.485,1.485,0,0,1,.081-1.724,23.513,23.513,0,0,1,2.678-2.862,1.477,1.477,0,0,1,1.712-.2l1.69.938A20.735,20.735,0,0,1,195.36,39.3l-.1-1.935a1.479,1.479,0,0,1,.93-1.45,23.056,23.056,0,0,1,3.753-1.136,1.482,1.482,0,0,1,1.582.687l.994,1.66a19.611,19.611,0,0,1,3.236-.109l.882-1.722a1.48,1.48,0,0,1,1.531-.792,23.168,23.168,0,0,1,3.82.881,1.481,1.481,0,0,1,1.027,1.385l.034,1.936a20.479,20.479,0,0,1,2.857,1.528l1.623-1.05a1.477,1.477,0,0,1,1.721.082,23.571,23.571,0,0,1,2.865,2.676,1.481,1.481,0,0,1,.2,1.713l-.937,1.691a20.651,20.651,0,0,1,1.717,2.748l1.935-.1a1.491,1.491,0,0,1,1.45.931,23.318,23.318,0,0,1,1.136,3.753,1.482,1.482,0,0,1-.687,1.58l-1.66,1c.063.547.1,1.088.121,1.615s.014,1.07-.012,1.619l1.722.882a1.484,1.484,0,0,1,.792,1.531,23.347,23.347,0,0,1-.881,3.821,1.533,1.533,0,0,1-1.385,1.027l-1.936.033a20.47,20.47,0,0,1-1.528,2.857l1.049,1.623a1.483,1.483,0,0,1-.081,1.722,23.426,23.426,0,0,1-2.678,2.865,1.481,1.481,0,0,1-1.712.2l-1.69-.938a20.607,20.607,0,0,1-2.748,1.718l.1,1.933a1.478,1.478,0,0,1-.93,1.45,23.227,23.227,0,0,1-3.753,1.136,1.481,1.481,0,0,1-1.58-.687l-1-1.66a19.6,19.6,0,0,1-3.236.109l-.881,1.722a1.482,1.482,0,0,1-1.269.805m-2.165-3.418q.637.168,1.291.3l.832-1.627a1.474,1.474,0,0,1,1.458-.8,17.228,17.228,0,0,0,4.5-.151,1.476,1.476,0,0,1,1.507.7l.942,1.567c.429-.115.852-.241,1.266-.382L211.293,75a1.484,1.484,0,0,1,.864-1.423,17.6,17.6,0,0,0,3.818-2.385,1.482,1.482,0,0,1,1.657-.15l1.595.885q.467-.469.905-.969l-.989-1.531a1.478,1.478,0,0,1,.036-1.664,17.6,17.6,0,0,0,2.122-3.97,1.466,1.466,0,0,1,1.36-.958l1.825-.031c.112-.423.21-.855.3-1.29l-1.627-.832a1.486,1.486,0,0,1-.8-1.458,17.657,17.657,0,0,0,.073-2.255,17.94,17.94,0,0,0-.224-2.243,1.487,1.487,0,0,1,.7-1.509l1.569-.941q-.172-.643-.383-1.268l-1.823.092a1.462,1.462,0,0,1-1.42-.864,17.611,17.611,0,0,0-2.387-3.817,1.484,1.484,0,0,1-.148-1.658l.883-1.593c-.311-.313-.636-.615-.968-.905l-1.531.99a1.482,1.482,0,0,1-1.664-.038,17.668,17.668,0,0,0-3.971-2.124,1.484,1.484,0,0,1-.958-1.36l-.03-1.824c-.423-.112-.855-.211-1.29-.3l-.834,1.627a1.483,1.483,0,0,1-1.458.8,17.229,17.229,0,0,0-4.5.152,1.48,1.48,0,0,1-1.507-.7l-.941-1.567q-.645.172-1.268.382l.092,1.823a1.484,1.484,0,0,1-.864,1.421,17.665,17.665,0,0,0-3.818,2.385,1.482,1.482,0,0,1-1.657.15l-1.595-.885q-.467.469-.905.969l.989,1.531a1.477,1.477,0,0,1-.036,1.664,17.546,17.546,0,0,0-2.122,3.97,1.457,1.457,0,0,1-1.36.958l-1.825.031c-.112.423-.21.855-.294,1.29l1.626.834a1.486,1.486,0,0,1,.8,1.458,17.614,17.614,0,0,0-.073,2.252,17.936,17.936,0,0,0,.224,2.245,1.484,1.484,0,0,1-.7,1.507l-1.567.942q.17.643.382,1.268l1.823-.092a1.453,1.453,0,0,1,1.42.864,17.632,17.632,0,0,0,2.387,3.817,1.484,1.484,0,0,1,.149,1.658l-.885,1.593c.313.313.637.615.969.907l1.531-.99a1.485,1.485,0,0,1,1.664.036,17.611,17.611,0,0,0,3.971,2.124,1.486,1.486,0,0,1,.958,1.36Z" transform="translate(-9105.706 -10763.977)" fill="#f0c518"/>
      <path id="Trazado_885946" data-name="Trazado 885946" d="M203.609,71.364a15.556,15.556,0,1,1,15.022-16.071,15.573,15.573,0,0,1-15.022,16.071m-.948-28.132a12.592,12.592,0,1,0,13.009,12.16,12.607,12.607,0,0,0-13.009-12.16" transform="translate(-9103.958 -10762.23)" fill="#f0c518"/>
    </g>
    <g id="Grupo_1103414" data-name="Grupo 1103414" transform="translate(10293.754 10841)">
      <g id="Grupo_1103406" data-name="Grupo 1103406" transform="matrix(0.985, 0.174, -0.174, 0.985, -9418.495, -10392.147)">
        <g id="Grupo_1103413" data-name="Grupo 1103413">
          <g id="Grupo_1103404" data-name="Grupo 1103404" transform="translate(293.879 176.307) rotate(-11)">
            <path id="Trazado_885995" data-name="Trazado 885995" d="M10.38,0H42.363c3.348,0,6.478.886,8.558,3.589C52.091,5.1,52.743,8,52.743,10.38V42.363c0,2.775-.658,6.116-2.642,8.193-1.68,1.77-4.78,2.187-7.738,2.187H10.38c-2.5,0-5.435-.4-7.461-2.069C.836,48.969,0,45.6,0,42.363V10.38C0,7.307.8,4.186,3.145,2.088,4.755.641,7.72,0,10.38,0Z" transform="translate(0.225 0.234)" fill="#0b47db"/>
            <path id="Trazado_885996" data-name="Trazado 885996" d="M417.337,157.976a9.649,9.649,0,0,0,1.956-.268,8.968,8.968,0,0,0,4.751-2.882,8.629,8.629,0,0,0,1.869-3.574,19.309,19.309,0,0,0,.286-4.846c-.009-3.513-.017-7.52-.035-11.933,0-4.422-.017-9.268-.026-14.469v-3.963a15.574,15.574,0,0,0-.294-4.015,8.809,8.809,0,0,0-7.451-6.507,20.526,20.526,0,0,0-2.207-.069h-33.61a8.834,8.834,0,0,0-4.647,1.341,8.431,8.431,0,0,0-1.852,1.558,8,8,0,0,0-1.35,1.99,8.8,8.8,0,0,0-.762,2.259,12.837,12.837,0,0,0-.156,2.388V119.8c0,6.36-.009,12.5-.017,18.354q0,4.387-.009,8.55a22.164,22.164,0,0,0,.173,4.041,8.854,8.854,0,0,0,1.584,3.5,8.75,8.75,0,0,0,6.239,3.5c2.38.087,4.725.035,6.923.052,8.835.026,15.983.052,20.95.069,2.458.017,4.379.035,5.694.043q.961.013,1.48.026a3.612,3.612,0,0,1,.5.026s-.173.017-.5.026c-.355,0-.839.009-1.48.026-1.315.009-3.236.026-5.694.043-4.967.017-12.115.043-20.95.069-2.215-.017-4.517.052-6.957-.026a9.21,9.21,0,0,1-8.169-7.286,22.584,22.584,0,0,1-.19-4.119c0-2.769,0-5.625-.009-8.55,0-5.85,0-11.985-.017-18.354v-4.811a12.53,12.53,0,0,1,.164-2.466,9.067,9.067,0,0,1,.8-2.38,8.973,8.973,0,0,1,1.419-2.085,8.809,8.809,0,0,1,1.947-1.636A9.243,9.243,0,0,1,382.576,105h33.61a19.837,19.837,0,0,1,2.259.078,8.952,8.952,0,0,1,2.181.545,9.181,9.181,0,0,1,5.6,6.274,15.537,15.537,0,0,1,.294,4.119v3.963c-.009,5.2-.017,10.047-.026,14.469s-.026,8.42-.035,11.933a19.037,19.037,0,0,1-.329,4.9,8.712,8.712,0,0,1-1.947,3.634,8.9,8.9,0,0,1-4.863,2.856,7.708,7.708,0,0,1-1.471.173c-.337.009-.5,0-.5,0Z" transform="translate(-373.36 -105)" fill="#8722e2"/>
          </g>
          <g id="Grupo_1103405" data-name="Grupo 1103405" transform="matrix(0.985, -0.174, 0.174, 0.985, 307.151, 184.324)">
            <path id="Trazado_885997" data-name="Trazado 885997" d="M402.375,149.26a16.035,16.035,0,1,1,16.035-16.035A16.05,16.05,0,0,1,402.375,149.26Zm0-31.2a15.17,15.17,0,1,0,15.169,15.17A15.188,15.188,0,0,0,402.375,118.055Z" transform="translate(-386.34 -117.19)" fill="#fff"/>
            <path id="Trazado_885998" data-name="Trazado 885998" d="M403.084,149.213a14.846,14.846,0,0,1-4.11-3.782,18.983,18.983,0,0,1-3.756-12.53,19.66,19.66,0,0,1,4.4-12.2,14.3,14.3,0,0,1,4.119-3.47l.381.779c-.078.035-7.624,3.9-8.03,14.927s7.347,15.481,7.425,15.524Z" transform="translate(-387.533 -117.195)" fill="#fff"/>
            <path id="Trazado_885999" data-name="Trazado 885999" d="M404.977,149.206l-.459-.736c.078-.043,7.58-4.829,7.174-15.862-.407-11.016-7.632-14.555-7.7-14.59l.363-.779c.32.147,7.771,3.773,8.2,15.343.424,11.552-7.5,16.58-7.58,16.632Z" transform="translate(-388.717 -117.197)" fill="#fff"/>
            <path id="Trazado_886000" data-name="Trazado 886000" d="M403.079,129.1c-6.5,0-10.678-2.207-13.049-4.058l.536-.684c2.259,1.765,6.265,3.868,12.522,3.868s9.882-2.094,12.028-3.851l.545.666c-2.259,1.843-6.274,4.05-12.582,4.05Z" transform="translate(-386.837 -118.155)" fill="#fff"/>
            <path id="Trazado_886001" data-name="Trazado 886001" d="M415.165,145.8c-2.259-1.713-6.274-3.756-12.522-3.756s-9.882,2.034-12.037,3.738l-.536-.675c2.259-1.791,6.274-3.929,12.573-3.929a21.55,21.55,0,0,1,13.049,3.937l-.519.692Z" transform="translate(-386.842 -120.42)" fill="#fff"/>
            <rect id="Rectángulo_404066" data-name="Rectángulo 404066" width="30.841" height="0.865" transform="translate(0.813 15.645)" fill="#fff"/>
          </g>
        </g>
      </g>
    </g>
  </g>
</svg>
